SplineFontDB: 3.0
FontName: DeliusSwashCaps-Regular
FullName: Delius Swash Caps
FamilyName: Delius Swash Caps
Weight: Normal
Copyright: Copyright (c) 2010, 2011, Natalia Raices <nraices@gmail.com>, with Reserved Font Name "Delius" "Delius Unicase" "Delius Swash Caps".
Version: 001.002
ItalicAngle: 0
UnderlinePosition: -150
UnderlineWidth: 50
Ascent: 800
Descent: 200
sfntRevision: 0x00010083
LayerCount: 2
Layer: 0 1 "Back"  1
Layer: 1 1 "Fore"  0
NeedsXUIDChange: 1
XUID: [1021 288 713564382 15991043]
FSType: 0
OS2Version: 2
OS2_WeightWidthSlopeOnly: 0
OS2_UseTypoMetrics: 1
CreationTime: 1315000704
ModificationTime: 1314993602
PfmFamily: 65
TTFWeight: 400
TTFWidth: 5
LineGap: 0
VLineGap: 0
Panose: 2 0 6 3 0 0 0 0 0 0
OS2TypoAscent: 986
OS2TypoAOffset: 0
OS2TypoDescent: -270
OS2TypoDOffset: 0
OS2TypoLinegap: 0
OS2WinAscent: 0
OS2WinAOffset: 1
OS2WinDescent: 0
OS2WinDOffset: 1
HheadAscent: 0
HheadAOffset: 1
HheadDescent: 0
HheadDOffset: 1
OS2SubXSize: 700
OS2SubYSize: 650
OS2SubXOff: 0
OS2SubYOff: 140
OS2SupXSize: 700
OS2SupYSize: 650
OS2SupXOff: 0
OS2SupYOff: 477
OS2StrikeYSize: 50
OS2StrikeYPos: 250
OS2FamilyClass: 2560
OS2Vendor: 'pyrs'
OS2CodePages: 00000001.00000000
OS2UnicodeRanges: 00000061.00000000.00000000.00000000
Lookup: 258 0 0 "'kern' Horizontal Kerning lookup 0"  {"'kern' Horizontal Kerning lookup 0 subtable"  } ['kern' ('    ' <'dflt' > 'latn' <'dflt' > ) ]
Lookup: 258 0 0 "'kern' Horizontal Kerning lookup 1"  {"'kern' Horizontal Kerning lookup 1 subtable"  } ['kern' ('    ' <'dflt' > 'latn' <'dflt' > ) ]
MarkAttachClasses: 1
DEI: 91125
TtTable: prep
PUSHW_1
 511
SCANCTRL
PUSHB_1
 4
SCANTYPE
EndTTInstrs

StartChar: exclam
Encoding: 33 33 4
Width: 242
Flags: HMW
HStem: -15 115<110.5 131> 740 20G<107.5 134.5>
VStem: 75 80 75 92<30.5 54.5>
LayerCount: 2
Fore
SplineSet
89.5 81.5 m 128,-1,1
 104 100 104 100 124.5 100 c 128,-1,2
 145 100 145 100 156 85.5 c 128,-1,3
 167 71 167 71 167 46.5 c 128,-1,4
 167 22 167 22 152.5 3.5 c 128,-1,5
 138 -15 138 -15 118 -15 c 128,-1,6
 98 -15 98 -15 86.5 0.5 c 128,-1,7
 75 16 75 16 75 39.5 c 128,-1,0
 75 63 75 63 89.5 81.5 c 128,-1,1
154 468 m 2,8,-1
 157 256 l 2,9,10
 157 206 157 206 121 206 c 128,-1,11
 85 206 85 206 85 256 c 2,12,-1
 88 468 l 2,13,14
 88 536 88 536 84.5 620 c 128,-1,15
 81 704 81 704 81 710 c 0,16,17
 81 760 81 760 121 760 c 128,-1,18
 161 760 161 760 161 710 c 0,19,20
 161 694 161 694 157.5 610.25 c 128,-1,21
 154 526.5 154 526.5 154 468 c 2,8,-1
EndSplineSet
EndChar

StartChar: quotedbl
Encoding: 34 34 5
Width: 342
Flags: HMW
HStem: 490 21G<80 110.5 232 262.5> 705 20G<82.5 101.5 234.5 253.5>
LayerCount: 2
Fore
SplineSet
247 725 m 128,-1,1
 265 725 265 725 276 711 c 128,-1,2
 287 697 287 697 287 683.5 c 0,3,4
 287 670 287 670 282.5 637 c 0,5,6
 278 604 278 604 276 578.5 c 128,-1,7
 274 553 274 553 273 539.5 c 128,-1,8
 272 526 272 526 269 513 c 128,-1,9
 266 500 266 500 261 495 c 128,-1,10
 256 490 256 490 247 490 c 128,-1,11
 238 490 238 490 233 495 c 128,-1,12
 228 500 228 500 225.5 513 c 128,-1,13
 223 526 223 526 221.5 539.5 c 128,-1,14
 220 553 220 553 218 578.5 c 128,-1,15
 216 604 216 604 211.5 636 c 0,16,17
 207 668 207 668 207 683.5 c 0,18,19
 207 699 207 699 218 712 c 128,-1,0
 229 725 229 725 247 725 c 128,-1,1
95 725 m 128,-1,21
 113 725 113 725 124 711 c 128,-1,22
 135 697 135 697 135 683.5 c 0,23,24
 135 670 135 670 130.5 637 c 0,25,26
 126 604 126 604 124 578.5 c 128,-1,27
 122 553 122 553 121 539.5 c 128,-1,28
 120 526 120 526 117 513 c 128,-1,29
 114 500 114 500 109 495 c 128,-1,30
 104 490 104 490 95 490 c 128,-1,31
 86 490 86 490 81 495 c 128,-1,32
 76 500 76 500 73.5 513 c 128,-1,33
 71 526 71 526 69.5 539.5 c 128,-1,34
 68 553 68 553 66 578.5 c 128,-1,35
 64 604 64 604 59.5 636 c 0,36,37
 55 668 55 668 55 683.5 c 0,38,39
 55 699 55 699 66 712 c 128,-1,20
 77 725 77 725 95 725 c 128,-1,21
EndSplineSet
EndChar

StartChar: numbersign
Encoding: 35 35 6
Width: 803
Flags: HMW
HStem: -15 21G<202.5 222> -14 21G<435.5 461> 693 20G<338 357.5> 694 20G<577 596.5>
LayerCount: 2
Fore
SplineSet
296 274 m 1,0,-1
 472 274 l 1,1,-1
 504 441 l 1,2,-1
 328 441 l 1,3,-1
 296 274 l 1,0,-1
665 212 m 2,4,-1
 524 214 l 1,5,6
 510 140 510 140 491 27 c 1,7,8
 483 -14 483 -14 450 -14 c 0,9,10
 421.833333333 -14 421.833333333 -14 421.833333333 21.4691358025 c 0,11,12
 421.833333333 35.1111111111 421.833333333 35.1111111111 435.416666667 100.555555556 c 128,-1,13
 449 166 449 166 458 216 c 1,14,-1
 285 216 l 1,15,-1
 252 26 l 2,16,17
 244 -15 244 -15 211 -15 c 0,18,19
 198 -15 198 -15 190 -6 c 128,-1,20
 182 3 182 3 182 15.5 c 128,-1,21
 182 28 182 28 187 53 c 2,22,-1
 202 123 l 2,23,24
 216 185 216 185 221 215 c 1,25,-1
 94 212 l 1,26,27
 48 212 48 212 48 245 c 128,-1,28
 48 278 48 278 94 278 c 2,29,-1
 234 275 l 1,30,-1
 266 440 l 1,31,-1
 137 437 l 1,32,33
 91 437 91 437 91 470 c 128,-1,34
 91 503 91 503 137 503 c 2,35,-1
 276 500 l 1,36,37
 289 564 289 564 296 606 c 2,38,-1
 308 672 l 2,39,40
 316 713 316 713 349 713 c 0,41,42
 361 713 361 713 369.5 703.5 c 128,-1,43
 378 694 378 694 378 682.5 c 128,-1,44
 378 671 378 671 370 636.5 c 128,-1,45
 362 602 362 602 341 499 c 1,46,-1
 514 499 l 1,47,-1
 535 606 l 1,48,-1
 547 673 l 2,49,50
 555 714 555 714 588 714 c 0,51,52
 600 714 600 714 608.5 704.5 c 128,-1,53
 617 695 617 695 617 683.5 c 128,-1,54
 617 672 617 672 609 637.5 c 128,-1,55
 601 603 601 603 580 500 c 1,56,-1
 709 503 l 1,57,58
 755 503 755 503 755 470 c 128,-1,59
 755 437 755 437 709 437 c 2,60,-1
 567 440 l 1,61,-1
 535 275 l 1,62,-1
 665 278 l 1,63,64
 711 278 711 278 711 245 c 128,-1,65
 711 212 711 212 665 212 c 2,4,-1
EndSplineSet
EndChar

StartChar: dollar
Encoding: 36 36 7
Width: 554
Flags: HMW
HStem: -110 21G<274.5 297.5> 780 20G<274.5 297.5>
VStem: 82 234<255.5 595> 256 247<136 358>
LayerCount: 2
Fore
SplineSet
503 186 m 1,0,1
 503 110 503 110 452.5 56 c 128,-1,2
 402 2 402 2 319 -11 c 1,3,4
 321 -45 321 -45 321 -59 c 0,5,6
 321 -110 321 -110 286 -110 c 128,-1,7
 251 -110 251 -110 251 -59 c 1,8,-1
 252 -13 l 1,9,10
 174 -8 174 -8 113 26 c 128,-1,11
 52 60 52 60 52 93 c 0,12,13
 52 115 52 115 69 121.5 c 0,14,15
 73.1698113208 123.094339623 73.1698113208 123.094339623 83.0188679245 123.094339623 c 0,16,17
 92.8679245283 123.094339623 92.8679245283 123.094339623 114 108 c 1,18,19
 178 56 178 56 254 51 c 1,20,21
 256 237 256 237 256 358 c 1,22,23
 168 407 168 407 125 453 c 128,-1,24
 82 499 82 499 82 557 c 0,25,26
 82 615 82 615 129 658.5 c 128,-1,27
 176 702 176 702 252 710 c 1,28,-1
 252 749 l 2,29,30
 252 800 252 800 286 800 c 128,-1,31
 320 800 320 800 320 749 c 2,32,-1
 320 710 l 1,33,34
 383 704 383 704 426.5 680 c 0,35,36
 470 656 470 656 470 627 c 0,37,38
 470 615 470 615 462 607 c 128,-1,39
 454 599 454 599 439.5 599 c 0,40,41
 425 599 425 599 387.5 621.5 c 0,42,43
 350 644 350 644 318 645 c 1,44,45
 316 485 316 485 316 404 c 1,46,47
 429 336 429 336 464 291.5 c 128,-1,48
 499 247 499 247 503 186 c 1,0,1
316 323 m 1,49,50
 316 99 316 99 317 54 c 1,51,52
 364 62 364 62 396 98 c 1,53,54
 428 136 428 136 428 179.5 c 0,55,56
 428 223 428 223 401 255 c 128,-1,57
 374 287 374 287 316 323 c 1,49,50
155 555 m 0,58,59
 155 503 155 503 256 438 c 1,60,61
 256 551 256 551 254 645 c 1,62,63
 210 640 210 640 182.5 616.5 c 128,-1,64
 155 593 155 593 155 555 c 0,58,59
EndSplineSet
EndChar

StartChar: percent
Encoding: 37 37 8
Width: 804
Flags: HMW
HStem: -15 21G<280.5 293.5 585.5 629>
LayerCount: 2
Fore
SplineSet
558 755 m 0,0,1
 586 741 586 741 585.5 702.5 c 128,-1,2
 585 664 585 664 529 602 c 1,3,4
 329 30 329 30 320 7.5 c 128,-1,5
 311 -15 311 -15 285 -15 c 0,6,7
 272 -15 272 -15 263 -6 c 128,-1,8
 254 3 254 3 254 19 c 128,-1,9
 254 35 254 35 279 95 c 0,10,11
 386 359 386 359 457 577 c 1,12,13
 440.159090909 568.795454545 440.159090909 568.795454545 411.375 568.795454545 c 128,-1,14
 382.590909091 568.795454545 382.590909091 568.795454545 336 583 c 1,15,16
 341 563 341 563 341 542 c 0,17,18
 341 469 341 469 300 419 c 128,-1,19
 259 369 259 369 194 369 c 128,-1,20
 129 369 129 369 88 417 c 1,21,22
 48 466 48 466 48 541 c 128,-1,23
 48 616 48 616 90 665.5 c 128,-1,24
 132 715 132 715 191 715 c 128,-1,25
 250 715 250 715 302.5 671.5 c 128,-1,26
 355 628 355 628 403 628 c 128,-1,27
 451 628 451 628 472 646 c 1,28,-1
 480 674 l 2,29,30
 498 740 498 740 517 753 c 1,31,32
 523.933333333 761.533333333 523.933333333 761.533333333 534.433333333 761.533333333 c 128,-1,33
 544.933333333 761.533333333 544.933333333 761.533333333 558 755 c 0,0,1
134 459 m 128,-1,35
 157 426 157 426 195.5 426 c 128,-1,36
 234 426 234 426 257 458 c 128,-1,37
 280 490 280 490 280 541 c 128,-1,38
 280 592 280 592 257.5 625 c 128,-1,39
 235 658 235 658 196 658 c 128,-1,40
 157 658 157 658 134 626 c 128,-1,41
 111 594 111 594 111 543 c 128,-1,34
 111 492 111 492 134 459 c 128,-1,35
501 33 m 1,42,43
 461 82 461 82 461 157 c 128,-1,44
 461 232 461 232 503 281.5 c 128,-1,45
 545 331 545 331 610.5 331 c 128,-1,46
 676 331 676 331 716.5 283 c 128,-1,47
 757 235 757 235 757 159.5 c 128,-1,48
 757 84 757 84 715 34.5 c 128,-1,49
 673 -15 673 -15 607.5 -15 c 128,-1,50
 542 -15 542 -15 501 33 c 1,42,43
547.5 75 m 128,-1,52
 570 42 570 42 608.5 42 c 128,-1,53
 647 42 647 42 670 74 c 128,-1,54
 693 106 693 106 693 157 c 128,-1,55
 693 208 693 208 670.5 241 c 128,-1,56
 648 274 648 274 609.5 274 c 128,-1,57
 571 274 571 274 548 242 c 128,-1,58
 525 210 525 210 525 159 c 128,-1,51
 525 108 525 108 547.5 75 c 128,-1,52
EndSplineSet
EndChar

StartChar: ampersand
Encoding: 38 38 9
Width: 765
Flags: HMW
HStem: -15 21G<260.5 334> 263 88 725 20G<243.5 287.5>
VStem: 98 242<414 611.5> 313 222<155.5 315.5>
LayerCount: 2
Fore
SplineSet
410 354 m 1,0,-1
 535 349 l 1,1,2
 587 349 587 349 631 375 c 128,-1,3
 675 401 675 401 675 450 c 0,4,5
 675 525 675 525 599 550 c 0,6,7
 569 560 569 560 557 569 c 128,-1,8
 545 578 545 578 545 593 c 0,9,10
 545 626 545 626 583 626 c 0,11,12
 638 626 638 626 690.5 571.5 c 0,13,14
 743 517 743 517 743 455.5 c 0,15,16
 743 394 743 394 706 356 c 1,17,18
 642 286 642 286 508 286 c 1,19,20
 535 241 535 241 535 177 c 128,-1,21
 535 113 535 113 471.5 49 c 0,22,23
 408 -15 408 -15 298 -15 c 0,24,25
 188 -15 188 -15 117.5 55.5 c 0,26,27
 47 126 47 126 47 232 c 0,28,29
 47 292 47 292 81.5 348.5 c 128,-1,30
 116 405 116 405 174 444 c 1,31,32
 141 473 141 473 119.5 512 c 128,-1,33
 98 551 98 551 98 590 c 0,34,35
 98 654 98 654 144 699.5 c 0,36,37
 190 745 190 745 270 745 c 0,38,39
 322 745 322 745 366 722 c 128,-1,40
 410 699 410 699 410 672 c 0,41,42
 410 657 410 657 401 648 c 128,-1,43
 392 639 392 639 380 639 c 0,44,45
 368 639 368 639 337.5 659.5 c 0,46,47
 307 680 307 680 265.5 680 c 0,48,49
 224 680 224 680 196 656 c 128,-1,50
 168 632 168 632 168 596 c 0,51,52
 168 560 168 560 185 527.5 c 128,-1,53
 202 495 202 495 228 477 c 1,54,55
 245.454545455 483.545454545 245.454545455 483.545454545 263.636363636 483.545454545 c 0,56,57
 281.818181818 483.545454545 281.818181818 483.545454545 300 479 c 0,58,59
 340 469 340 469 340 436.5 c 0,60,61
 340 404 340 404 298 393.5 c 0,62,63
 282.526315789 389.631578947 282.526315789 389.631578947 263 389.631578947 c 0,64,65
 243.473684211 389.631578947 243.473684211 389.631578947 222 401 c 1,66,67
 119 350 119 350 119 235 c 0,68,69
 119 158 119 158 169 105 c 1,70,71
 220 53 220 53 296 53 c 128,-1,72
 372 53 372 53 418.5 95 c 0,73,74
 465 137 465 137 465 194 c 0,75,76
 465 281 465 281 415 281 c 0,77,78
 407 281 407 281 382 272 c 128,-1,79
 357 263 357 263 344.5 263 c 0,80,81
 332 263 332 263 322.5 273.5 c 128,-1,82
 313 284 313 284 313 303.5 c 0,83,84
 313 323 313 323 341 338.5 c 128,-1,85
 369 354 369 354 410 354 c 1,0,-1
EndSplineSet
EndChar

StartChar: quotesingle
Encoding: 39 39 10
Width: 190
Flags: HMW
HStem: 490 21G<80 110.5> 705 20G<82.5 101.5>
LayerCount: 2
Fore
SplineSet
95 725 m 128,-1,1
 113 725 113 725 124 711 c 128,-1,2
 135 697 135 697 135 683.5 c 0,3,4
 135 670 135 670 130.5 637 c 0,5,6
 126 604 126 604 124 578.5 c 128,-1,7
 122 553 122 553 121 539.5 c 128,-1,8
 120 526 120 526 117 513 c 128,-1,9
 114 500 114 500 109 495 c 128,-1,10
 104 490 104 490 95 490 c 128,-1,11
 86 490 86 490 81 495 c 128,-1,12
 76 500 76 500 73.5 513 c 128,-1,13
 71 526 71 526 69.5 539.5 c 128,-1,14
 68 553 68 553 66 578.5 c 128,-1,15
 64 604 64 604 59.5 636 c 0,16,17
 55 668 55 668 55 683.5 c 0,18,19
 55 699 55 699 66 712 c 128,-1,0
 77 725 77 725 95 725 c 128,-1,1
EndSplineSet
EndChar

StartChar: parenleft
Encoding: 40 40 11
Width: 302
Flags: HMW
HStem: -230 21G<238.5 255.5> 740 20G<224.5 255.5>
LayerCount: 2
Fore
SplineSet
243 654 m 0,0,1
 121 494.461538462 121 494.461538462 121 239 c 0,2,3
 121 -15.25 121 -15.25 256 -184 c 0,4,5
 268 -199 268 -199 268 -209 c 0,6,7
 268 -230 268 -230 249 -230 c 0,8,9
 217 -230 217 -230 176 -174.5 c 0,10,11
 46 1.4756097561 46 1.4756097561 46 284 c 0,12,13
 46 366.5 46 366.5 67 456.25 c 128,-1,14
 88 546 88 546 118 610.5 c 128,-1,15
 148 675 148 675 182.5 717.5 c 128,-1,16
 217 760 217 760 240 760 c 0,17,18
 282 760 282 760 282 723 c 0,19,20
 282 708 282 708 275.5 698 c 128,-1,21
 269 688 269 688 243 654 c 0,0,1
EndSplineSet
EndChar

StartChar: parenright
Encoding: 41 41 12
Width: 303
Flags: HMW
HStem: -230 21G<46.5 63.5> 740 20G<54.5 69.5>
LayerCount: 2
Fore
SplineSet
256 284 m 0,0,1
 256 -0.333333333333 256 -0.333333333333 125 -175 c 1,2,3
 85 -230 85 -230 53 -230 c 0,4,5
 34 -230 34 -230 34 -209 c 0,6,7
 34 -199 34 -199 46 -184 c 0,8,9
 181 -14.5 181 -14.5 181 239 c 0,10,11
 181 492 181 492 58 656 c 0,12,13
 31 692 31 692 25.25 700.75 c 128,-1,14
 19.5 709.5 19.5 709.5 19.5 723.25 c 128,-1,15
 19.5 737 19.5 737 29 749 c 1,16,17
 40 760 40 760 62.5 760 c 128,-1,18
 85 760 85 760 119 717 c 1,19,20
 155 674 155 674 184.5 610 c 128,-1,21
 214 546 214 546 235 456.25 c 128,-1,22
 256 366.5 256 366.5 256 284 c 0,0,1
EndSplineSet
EndChar

StartChar: asterisk
Encoding: 42 42 13
Width: 424
Flags: HW
LayerCount: 2
Fore
SplineSet
234 555 m 1,0,-1
 245 465 l 1,1,2
 245 438 245 438 224.5 427 c 0,3,4
 216.983333333 422.966666667 216.983333333 422.966666667 207.558333333 422.966666667 c 128,-1,5
 198.133333333 422.966666667 198.133333333 422.966666667 188.566666667 434.983333333 c 128,-1,6
 179 447 179 447 179 460.5 c 128,-1,7
 179 474 179 474 184.5 511 c 128,-1,8
 190 548 190 548 190 555 c 1,9,10
 178 547 178 547 150.5 525 c 128,-1,11
 123 503 123 503 113.433333333 497.733333333 c 128,-1,12
 103.866666667 492.466666667 103.866666667 492.466666667 92.7333333333 492.466666667 c 128,-1,13
 81.6 492.466666667 81.6 492.466666667 72 501 c 0,14,15
 63 510 63 510 63 523 c 0,16,17
 63 545.636363636 63 545.636363636 88 557 c 1,18,19
 137 573 137 573 170 591 c 1,20,21
 137 609 137 609 88 625 c 1,22,23
 63 635 63 635 63 659 c 0,24,25
 63 671 63 671 72 680 c 128,-1,26
 81 689 81 689 93.5 689 c 128,-1,27
 106 689 106 689 115 683.5 c 128,-1,28
 124 678 124 678 151.5 656 c 128,-1,29
 179 634 179 634 190 627 c 1,30,31
 186 658 186 658 179 719 c 1,32,33
 179 746 179 746 199.5 757 c 0,34,35
 206.774193548 760.903225806 206.774193548 760.903225806 216.225806452 760.903225806 c 128,-1,36
 225.677419355 760.903225806 225.677419355 760.903225806 235.338709677 749.201612903 c 128,-1,37
 245 737.5 245 737.5 245 726.25 c 128,-1,38
 245 715 245 715 240 681.5 c 128,-1,39
 235 648 235 648 234 627 c 1,40,41
 245 634 245 634 272.5 656 c 128,-1,42
 300 678 300 678 310.09375 683.515625 c 128,-1,43
 320.1875 689.03125 320.1875 689.03125 331.078125 689.03125 c 128,-1,44
 341.96875 689.03125 341.96875 689.03125 351.484375 680.515625 c 128,-1,45
 361 672 361 672 361 659 c 0,46,47
 361 636.142857143 361 636.142857143 335 625 c 1,48,49
 273 601 273 601 254 591 c 1,50,51
 273 581 273 581 335 557 c 0,52,53
 361 548 361 548 361 523 c 0,54,55
 361 511 361 511 351.5 502 c 128,-1,56
 342 493 342 493 330 493 c 128,-1,57
 318 493 318 493 309.5 498 c 128,-1,58
 301 503 301 503 273.5 525 c 128,-1,59
 246 547 246 547 234 555 c 1,0,-1
EndSplineSet
EndChar

StartChar: plus
Encoding: 43 43 14
Width: 529
Flags: HMW
HStem: 33 21G<254 275.5> 455 20G<254 270.5>
LayerCount: 2
Fore
SplineSet
296 291 m 1,0,-1
 442 294 l 2,1,2
 444.564102564 294.205128205 444.564102564 294.205128205 446.975673899 294.205128205 c 0,3,4
 468.076923077 294.205128205 468.076923077 294.205128205 475.413461538 281.977564103 c 0,5,6
 482.75 269.75 482.75 269.75 482.75 261 c 128,-1,7
 482.75 252.25 482.75 252.25 475.413461538 240.022435897 c 0,8,9
 468.076923077 227.794871795 468.076923077 227.794871795 446.975673899 227.794871795 c 0,10,11
 444.564102564 227.794871795 444.564102564 227.794871795 418.282051282 227.897435897 c 0,12,13
 392 228 392 228 296 231 c 1,14,-1
 300 74 l 2,15,16
 300 55 300 55 290.5 44 c 128,-1,17
 281 33 281 33 265 33 c 0,18,19
 232 33 232 33 232 74 c 0,20,21
 232 96 232 96 236 231 c 1,22,23
 134 228 134 228 102 228 c 128,-1,24
 70 228 70 228 57.9833333333 237.566666667 c 0,25,26
 45.9666666667 247.133333333 45.9666666667 247.133333333 45.9666666667 256.558333333 c 0,27,28
 45.9666666667 265.983333333 45.9666666667 265.983333333 50 273.5 c 0,29,30
 61 294 61 294 88 294 c 2,31,-1
 236 291 l 1,32,33
 232 415 232 415 232 434 c 0,34,35
 232 475 232 475 265 475 c 0,36,37
 281 475 281 475 290.5 464.5 c 0,38,39
 300 454 300 454 300 434.5 c 0,40,41
 300 415 300 415 296 291 c 1,0,-1
EndSplineSet
EndChar

StartChar: comma
Encoding: 44 44 15
Width: 210
Flags: HMW
HStem: -153 21G<42.5 59.5>
LayerCount: 2
Fore
SplineSet
64.6923076923 -28.325443787 m 1,0,-1
 57.6666666667 36.3333333333 l 1,1,2
 57.6666666667 65 57.6666666667 65 71 83 c 1,3,4
 87.6666666667 102.333333333 87.6666666667 102.333333333 101.833333333 102.333333333 c 128,-1,5
 116 102.333333333 116 102.333333333 126 97.5 c 0,6,7
 151.714285714 85.0714285714 151.714285714 85.0714285714 151.714285714 58.3163265306 c 0,8,9
 151.714285714 53.8571428571 151.714285714 53.8571428571 151 49 c 0,10,11
 151 -18 151 -18 116.5 -85.5 c 128,-1,12
 82 -153 82 -153 48 -153 c 0,13,14
 40 -153 40 -153 34 -147.5 c 128,-1,15
 28 -142 28 -142 28 -134.25 c 128,-1,16
 28 -126.5 28 -126.5 46.3461538462 -95.5192307692 c 128,-1,17
 64.6923076923 -64.5384615385 64.6923076923 -64.5384615385 64.6923076923 -28.325443787 c 1,0,-1
EndSplineSet
EndChar

StartChar: hyphen
Encoding: 45 45 16
Width: 428
Flags: HW
LayerCount: 2
Fore
SplineSet
107 294 m 2,0,-1
 214 291 l 1,1,-1
 321 294 l 2,2,3
 323.564102564 294.205128205 323.564102564 294.205128205 325.975673899 294.205128205 c 0,4,5
 347.076923077 294.205128205 347.076923077 294.205128205 354.413461538 281.977564103 c 0,6,7
 361.75 269.75 361.75 269.75 361.75 261 c 128,-1,8
 361.75 252.25 361.75 252.25 354.413461538 240.022435897 c 0,9,10
 347.076923077 227.794871795 347.076923077 227.794871795 325.975673899 227.794871795 c 0,11,12
 323.564102564 227.794871795 323.564102564 227.794871795 321 228 c 2,13,-1
 214 231 l 1,14,-1
 107 228 l 2,15,16
 104.435897436 227.794871795 104.435897436 227.794871795 102.024326101 227.794871795 c 0,17,18
 80.9230769231 227.794871795 80.9230769231 227.794871795 73.5865384615 240.022435897 c 0,19,20
 66.25 252.25 66.25 252.25 66.25 261 c 128,-1,21
 66.25 269.75 66.25 269.75 73.5865384615 281.977564103 c 0,22,23
 80.9230769231 294.205128205 80.9230769231 294.205128205 102.024326101 294.205128205 c 0,24,25
 104.435897436 294.205128205 104.435897436 294.205128205 107 294 c 2,0,-1
EndSplineSet
EndChar

StartChar: period
Encoding: 46 46 17
Width: 207
Flags: HMW
HStem: -10 117<92 114>
VStem: 56 94<36.5 61>
LayerCount: 2
Fore
SplineSet
106 107 m 128,-1,1
 127 107 127 107 138.5 92 c 128,-1,2
 150 77 150 77 150 52.5 c 0,3,4
 150 28 150 28 135 9 c 128,-1,5
 120 -10 120 -10 100 -10 c 128,-1,6
 80 -10 80 -10 68 5.5 c 128,-1,7
 56 21 56 21 56 45 c 128,-1,8
 56 69 56 69 70.5 88 c 128,-1,0
 85 107 85 107 106 107 c 128,-1,1
EndSplineSet
EndChar

StartChar: slash
Encoding: 47 47 18
Width: 363
Flags: HMW
HStem: -152 21G<80 102.5> 740 20G<259.5 282>
LayerCount: 2
Fore
SplineSet
92 -152 m 0,0,1
 56 -152 56 -152 56 -112 c 0,2,3
 56 -95 56 -95 93 63.5 c 0,4,5
 148.533575318 301.393829401 148.533575318 301.393829401 172.766787659 425.696914701 c 128,-1,6
 197 550 197 550 207.5 604 c 128,-1,7
 218 658 218 658 223 684.5 c 128,-1,8
 228 711 228 711 230 718 c 0,9,10
 239 760 239 760 270 760 c 0,11,12
 306 760 306 760 306 718 c 0,13,14
 306 704 306 704 294 651 c 0,15,16
 202 264 202 264 146 -41 c 0,17,18
 137 -90 137 -90 132 -110 c 1,19,20
 124 -152 124 -152 92 -152 c 0,0,1
EndSplineSet
EndChar

StartChar: zero
Encoding: 48 48 19
Width: 658
Flags: HMW
HStem: -15 21G<289.5 368.5> 695 20G<289.5 368.5>
LayerCount: 2
Fore
SplineSet
329 715 m 128,-1,1
 448 715 448 715 522 606.5 c 128,-1,2
 596 498 596 498 596 350 c 128,-1,3
 596 202 596 202 522 93.5 c 128,-1,4
 448 -15 448 -15 329 -15 c 128,-1,5
 210 -15 210 -15 136 93.5 c 128,-1,6
 62 202 62 202 62 350 c 128,-1,7
 62 498 62 498 136 606.5 c 128,-1,0
 210 715 210 715 329 715 c 128,-1,1
468 140 m 1,8,9
 524 231 524 231 524 350.5 c 128,-1,10
 524 470 524 470 468 559.5 c 128,-1,11
 412 649 412 649 328 649 c 128,-1,12
 244 649 244 649 189 560 c 128,-1,13
 134 471 134 471 134 350 c 128,-1,14
 134 229 134 229 189.5 140 c 128,-1,15
 245 51 245 51 328.5 51 c 128,-1,16
 412 51 412 51 468 140 c 1,8,9
EndSplineSet
EndChar

StartChar: one
Encoding: 49 49 20
Width: 397
Flags: HMW
HStem: -10 21G<254.5 271.5>
LayerCount: 2
Fore
SplineSet
295 205 m 2,0,-1
 299 33 l 2,1,2
 299 17 299 17 287.5 3.5 c 128,-1,3
 276 -10 276 -10 259.5 -10 c 128,-1,4
 243 -10 243 -10 232 4 c 128,-1,5
 221 18 221 18 221 40 c 128,-1,6
 221 62 221 62 223.5 121 c 128,-1,7
 226 180 226 180 226 351 c 2,8,-1
 226 602 l 1,9,-1
 178 542 l 2,10,11
 171 533 171 533 152 508 c 0,12,13
 98.1090909091 437.090909091 98.1090909091 437.090909091 82.0545454545 424.045454545 c 128,-1,14
 66 411 66 411 54 411 c 128,-1,15
 42 411 42 411 32 422 c 1,16,17
 22.32 439.6 22.32 439.6 22.32 449.266153846 c 128,-1,18
 22.32 458.932307692 22.32 458.932307692 36.66 476.966153846 c 128,-1,19
 51 495 51 495 78.5 524.5 c 128,-1,20
 106 554 106 554 125 578 c 1,21,22
 149 605 149 605 170 633 c 1,23,-1
 206 678 l 2,24,25
 232.090909091 710.613636364 232.090909091 710.613636364 258.908057851 710.613636364 c 0,26,27
 275.309090909 710.613636364 275.309090909 710.613636364 287.154545455 696.306818182 c 128,-1,28
 299 682 299 682 299 659.5 c 128,-1,29
 299 637 299 637 296.5 576.5 c 128,-1,30
 294 516 294 516 294 384 c 128,-1,31
 294 252 294 252 295 205 c 2,0,-1
EndSplineSet
EndChar

StartChar: two
Encoding: 50 50 21
Width: 548
Flags: HMW
HStem: -5 21G<79.5 96 457 473.5> 543 172<91.5 301.5>
LayerCount: 2
Fore
SplineSet
128 64 m 1,0,-1
 267 64 l 1,1,-1
 457 69 l 2,2,3
 478 69 478 69 492.5 58 c 128,-1,4
 507 47 507 47 507 32 c 0,5,6
 507 -5 507 -5 457 -5 c 1,7,-1
 267 0 l 1,8,-1
 96 -5 l 1,9,10
 46 -5 46 -5 46 41 c 0,11,12
 46 79 46 79 77 117.5 c 0,13,14
 108 156 108 156 120 169 c 2,15,-1
 180 234 l 2,16,17
 227 286 227 286 236 295.5 c 0,18,19
 245 305 245 305 274 337 c 0,20,21
 303 369 303 369 311.5 379.5 c 128,-1,22
 320 390 320 390 332 404 c 0,23,24
 344 418 344 418 368.5 459.5 c 0,25,26
 393 501 393 501 393 532 c 0,27,28
 393 582 393 582 357.5 615.5 c 0,29,30
 322 649 322 649 275 649 c 0,31,32
 193 649 193 649 160 596 c 128,-1,33
 127 543 127 543 101 543 c 0,34,35
 87 543 87 543 77.5 552.5 c 128,-1,36
 68 562 68 562 68 576 c 0,37,38
 68 616 68 616 126.5 665.5 c 0,39,40
 185 715 185 715 272.5 715 c 0,41,42
 360 715 360 715 412.5 659.5 c 0,43,44
 465 604 465 604 465 538 c 0,45,46
 465 472 465 472 429 419.5 c 0,47,48
 393 367 393 367 360.5 332 c 0,49,50
 328 297 328 297 308 273.5 c 0,51,52
 288 250 288 250 233 192 c 0,53,54
 142 98 142 98 128 64 c 1,0,-1
EndSplineSet
EndChar

StartChar: three
Encoding: 51 51 22
Width: 568
Flags: HMW
HStem: -15 21G<240 305>
LayerCount: 2
Fore
SplineSet
107.480151229 705.391304348 m 2,0,-1
 267 700 l 1,1,-1
 419 704 l 1,2,3
 479 704 479 704 479 658 c 0,4,5
 479 636 479 636 456.5 609.5 c 128,-1,6
 434 583 434 583 389 537.5 c 128,-1,7
 344 492 344 492 303 443 c 1,8,9
 400 423 400 423 453 363 c 128,-1,10
 506 303 506 303 506 214.5 c 128,-1,11
 506 126 506 126 442.5 55.5 c 128,-1,12
 379 -15 379 -15 268 -15 c 0,13,14
 184 -15 184 -15 120 31 c 1,15,16
 57 78 57 78 57 117 c 1,17,18
 58.1048951049 145.727272727 58.1048951049 145.727272727 84.5123966942 145.727272727 c 0,19,20
 104.181818182 145.727272727 104.181818182 145.727272727 116 123 c 1,21,22
 134 102 134 102 169 76.5 c 128,-1,23
 204 51 204 51 275 51 c 128,-1,24
 346 51 346 51 389 99 c 1,25,26
 434 147 434 147 434 219 c 128,-1,27
 434 291 434 291 383.5 336 c 128,-1,28
 333 381 333 381 263 386 c 1,29,30
 212.160714286 331.678571429 212.160714286 331.678571429 171.506696429 331.678571429 c 0,31,32
 153.785714286 331.678571429 153.785714286 331.678571429 138 342 c 1,33,34
 120.895652174 356.660869565 120.895652174 356.660869565 129 383 c 0,35,36
 144.540983607 433.508196721 144.540983607 433.508196721 227 450 c 1,37,38
 310 542 310 542 383 632 c 1,39,-1
 267 636 l 1,40,-1
 115 631 l 2,41,42
 111.086956522 630.608695652 111.086956522 630.608695652 107.480151229 630.608695652 c 0,43,44
 83.4347826087 630.608695652 83.4347826087 630.608695652 75.2173913043 644.304347826 c 128,-1,45
 67 658 67 658 67 668 c 128,-1,46
 67 678 67 678 75.2173913043 691.695652174 c 128,-1,47
 83.4347826087 705.391304348 83.4347826087 705.391304348 107.480151229 705.391304348 c 2,0,-1
EndSplineSet
EndChar

StartChar: four
Encoding: 52 52 23
Width: 578
Flags: HMW
HStem: 690 20G<373.5 402.5>
LayerCount: 2
Fore
SplineSet
497 226 m 2,0,-1
 432 228 l 1,1,-1
 437 40 l 2,2,3
 437.375 36.125 437.375 36.125 437.375 32.53125 c 0,4,5
 437.375 7.375 437.375 7.375 419 -4 c 0,6,7
 408.5 -10.5 408.5 -10.5 398 -10.5 c 1,8,-1
 377 -4 l 1,9,10
 358.625 7.375 358.625 7.375 358.625 32.53125 c 0,11,12
 358.625 36.125 358.625 36.125 359 40 c 2,13,-1
 363 230 l 1,14,-1
 289 231 l 1,15,-1
 70 227 l 2,16,17
 68.6666666667 226.955555556 68.6666666667 226.955555556 67.3728395062 226.955555556 c 0,18,19
 39.5555555556 226.955555556 39.5555555556 226.955555556 30 247.5 c 0,20,21
 23.75 260.9375 23.75 260.9375 23.75 269.34375 c 128,-1,22
 23.75 277.75 23.75 277.75 26.375 285.875 c 128,-1,23
 29 294 29 294 46.5 321 c 128,-1,24
 64 348 64 348 92.5 382 c 128,-1,25
 121 416 121 416 198 514 c 2,26,-1
 315 663 l 2,27,28
 351 710 351 710 385 710 c 0,29,30
 437 710 437 710 437 650 c 0,31,32
 437 629 437 629 434.5 567.5 c 128,-1,33
 432 506 432 506 432 297 c 1,34,-1
 489 300 l 1,35,36
 511 300 511 300 525 290 c 128,-1,37
 539 280 539 280 539 263.5 c 128,-1,38
 539 247 539 247 525.5 236.5 c 128,-1,39
 512 226 512 226 497 226 c 2,0,-1
115 295 m 1,40,-1
 364 295 l 1,41,42
 366 393 366 393 366 474 c 1,43,-1
 364 614 l 1,44,45
 258.454545455 491.898395722 258.454545455 491.898395722 115 295 c 1,40,-1
EndSplineSet
EndChar

StartChar: five
Encoding: 53 53 24
Width: 575
Flags: HMW
HStem: -15 21G<250.5 317>
LayerCount: 2
Fore
SplineSet
432 631 m 2,0,-1
 290 636 l 1,1,2
 247 636 247 636 202 634 c 128,-1,3
 157 632 157 632 156 632 c 1,4,5
 162 581 162 581 162 532 c 128,-1,6
 162 483 162 483 156 429 c 2,7,-1
 154 411 l 1,8,9
 224.5 465 224.5 465 301 465 c 0,10,11
 407 465 407 465 464.5 399.5 c 128,-1,12
 522 334 522 334 522 232.75 c 128,-1,13
 522 131.5 522 131.5 457 58.25 c 128,-1,14
 392 -15 392 -15 280 -15 c 0,15,16
 192 -15 192 -15 127 38.5 c 128,-1,17
 62 92 62 92 62 139 c 0,18,19
 62 154 62 154 70.5 163.5 c 128,-1,20
 79 173 79 173 92 173 c 128,-1,21
 105 173 105 173 111.5 167 c 128,-1,22
 118 161 118 161 130 143 c 2,23,-1
 144 122 l 1,24,25
 204 51 204 51 280 51 c 128,-1,26
 356 51 356 51 403 107 c 128,-1,27
 450 163 450 163 450 234.5 c 128,-1,28
 450 306 450 306 408.5 352.5 c 128,-1,29
 367 399 367 399 297.5 399 c 128,-1,30
 228 399 228 399 157 344 c 0,31,32
 134 325 134 325 120 325 c 0,33,34
 81 325 81 325 81 367 c 0,35,36
 81 378 81 378 87.5 432.5 c 128,-1,37
 94 487 94 487 94 524.5 c 128,-1,38
 94 562 94 562 88.5 608 c 128,-1,39
 83 654 83 654 83 658 c 0,40,41
 83 705 83 705 138 705 c 1,42,-1
 290 700 l 1,43,-1
 432 705 l 2,44,45
 435.913043478 705.391304348 435.913043478 705.391304348 439.519848771 705.391304348 c 0,46,47
 463.565217391 705.391304348 463.565217391 705.391304348 471.782608696 691.695652174 c 128,-1,48
 480 678 480 678 480 668 c 128,-1,49
 480 658 480 658 471.782608696 644.304347826 c 128,-1,50
 463.565217391 630.608695652 463.565217391 630.608695652 439.519848771 630.608695652 c 0,51,52
 435.913043478 630.608695652 435.913043478 630.608695652 432 631 c 2,0,-1
EndSplineSet
EndChar

StartChar: six
Encoding: 54 54 25
Width: 577
Flags: HMW
HStem: -15 21G<259.5 332.5> 690 20G<371.5 445.5>
LayerCount: 2
Fore
SplineSet
62 266 m 0,0,1
 62 451 62 451 164.5 580.5 c 128,-1,2
 267 710 267 710 424 710 c 0,3,4
 488 710 488 710 488 675 c 0,5,6
 488 638 488 638 433 638 c 0,7,8
 318 638 318 638 237 555.75 c 128,-1,9
 156 473.5 156 473.5 141 361 c 1,10,11
 167 400 167 400 213.5 426.5 c 128,-1,12
 260 453 260 453 314 453 c 0,13,14
 412 453 412 453 468 385 c 128,-1,15
 524 317 524 317 524 223 c 128,-1,16
 524 129 524 129 464.75 57 c 128,-1,17
 405.5 -15 405.5 -15 296.25 -15 c 128,-1,18
 187 -15 187 -15 124 64 c 1,19,20
 62 144 62 144 62 266 c 0,0,1
186 335 m 128,-1,22
 141 281 141 281 141 212.5 c 128,-1,23
 141 144 141 144 187 96.5 c 128,-1,24
 233 49 233 49 299.5 49 c 128,-1,25
 366 49 366 49 409 98 c 128,-1,26
 452 147 452 147 452 218.5 c 128,-1,27
 452 290 452 290 411.5 339.5 c 128,-1,28
 371 389 371 389 301 389 c 128,-1,21
 231 389 231 389 186 335 c 128,-1,22
EndSplineSet
EndChar

StartChar: seven
Encoding: 55 55 26
Width: 490
Flags: HMW
HStem: -10 21G<148 175.5> 685 20G<64.5 81 405 425>
LayerCount: 2
Fore
SplineSet
81 705 m 1,0,-1
 243 700 l 1,1,-1
 405 705 l 1,2,3
 465 705 465 705 465 658 c 0,4,5
 465 638 465 638 446 596 c 128,-1,6
 427 554 427 554 388.5 478 c 128,-1,7
 350 402 350 402 298 281.5 c 128,-1,8
 246 161 246 161 218 64 c 1,9,-1
 207 24 l 1,10,11
 194 -10 194 -10 166 -10 c 0,12,13
 131.957446809 -10 131.957446809 -10 131.957446809 32.7342689 c 0,14,15
 131.957446809 40.2127659574 131.957446809 40.2127659574 136.978723404 66.1063829787 c 128,-1,16
 142 92 142 92 158 132 c 2,17,-1
 172 167 l 2,18,19
 195 226 195 226 203.5 244.5 c 128,-1,20
 212 263 212 263 263 382 c 1,21,-1
 374 632 l 1,22,-1
 243 636 l 1,23,-1
 81 631 l 1,24,25
 31 631 31 631 31 668 c 128,-1,26
 31 705 31 705 81 705 c 1,0,-1
EndSplineSet
EndChar

StartChar: eight
Encoding: 56 56 27
Width: 576
Flags: HMW
HStem: -15 21G<254.5 321.5> 695 20G<259.5 314.5>
LayerCount: 2
Fore
SplineSet
223 394 m 1,0,1
 159 430 159 430 128 469 c 128,-1,2
 97 508 97 508 97 565.25 c 0,3,4
 97 622.5 97 622.5 150.5 668.75 c 0,5,6
 204 715 204 715 286.5 715 c 0,7,8
 369 715 369 715 424 668.5 c 0,9,10
 479 622 479 622 479 566 c 0,11,12
 479 510 479 510 450 471 c 128,-1,13
 421 432 421 432 361 394 c 1,14,15
 517 317 517 317 517 180 c 0,16,17
 517 102 517 102 452.5 43.5 c 0,18,19
 388 -15 388 -15 288 -15 c 128,-1,20
 188 -15 188 -15 123.5 43.5 c 0,21,22
 59 102 59 102 59 180 c 0,23,24
 59 320 59 320 223 394 c 1,0,1
445 188 m 0,25,26
 445 288 445 288 288 355 c 1,27,28
 131 288 131 288 131 188 c 0,29,30
 131 126 131 126 175.5 88.5 c 0,31,32
 220 51 220 51 288 51 c 128,-1,33
 356 51 356 51 400.5 88.5 c 0,34,35
 445 126 445 126 445 188 c 0,25,26
290 430 m 1,36,37
 351 463 351 463 380 493 c 128,-1,38
 409 523 409 523 409 560.5 c 0,39,40
 409 598 409 598 372.5 623.5 c 0,41,42
 336 649 336 649 289 649 c 128,-1,43
 242 649 242 649 204.5 623.5 c 0,44,45
 167 598 167 598 167 560.5 c 0,46,47
 167 523 167 523 196.5 494 c 128,-1,48
 226 465 226 465 290 430 c 1,36,37
EndSplineSet
EndChar

StartChar: nine
Encoding: 57 57 28
Width: 575
Flags: HMW
HStem: -10 21G<129.5 204> 695 20G<246.5 317.5>
LayerCount: 2
Fore
SplineSet
513 434 m 0,0,1
 513 243.5 513 243.5 411.5 116.75 c 0,2,3
 310 -10 310 -10 151 -10 c 0,4,5
 87 -10 87 -10 87 25 c 0,6,7
 87 62 87 62 142 62 c 0,8,9
 260 62 260 62 339.5 141.5 c 0,10,11
 419 221 419 221 434 339 c 1,12,13
 408 300 408 300 361.5 273.5 c 128,-1,14
 315 247 315 247 261 247 c 0,15,16
 163 247 163 247 107 318 c 128,-1,17
 51 389 51 389 51 481.5 c 0,18,19
 51 574 51 574 113 645 c 1,20,21
 176 715 176 715 282 715 c 128,-1,22
 388 715 388 715 450.5 635.25 c 0,23,24
 513 555.5 513 555.5 513 434 c 0,0,1
278 651 m 128,-1,26
 212 651 212 651 167 602 c 1,27,28
 123 552 123 552 123 481 c 128,-1,29
 123 410 123 410 163.5 360.5 c 0,30,31
 204 311 204 311 274 311 c 128,-1,32
 344 311 344 311 389 365 c 128,-1,33
 434 419 434 419 434 487 c 128,-1,34
 434 555 434 555 389 603 c 128,-1,25
 344 651 344 651 278 651 c 128,-1,26
EndSplineSet
EndChar

StartChar: colon
Encoding: 58 58 29
Width: 226
Flags: HMW
HStem: -10 117<102 124> 393 117<102 124>
VStem: 66 94<36.5 61 439.5 464>
LayerCount: 2
Fore
SplineSet
116 510 m 128,-1,1
 137 510 137 510 148.5 495 c 128,-1,2
 160 480 160 480 160 455.5 c 0,3,4
 160 431 160 431 145 412 c 128,-1,5
 130 393 130 393 110 393 c 128,-1,6
 90 393 90 393 78 408.5 c 128,-1,7
 66 424 66 424 66 448 c 128,-1,8
 66 472 66 472 80.5 491 c 128,-1,0
 95 510 95 510 116 510 c 128,-1,1
116 107 m 128,-1,10
 137 107 137 107 148.5 92 c 128,-1,11
 160 77 160 77 160 52.5 c 0,12,13
 160 28 160 28 145 9 c 128,-1,14
 130 -10 130 -10 110 -10 c 128,-1,15
 90 -10 90 -10 78 5.5 c 128,-1,16
 66 21 66 21 66 45 c 128,-1,17
 66 69 66 69 80.5 88 c 128,-1,9
 95 107 95 107 116 107 c 128,-1,10
EndSplineSet
EndChar

StartChar: semicolon
Encoding: 59 59 30
Width: 242
Flags: HMW
HStem: -153 21G<61.5 78.5> 393 117<113 135>
VStem: 77 94<439.5 464>
LayerCount: 2
Fore
SplineSet
83.6923076923 -28.325443787 m 1,0,-1
 76.6666666667 36.3333333333 l 1,1,2
 76.6666666667 65 76.6666666667 65 90 83 c 1,3,4
 106.666666667 102.333333333 106.666666667 102.333333333 120.833333333 102.333333333 c 128,-1,5
 135 102.333333333 135 102.333333333 145 97.5 c 0,6,7
 170.714285714 85.0714285714 170.714285714 85.0714285714 170.714285714 58.3163265306 c 0,8,9
 170.714285714 53.8571428571 170.714285714 53.8571428571 170 49 c 0,10,11
 170 -18 170 -18 135.5 -85.5 c 128,-1,12
 101 -153 101 -153 67 -153 c 0,13,14
 59 -153 59 -153 53 -147.5 c 128,-1,15
 47 -142 47 -142 47 -134.25 c 128,-1,16
 47 -126.5 47 -126.5 65.3461538462 -95.5192307692 c 128,-1,17
 83.6923076923 -64.5384615385 83.6923076923 -64.5384615385 83.6923076923 -28.325443787 c 1,0,-1
127 510 m 128,-1,19
 148 510 148 510 159.5 495 c 128,-1,20
 171 480 171 480 171 455.5 c 128,-1,21
 171 431 171 431 156.5 412 c 128,-1,22
 142 393 142 393 121.5 393 c 128,-1,23
 101 393 101 393 89 408.5 c 128,-1,24
 77 424 77 424 77 448 c 128,-1,25
 77 472 77 472 91.5 491 c 128,-1,18
 106 510 106 510 127 510 c 128,-1,19
EndSplineSet
EndChar

StartChar: less
Encoding: 60 60 31
Width: 543
Flags: HW
LayerCount: 2
Fore
SplineSet
437.92937981 508.29787234 m 0,0,1
 472 508.29787234 472 508.29787234 472 476 c 0,2,3
 472.461538462 473.384615385 472.461538462 473.384615385 472.461538462 470.911242604 c 0,4,5
 472.461538462 457.307692308 472.461538462 457.307692308 457.230769231 447.153846154 c 128,-1,6
 442 437 442 437 388.5 415 c 128,-1,7
 335 393 335 393 290.5 372 c 128,-1,8
 246 351 246 351 223.5 341 c 128,-1,9
 201 331 201 331 168 312 c 1,10,11
 151 301 151 301 151 294 c 0,12,13
 151 277.5 151 277.5 346 192 c 0,14,15
 433 153 433 153 440 149 c 0,16,17
 472.6 131.013793103 472.6 131.013793103 472.6 106.02 c 0,18,19
 472.6 91.7 472.6 91.7 462.28 81.81 c 128,-1,20
 451.96 71.92 451.96 71.92 446.42 71.92 c 128,-1,21
 440.88 71.92 440.88 71.92 440 72 c 0,22,23
 410 72 410 72 348 108 c 1,24,25
 239 166 239 166 187 190 c 2,26,-1
 116 224 l 1,27,28
 43.7391304348 255.614130435 43.7391304348 255.614130435 43.7391304348 294.657844991 c 0,29,30
 43.7391304348 324.815217391 43.7391304348 324.815217391 106 354 c 1,31,32
 129 366 129 366 188 394 c 1,33,-1
 307 454 l 2,34,35
 383 493 383 493 400.968085106 500.64893617 c 128,-1,36
 418.936170213 508.29787234 418.936170213 508.29787234 437.92937981 508.29787234 c 0,0,1
EndSplineSet
EndChar

StartChar: equal
Encoding: 61 61 32
Width: 592
Flags: HW
LayerCount: 2
Fore
SplineSet
296 363 m 1,0,-1
 473 366 l 2,1,2
 475.564102564 366.205128205 475.564102564 366.205128205 477.975673899 366.205128205 c 0,3,4
 499.076923077 366.205128205 499.076923077 366.205128205 506.413461538 353.977564103 c 0,5,6
 513.75 341.75 513.75 341.75 513.75 333 c 128,-1,7
 513.75 324.25 513.75 324.25 506.413461538 312.022435897 c 0,8,9
 499.076923077 299.794871795 499.076923077 299.794871795 477.975673899 299.794871795 c 0,10,11
 475.564102564 299.794871795 475.564102564 299.794871795 473 300 c 2,12,-1
 296 303 l 1,13,-1
 119 300 l 2,14,15
 116.435897436 299.794871795 116.435897436 299.794871795 114.024326101 299.794871795 c 0,16,17
 92.9230769231 299.794871795 92.9230769231 299.794871795 85.5865384615 312.022435897 c 0,18,19
 78.25 324.25 78.25 324.25 78.25 333 c 128,-1,20
 78.25 341.75 78.25 341.75 85.5865384615 353.977564103 c 0,21,22
 92.9230769231 366.205128205 92.9230769231 366.205128205 114.024326101 366.205128205 c 0,23,24
 116.435897436 366.205128205 116.435897436 366.205128205 119 366 c 2,25,-1
 296 363 l 1,0,-1
119 222 m 2,26,-1
 296 219 l 1,27,-1
 473 222 l 2,28,29
 475.564102564 222.205128205 475.564102564 222.205128205 477.975673899 222.205128205 c 0,30,31
 499.076923077 222.205128205 499.076923077 222.205128205 506.413461538 209.977564103 c 0,32,33
 513.75 197.75 513.75 197.75 513.75 189 c 128,-1,34
 513.75 180.25 513.75 180.25 506.413461538 168.022435897 c 0,35,36
 499.076923077 155.794871795 499.076923077 155.794871795 477.975673899 155.794871795 c 0,37,38
 475.564102564 155.794871795 475.564102564 155.794871795 473 156 c 2,39,-1
 296 159 l 1,40,-1
 119 156 l 2,41,42
 116.435897436 155.794871795 116.435897436 155.794871795 114.024326101 155.794871795 c 0,43,44
 92.9230769231 155.794871795 92.9230769231 155.794871795 85.5865384615 168.022435897 c 0,45,46
 78.25 180.25 78.25 180.25 78.25 189 c 128,-1,47
 78.25 197.75 78.25 197.75 85.5865384615 209.977564103 c 0,48,49
 92.9230769231 222.205128205 92.9230769231 222.205128205 114.024326101 222.205128205 c 0,50,51
 116.435897436 222.205128205 116.435897436 222.205128205 119 222 c 2,26,-1
EndSplineSet
EndChar

StartChar: greater
Encoding: 62 62 33
Width: 543
Flags: HW
LayerCount: 2
Fore
SplineSet
200.5 110.5 m 128,-1,1
 173 96 173 96 150.646464646 84.4191919192 c 128,-1,2
 128.292929293 72.8383838384 128.292929293 72.8383838384 107.870523416 72.8383838384 c 0,3,4
 69.7777777778 72.8383838384 69.7777777778 72.8383838384 69.7777777778 111.925925926 c 0,5,6
 69.7777777778 127.931623932 69.7777777778 127.931623932 85.8888888889 138.465811966 c 0,7,8
 105.649122807 151.385964912 105.649122807 151.385964912 154.324561404 172.692982456 c 128,-1,9
 203 194 203 194 297.5 237.25 c 128,-1,10
 392 280.5 392 280.5 392 294 c 0,11,12
 392 304 392 304 336 333 c 0,13,14
 331 336 331 336 322.5 339.5 c 128,-1,15
 314 343 314 343 313 344 c 2,16,-1
 256 370 l 1,17,18
 228 384 228 384 198 396 c 2,19,-1
 141 420 l 1,20,21
 70.3823529412 444.5 70.3823529412 444.5 70.3823529412 474.711721453 c 0,22,23
 70.3823529412 486.426470588 70.3823529412 486.426470588 81 499 c 1,24,25
 86 502 86 502 90 504.5 c 128,-1,26
 94 507 94 507 97.5 508 c 128,-1,27
 101 509 101 509 106 509 c 2,28,-1
 113.5 509 l 2,29,30
 116 509 116 509 122 507 c 128,-1,31
 128 505 128 505 130.5 504.5 c 128,-1,32
 133 504 133 504 141 500.5 c 0,33,34
 173.86746988 486.120481928 173.86746988 486.120481928 235 454 c 1,35,-1
 355 394 l 1,36,37
 433.913043478 358.130434783 433.913043478 358.130434783 461.456521739 341.065217391 c 0,38,39
 497.914285714 318.476942158 497.914285714 318.476942158 497.914285714 297.668571429 c 0,40,41
 497.914285714 285.6 497.914285714 285.6 491 268 c 1,42,43
 482 256 482 256 463 244 c 128,-1,44
 444 232 444 232 372.5 198.5 c 128,-1,45
 301 165 301 165 264.5 145 c 128,-1,0
 228 125 228 125 200.5 110.5 c 128,-1,1
EndSplineSet
EndChar

StartChar: question
Encoding: 63 63 34
Width: 451
Flags: HMW
HStem: -15 115<178.5 199> 740 20G<194 242.5>
LayerCount: 2
Fore
SplineSet
339 436 m 0,0,1
 322 417 322 417 287 382 c 0,2,3
 225 320 225 320 225 261.5 c 128,-1,4
 225 203 225 203 190 203 c 0,5,6
 153 203 153 203 153 259 c 0,7,8
 153 334 153 334 215 402 c 0,9,10
 232 421 232 421 267 456 c 1,11,12
 329 521 329 521 329 575 c 128,-1,13
 329 629 329 629 294.5 662.5 c 128,-1,14
 260 696 260 696 223 696 c 0,15,16
 158 696 158 696 128.5 658 c 128,-1,17
 99 620 99 620 83 620 c 128,-1,18
 67 620 67 620 58 629 c 128,-1,19
 49 638 49 638 49 652 c 0,20,21
 49 687 49 687 100.5 723.5 c 128,-1,22
 152 760 152 760 215 760 c 0,23,24
 298 760 298 760 349.5 708.5 c 128,-1,25
 401 657 401 657 401 579 c 128,-1,26
 401 501 401 501 339 436 c 0,0,1
157.5 81.5 m 128,-1,28
 172 100 172 100 192.5 100 c 128,-1,29
 213 100 213 100 224 85.5 c 128,-1,30
 235 71 235 71 235 46.5 c 128,-1,31
 235 22 235 22 220.5 3.5 c 128,-1,32
 206 -15 206 -15 186 -15 c 128,-1,33
 166 -15 166 -15 154.5 0.5 c 128,-1,34
 143 16 143 16 143 39.5 c 128,-1,27
 143 63 143 63 157.5 81.5 c 128,-1,28
EndSplineSet
EndChar

StartChar: at
Encoding: 64 64 35
Width: 1003
Flags: HMW
HStem: -230 21G<394 510> -9 21G<441.5 482.5 729.5 793>
LayerCount: 2
Fore
SplineSet
710 413 m 0,0,1
 710 401 710 401 690 243 c 1,2,-1
 690 199 l 2,3,4
 690 58 690 58 766 58 c 0,5,6
 809.5 58 809.5 58 844.25 109.5 c 0,7,8
 879 161 879 161 879 274 c 0,9,10
 879 387 879 387 826 473 c 1,11,12
 775 558 775 558 692 601 c 128,-1,13
 609 644 609 644 507 644 c 0,14,15
 353 644 353 644 243.5 519.5 c 0,16,17
 134 395 134 395 134 222.5 c 0,18,19
 134 50 134 50 229 -57 c 128,-1,20
 324 -164 324 -164 454 -164 c 0,21,22
 559 -164 559 -164 623.513533745 -124.616931806 c 0,23,24
 688.02706749 -85.2338636117 688.02706749 -85.2338636117 700.554601699 -85.0187117294 c 0,25,26
 713.082135908 -84.8035598472 713.082135908 -84.8035598472 718 -93 c 1,27,28
 726.018181818 -101.781818182 726.018181818 -101.781818182 726.018181818 -114.809090909 c 0,29,30
 726.018181818 -127.836363636 726.018181818 -127.836363636 705 -147 c 1,31,32
 676 -178 676 -178 604.5 -204 c 128,-1,33
 533 -230 533 -230 449 -230 c 0,34,35
 283 -230 283 -230 171 -105 c 0,36,37
 59 20 59 20 59 218 c 0,38,39
 58.8548387097 224.290322581 58.8548387097 224.290322581 58.8548387097 230.544354839 c 0,40,41
 58.8548387097 353.540322581 58.8548387097 353.540322581 116.427419355 465.27016129 c 0,42,43
 174 577 174 577 277.489208633 643.528776978 c 0,44,45
 380.978417266 710.057553957 380.978417266 710.057553957 500.879043528 710.057553957 c 0,46,47
 504.431654676 710.057553957 504.431654676 710.057553957 508 710 c 0,48,49
 701 710 701 710 827.5 591.25 c 0,50,51
 954 472.5 954 472.5 954 267 c 0,52,53
 954 148 954 148 899.5 69.5 c 0,54,55
 845 -9 845 -9 767 -9 c 0,56,57
 656 -9 656 -9 636 117 c 1,58,59
 612 64 612 64 568 27.5 c 0,60,61
 524 -9 524 -9 462 -9 c 128,-1,62
 400 -9 400 -9 359 31 c 0,63,64
 285 102 285 102 285 226 c 0,65,66
 285 329 285 329 346.5 405.5 c 0,67,68
 408 482 408 482 505 482 c 0,69,70
 566 482 566 482 629 437 c 1,71,72
 636.5 482 636.5 482 671 482 c 0,73,74
 710 482 710 482 710 413 c 0,0,1
630 216 m 1,75,-1
 630 365 l 1,76,77
 578 416 578 416 511.5 416 c 0,78,79
 445 416 445 416 400 363 c 0,80,81
 355 310 355 310 355 234.5 c 0,82,83
 355 159 355 159 383.5 106.5 c 0,84,85
 412 54 412 54 464.5 54 c 0,86,87
 517 54 517 54 560.5 100.5 c 0,88,89
 604 147 604 147 630 216 c 1,75,-1
EndSplineSet
EndChar

StartChar: A
Encoding: 65 65 36
Width: 817
Flags: HMW
HStem: -15 21G<100 154 721 751.5> 740 20G<455.5 484.5>
LayerCount: 2
Fore
SplineSet
577 338 m 1,0,1
 482 646 482 646 469.5 646 c 128,-1,2
 457 646 457 646 385 418 c 2,3,-1
 361 342 l 1,4,5
 404.676470588 348.617647059 404.676470588 348.617647059 458.147058824 348.617647059 c 128,-1,6
 511.617647059 348.617647059 511.617647059 348.617647059 577 338 c 1,0,1
266 259 m 1,7,8
 195.5 236.5 195.5 236.5 146.25 187.25 c 128,-1,9
 97 138 97 138 97 95 c 0,10,11
 97 74 97 74 107.5 62.5 c 128,-1,12
 118 51 118 51 135 51 c 0,13,14
 190 51 190 51 266 259 c 1,7,8
792 52 m 0,15,16
 792 22 792 22 776 3.5 c 128,-1,17
 760 -15 760 -15 736 -15 c 0,18,19
 692 -15 692 -15 669 50 c 1,20,21
 624 183.5 624 183.5 597 272 c 1,22,23
 521.468085106 285.29787234 521.468085106 285.29787234 458.712765957 285.29787234 c 128,-1,24
 395.957446809 285.29787234 395.957446809 285.29787234 344 275 c 1,25,26
 279 112 279 112 248 63 c 0,27,28
 198 -15 198 -15 132 -15 c 0,29,30
 86 -15 86 -15 59 16 c 128,-1,31
 32 47 32 47 32 93 c 0,32,33
 32 162 32 162 101.75 232.25 c 128,-1,34
 171.5 302.5 171.5 302.5 284 328 c 1,35,36
 328 450 328 450 366.5 569 c 128,-1,37
 405 688 405 688 410 700 c 0,38,39
 431 760 431 760 468 760 c 0,40,41
 509 760 509 760 529 708 c 0,42,43
 534 694 534 694 557 625 c 2,44,-1
 656 325 l 1,45,46
 697 313 697 313 723 294 c 128,-1,47
 749 275 749 275 749 261 c 0,48,49
 749 238 749 238 724 238 c 0,50,51
 715 238 715 238 676 252 c 1,52,53
 719 113 719 113 732 93 c 128,-1,54
 745 73 745 73 753 69 c 128,-1,55
 761 65 761 65 771 63 c 0,56,57
 792 58.8 792 58.8 792 52 c 0,15,16
EndSplineSet
EndChar

StartChar: B
Encoding: 66 66 37
Width: 742
Flags: HMW
HStem: 745 20G<304.5 407.5>
VStem: 53 213 609 80<214 272.5>
LayerCount: 2
Fore
SplineSet
186.829787234 164.850158443 m 1,0,-1
 192 295 l 1,1,2
 126 298 126 298 89.5 326.5 c 128,-1,3
 53 355 53 355 53 393 c 128,-1,4
 53 431 53 431 89.5 459 c 128,-1,5
 126 487 126 487 192 497 c 1,6,7
 183 650 183 650 183 671 c 0,8,9
 183 765 183 765 365 765 c 0,10,11
 493 765 493 765 563.5 712.5 c 128,-1,12
 634 660 634 660 634 582 c 128,-1,13
 634 504 634 504 556 437 c 1,14,15
 689 364 689 364 689 243 c 0,16,17
 689 164 689 164 640 103.5 c 128,-1,18
 591 43 591 43 512.96875 13.9375 c 128,-1,19
 434.9375 -15.125 434.9375 -15.125 356.041015625 -15.125 c 0,20,21
 268.204268293 -15.125 268.204268293 -15.125 195.102134146 6.4375 c 128,-1,22
 122 28 122 28 83 57.25 c 128,-1,23
 44 86.5 44 86.5 44 105.75 c 128,-1,24
 44 125 44 125 54 135.5 c 128,-1,25
 64 146 64 146 78 146 c 0,26,27
 78.4666666667 146.066666667 78.4666666667 146.066666667 82.5166666667 146.066666667 c 128,-1,28
 86.5666666667 146.066666667 86.5666666667 146.066666667 109.283333333 132.533333333 c 128,-1,29
 132 119 132 119 160.5 101 c 128,-1,30
 189 83 189 83 235.451612903 68.9677419355 c 128,-1,31
 281.903225806 54.935483871 281.903225806 54.935483871 327.681581686 54.935483871 c 0,32,33
 330.838709677 54.935483871 330.838709677 54.935483871 334 55 c 0,34,35
 453 55 453 55 531 107 c 128,-1,36
 609 159 609 159 609 241 c 0,37,38
 609 288 609 288 581 328 c 128,-1,39
 553 368 553 368 505 392 c 1,40,41
 402 316 402 316 264 298 c 1,42,-1
 268 170 l 2,43,44
 268.367346939 166.204081633 268.367346939 166.204081633 268.367346939 162.670553936 c 0,45,46
 268.367346939 137.346938776 268.367346939 137.346938776 249.5 125.5 c 0,47,48
 238.75 118.75 238.75 118.75 228 118.75 c 1,49,-1
 206.5 125.5 l 1,50,51
 186.829787234 137.85106383 186.829787234 137.85106383 186.829787234 164.850158443 c 1,0,-1
262 672 m 1,52,53
 262 637 262 637 264 503 c 1,54,55
 385 503 385 503 493 465 c 1,56,57
 560 516 560 516 560 577.25 c 128,-1,58
 560 638.5 560 638.5 510 666.75 c 128,-1,59
 460 695 460 695 385.5 695 c 128,-1,60
 311 695 311 695 262 672 c 1,52,53
262 435 m 1,61,-1
 262 366 l 1,62,63
 306 368 306 368 359.5 383.5 c 128,-1,64
 413 399 413 399 443 419 c 1,65,66
 387.5 437 387.5 437 290 437 c 0,67,68
 272 437 272 437 262 435 c 1,61,-1
193 362 m 1,69,-1
 193 430 l 1,70,71
 122 422 122 422 122 397 c 0,72,73
 122 364 122 364 193 362 c 1,69,-1
EndSplineSet
EndChar

StartChar: C
Encoding: 67 67 38
Width: 696
Flags: HMW
HStem: -15 21G<343 424.5> 745 20G<336.5 420>
VStem: 57 81<334.5 420 334.5 429.5>
LayerCount: 2
Fore
SplineSet
383 765 m 0,0,1
 494 765 494 765 565 703 c 128,-1,2
 636 641 636 641 636 558 c 0,3,4
 636 493 636 493 595 450.5 c 0,5,6
 554 408 554 408 498 408 c 128,-1,7
 442 408 442 408 404 444 c 1,8,9
 366 482 366 482 366 525.5 c 0,10,11
 366 569 366 569 385 598 c 128,-1,12
 404 627 404 627 431 627 c 0,13,14
 446 627 446 627 456 618.5 c 128,-1,15
 466 610 466 610 466 597.5 c 0,16,17
 466 585 466 585 452 565.5 c 0,18,19
 438 546 438 546 438 524.5 c 0,20,21
 438 503 438 503 455 488.5 c 128,-1,22
 472 474 472 474 499.5 474 c 0,23,24
 527 474 527 474 545.5 495.5 c 128,-1,25
 564 517 564 517 564 553 c 0,26,27
 564 606 564 606 516 650 c 1,28,29
 470 695 470 695 383 695 c 0,30,31
 276 695 276 695 207 600.5 c 0,32,33
 138 506 138 506 138 377.75 c 0,34,35
 138 249.5 138 249.5 210 152.25 c 0,36,37
 282 55 282 55 392 55 c 0,38,39
 441 55 441 55 483.5 68 c 128,-1,40
 526 81 526 81 548 99 c 0,41,42
 601 143 601 143 612.5 143 c 0,43,44
 624 143 624 143 632 135.5 c 128,-1,45
 640 128 640 128 640 117 c 0,46,47
 640 78 640 78 565.5 31.5 c 0,48,49
 491 -15 491 -15 391 -15 c 0,50,51
 247 -15 247 -15 152 98 c 1,52,53
 57 213 57 213 57 376.5 c 0,54,55
 57 540 57 540 150 652.5 c 0,56,57
 243 765 243 765 383 765 c 0,0,1
EndSplineSet
EndChar

StartChar: D
Encoding: 68 68 39
Width: 823
Flags: HMW
HStem: -15 21G<310 396.5> 740 20G<363.5 446.5>
VStem: 176 127 685 82<324.5 408.5>
LayerCount: 2
Fore
SplineSet
767 373 m 0,0,1
 767 269 767 269 719.5 183 c 128,-1,2
 672 97 672 97 577.5 41 c 128,-1,3
 483 -15 483 -15 353.5 -15 c 128,-1,4
 224 -15 224 -15 137 60 c 128,-1,5
 50 135 50 135 50 246 c 0,6,7
 50 327 50 327 101.5 384.5 c 128,-1,8
 153 442 153 442 228 456 c 1,9,10
 228 541 228 541 224 658 c 1,11,12
 176 658 176 658 176 692.25 c 128,-1,13
 176 726.5 176 726.5 243 743.25 c 128,-1,14
 310 760 310 760 392 760 c 128,-1,15
 474 760 474 760 549 727 c 128,-1,16
 624 694 624 694 670 638 c 0,17,18
 767 523 767 523 767 373 c 0,0,1
225 215 m 1,19,-1
 229 338 l 1,20,-1
 229 386 l 1,21,22
 183 373 183 373 155.5 334.5 c 128,-1,23
 128 296 128 296 128 246 c 0,24,25
 128 168 128 168 191 111 c 1,26,27
 256 55 256 55 357 55 c 0,28,29
 496 55 496 55 590.5 146.5 c 128,-1,30
 685 238 685 238 685 363 c 128,-1,31
 685 488 685 488 611 586 c 0,32,33
 574 634 574 634 514 662 c 128,-1,34
 454 690 454 690 381 690 c 0,35,36
 346.5 690 346.5 690 306 681 c 1,37,-1
 301 461 l 1,38,39
 368 457 368 457 422 419.25 c 128,-1,40
 476 381.5 476 381.5 476 341 c 0,41,42
 476 317 476 317 456.5 309.5 c 0,43,44
 450.764705882 307.294117647 450.764705882 307.294117647 440.647058824 307.294117647 c 128,-1,45
 430.529411765 307.294117647 430.529411765 307.294117647 421.764705882 314.647058824 c 128,-1,46
 413 322 413 322 396 341 c 128,-1,47
 379 360 379 360 369.5 367.5 c 0,48,49
 335.933333333 394 335.933333333 394 300 394 c 1,50,-1
 301 322 l 1,51,-1
 304 262 l 2,52,53
 306.25 236.5 306.25 236.5 306.25 225.6875 c 128,-1,54
 306.25 214.875 306.25 214.875 305.625 203.9375 c 128,-1,55
 305 193 305 193 294.079710145 179.485507246 c 128,-1,56
 283.15942029 165.971014493 283.15942029 165.971014493 271.789855072 165.971014493 c 128,-1,57
 260.420289855 165.971014493 260.420289855 165.971014493 251 170.5 c 0,58,59
 225 183 225 183 225 215 c 1,19,-1
EndSplineSet
EndChar

StartChar: E
Encoding: 69 69 40
Width: 631
Flags: HMW
HStem: -15 21G<310.5 379.5> 745 20G<306 362.5>
VStem: 53 80<212.5 268 212.5 270.5>
LayerCount: 2
Fore
SplineSet
233 473 m 1,0,1
 306.165577342 508.037037037 306.165577342 508.037037037 369.082788671 508.037037037 c 128,-1,2
 432 508.037037037 432 508.037037037 458 483 c 1,3,4
 488.1875 461.197916667 488.1875 461.197916667 488.1875 428.1796875 c 0,5,6
 488.1875 401.827586207 488.1875 401.827586207 470.59375 382.413793103 c 0,7,8
 433.96875 342 433.96875 342 356 342 c 0,9,10
 324 342 324 342 285 356.5 c 128,-1,11
 246 371 246 371 218 392 c 1,12,13
 133 334 133 334 133 235 c 0,14,15
 133 168 133 168 192 111.5 c 128,-1,16
 251 55 251 55 352.5 55 c 128,-1,17
 454 55 454 55 509 98 c 128,-1,18
 564 141 564 141 579 141 c 0,19,20
 607 141 607 141 607 115 c 0,21,22
 607 93 607 93 575 63 c 128,-1,23
 543 33 543 33 482.5 9 c 128,-1,24
 422 -15 422 -15 358 -15 c 0,25,26
 217 -15 217 -15 134 59 c 1,27,28
 53 134 53 134 53 226 c 0,29,30
 53 360 53 360 170 437 c 1,31,32
 115 493 115 493 115 578 c 128,-1,33
 115 663 115 663 182 714 c 0,34,35
 250 765 250 765 335 765 c 128,-1,36
 420 765 420 765 484 733.5 c 128,-1,37
 548 702 548 702 548 664 c 0,38,39
 548 640 548 640 527.5 632.5 c 0,40,41
 522.105263158 630.526315789 522.105263158 630.526315789 510.473684211 630.526315789 c 128,-1,42
 498.842105263 630.526315789 498.842105263 630.526315789 476 646 c 1,43,44
 411.451316595 694.676056338 411.451316595 694.676056338 345.605939988 694.676056338 c 128,-1,45
 279.76056338 694.676056338 279.76056338 694.676056338 237 664 c 1,46,47
 189 634 189 634 189 571.5 c 128,-1,48
 189 509 189 509 233 473 c 1,0,1
284 433 m 2,49,-1
 273 428 l 1,50,51
 308 402 308 402 361 402 c 128,-1,52
 414 402 414 402 414 427 c 0,53,54
 414 448 414 448 365 448 c 128,-1,55
 316 448 316 448 284 433 c 2,49,-1
EndSplineSet
EndChar

StartChar: F
Encoding: 70 70 41
Width: 642
Flags: HMW
HStem: -10 21G<197.5 224.5>
VStem: 25 224
LayerCount: 2
Fore
SplineSet
170 48 m 2,0,-1
 175 343 l 1,1,2
 109 354 109 354 109 389 c 0,3,4
 109 405 109 405 118 414 c 0,5,6
 127.538461538 423.538461538 127.538461538 423.538461538 137.50887574 423.538461538 c 128,-1,7
 147.307692308 423.538461538 147.307692308 423.538461538 175 418 c 1,8,-1
 172 579 l 1,9,10
 105 587 105 587 65 618.5 c 128,-1,11
 25 650 25 650 25 697 c 0,12,13
 25 728 25 728 50 756.5 c 128,-1,14
 75 785 75 785 125.5 785 c 128,-1,15
 176 785 176 785 206 747.5 c 128,-1,16
 236 710 236 710 243 647 c 1,17,18
 417 647 417 647 562 758 c 1,19,20
 586.31372549 773.68627451 586.31372549 773.68627451 594.950980392 773.68627451 c 0,21,22
 618.944272446 773.68627451 618.944272446 773.68627451 623 748 c 1,23,24
 623 706 623 706 562.5 665 c 128,-1,25
 502 624 502 624 414 598.5 c 128,-1,26
 326 573 326 573 247 573 c 1,27,-1
 247 408 l 1,28,29
 280.484848485 402.878787879 280.484848485 402.878787879 325.939393939 402.878787879 c 128,-1,30
 371.393939394 402.878787879 371.393939394 402.878787879 432.196969697 414.439393939 c 128,-1,31
 493 426 493 426 500.5 426 c 128,-1,32
 508 426 508 426 517.5 418.5 c 128,-1,33
 527 411 527 411 527 398 c 0,34,35
 527 370 527 370 455.733333333 352.183333333 c 128,-1,36
 384.466666667 334.366666667 384.466666667 334.366666667 299.826666667 334.366666667 c 0,37,38
 274.066666667 334.366666667 274.066666667 334.366666667 247 336 c 1,39,-1
 252 48 l 1,40,41
 252 -10 252 -10 211 -10 c 128,-1,42
 170 -10 170 -10 170 48 c 2,0,-1
170 651 m 1,43,44
 162 720 162 720 124 720 c 0,45,46
 112 720 112 720 103 712 c 128,-1,47
 94 704 94 704 94 694 c 0,48,49
 94 660 94 660 170 651 c 1,43,44
EndSplineSet
EndChar

StartChar: G
Encoding: 71 71 42
Width: 781
Flags: HMW
HStem: -16 21G<336 424.5> 745 20G<344.5 423>
VStem: 57 81<334.5 420 334.5 429.5>
LayerCount: 2
Fore
SplineSet
585 341 m 1,0,1
 569 364 569 364 508.5 375 c 0,2,3
 480.770833333 380.041666667 480.770833333 380.041666667 459.802083333 380.041666667 c 128,-1,4
 438.833333333 380.041666667 438.833333333 380.041666667 428 373 c 1,5,6
 397 363 397 363 397 348 c 0,7,8
 397 322 397 322 462.5 322 c 128,-1,9
 528 322 528 322 585 341 c 1,0,1
595 281 m 1,10,11
 528 257 528 257 462 257 c 128,-1,12
 396 257 396 257 357.5 281.5 c 128,-1,13
 319 306 319 306 319 343.5 c 128,-1,14
 319 381 319 381 356 414 c 0,15,16
 394 447 394 447 463 447 c 128,-1,17
 532 447 532 447 581.25 421.75 c 128,-1,18
 630.5 396.5 630.5 396.5 650 371 c 1,19,20
 668 378.5 668 378.5 699 401.25 c 128,-1,21
 730 424 730 424 740 424 c 0,22,23
 766 424 766 424 766 394 c 0,24,25
 766 360 766 360 670 309 c 1,26,27
 670 169 670 169 588.5 76.5 c 128,-1,28
 507 -16 507 -16 383 -16 c 0,29,30
 242 -16 242 -16 149 98 c 1,31,32
 57 213 57 213 57 376 c 128,-1,33
 57 539 57 539 152 652 c 0,34,35
 248 765 248 765 393 765 c 0,36,37
 482 765 482 765 555 730.5 c 128,-1,38
 628 696 628 696 628 654 c 0,39,40
 628 629 628 629 607.5 622 c 0,41,42
 601.260869565 619.869565217 601.260869565 619.869565217 589.565217391 619.869565217 c 0,43,44
 569.507246377 619.869565217 569.507246377 619.869565217 520 657 c 1,45,46
 476 695 476 695 393 695 c 0,47,48
 282 695 282 695 210 600.5 c 128,-1,49
 138 506 138 506 138 377.75 c 128,-1,50
 138 249.5 138 249.5 207 152.25 c 128,-1,51
 276 55 276 55 382 55 c 0,52,53
 470 55 470 55 532 124.5 c 128,-1,54
 594 194 594 194 595 281 c 1,10,11
EndSplineSet
EndChar

StartChar: H
Encoding: 72 72 43
Width: 715
Flags: HMW
HStem: 740 20G<136.5 153.5 561.5 587.5>
LayerCount: 2
Fore
SplineSet
45 397 m 1,0,1
 47.6730769231 431.75 47.6730769231 431.75 72.125 431.75 c 0,2,3
 87.5 431.75 87.5 431.75 113 416 c 1,4,-1
 107 709 l 2,5,6
 107 731 107 731 119 745.5 c 128,-1,7
 131 760 131 760 148 760 c 128,-1,8
 165 760 165 760 177 746 c 128,-1,9
 189 732 189 732 189 709 c 128,-1,10
 189 686 189 686 186.5 623 c 128,-1,11
 184 560 184 560 184 389 c 1,12,13
 227 374 227 374 299 374 c 0,14,15
 459 374 459 374 537 472 c 1,16,-1
 532 693 l 1,17,18
 532 760 532 760 576 760 c 0,19,20
 611 760 611 760 618 729 c 1,21,22
 626.320754717 700.075471698 626.320754717 700.075471698 626.320754717 634.650943396 c 128,-1,23
 626.320754717 569.226415094 626.320754717 569.226415094 607 437 c 1,24,-1
 614 41 l 2,25,26
 615 10 615 10 594 -3 c 0,27,28
 583.5 -9.5 583.5 -9.5 573 -9.5 c 1,29,-1
 552 -3 l 1,30,31
 531 10 531 10 532 41 c 2,32,-1
 538 345 l 1,33,-1
 538 377 l 1,34,35
 500 345 500 345 430.5 326 c 128,-1,36
 361 307 361 307 297.5 307 c 128,-1,37
 234 307 234 307 184 317 c 1,38,-1
 189 41 l 2,39,40
 190 10 190 10 169 -3 c 0,41,42
 158.5 -9.5 158.5 -9.5 148 -9.5 c 1,43,-1
 127 -3 l 1,44,45
 106 10 106 10 107 41 c 2,46,-1
 111 334 l 1,47,48
 45 356.5 45 356.5 45 397 c 1,0,1
EndSplineSet
EndChar

StartChar: I
Encoding: 73 73 44
Width: 598
Flags: HMW
HStem: -15 21G<211.5 278.5> 662 98
VStem: 258 229<185.5 499.5>
LayerCount: 2
Fore
SplineSet
487 444 m 2,0,-1
 486 275 l 2,1,2
 486 127 486 127 415.5 56 c 128,-1,3
 345 -15 345 -15 244.5 -15 c 128,-1,4
 144 -15 144 -15 90 43 c 1,5,6
 37 102 37 102 37 174.5 c 128,-1,7
 37 247 37 247 83 292.5 c 128,-1,8
 129 338 129 338 189 338 c 128,-1,9
 249 338 249 338 284 300 c 128,-1,10
 319.01189455 261.987085917 319.01189455 261.987085917 319.01189455 207.002283646 c 128,-1,11
 319.01189455 152.017481375 319.01189455 152.017481375 281.549730851 127.479505521 c 0,12,13
 269.646872145 119.683050893 269.646872145 119.683050893 262.155147602 119.683050893 c 0,14,15
 247.085381362 119.683050893 247.085381362 119.683050893 249 135 c 0,16,17
 249 136 249 136 251.5 146.5 c 0,18,19
 258 173.8 258 173.8 258 199.9 c 128,-1,20
 258 226 258 226 237 248.5 c 128,-1,21
 216 271 216 271 184 271 c 128,-1,22
 152 271 152 271 130.5 245.5 c 128,-1,23
 109 220 109 220 109 176.5 c 128,-1,24
 109 133 109 133 141 93 c 1,25,26
 174 55 174 55 237 55 c 0,27,28
 320 55 320 55 367 110.5 c 128,-1,29
 414 166 414 166 414 266 c 2,30,-1
 415 444 l 2,31,32
 415 583 415 583 413 671 c 1,33,34
 354.5 662 354.5 662 314 662 c 0,35,36
 98 662 98 662 98 725 c 0,37,38
 98 760 98 760 136 760 c 0,39,40
 141 760 141 760 201.25 747.5 c 128,-1,41
 261.5 735 261.5 735 313.75 735 c 128,-1,42
 366 735 366 735 437.5 747.5 c 128,-1,43
 509 760 509 760 516 760 c 0,44,45
 558 760 558 760 558 726.5 c 128,-1,46
 558 693 558 693 489 681 c 1,47,48
 487 587 487 587 487 444 c 2,0,-1
EndSplineSet
EndChar

StartChar: J
Encoding: 74 74 45
Width: 576
Flags: HMW
HStem: -235 21G<189 257> 663 98
VStem: 244 215<23.5 36>
LayerCount: 2
Fore
SplineSet
460 485 m 1,0,-1
 459 237.5 l 1,1,-1
 459 75 l 2,2,3
 459 -81 459 -81 391.5 -158 c 128,-1,4
 324 -235 324 -235 222.5 -235 c 128,-1,5
 121 -235 121 -235 64 -171 c 1,6,7
 8 -106 8 -106 8 -27.25 c 128,-1,8
 8 51.5 8 51.5 56 104.25 c 128,-1,9
 104 157 104 157 167.5 157 c 128,-1,10
 231 157 231 157 268.006005183 118.993994817 c 128,-1,11
 305.012010366 80.987989634 305.012010366 80.987989634 305.012010366 25.7454278959 c 128,-1,12
 305.012010366 -29.4971338421 305.012010366 -29.4971338421 266.863638673 -53.7136107301 c 0,13,14
 255.273738793 -61.0708459178 255.273738793 -61.0708459178 247.94709329 -61.0708459178 c 0,15,16
 233.11614426 -61.0708459178 233.11614426 -61.0708459178 235 -46 c 0,17,18
 235 -45 235 -45 237.5 -34.5 c 0,19,20
 244 -7.2 244 -7.2 244 19.4 c 128,-1,21
 244 46 244 46 222 68.5 c 128,-1,22
 200 91 200 91 165 91 c 128,-1,23
 130 91 130 91 105 56.5 c 128,-1,24
 80 22 80 22 80 -30.5 c 128,-1,25
 80 -83 80 -83 117 -125 c 128,-1,26
 154 -167 154 -167 218 -167 c 0,27,28
 299 -167 299 -167 344 -102.5 c 128,-1,29
 389 -38 389 -38 389 76 c 0,30,31
 389 349 389 349 387.5 486 c 128,-1,32
 386 623 386 623 386 672 c 1,33,34
 327.5 663 327.5 663 287 663 c 0,35,36
 71 663 71 663 71 726 c 0,37,38
 71 761 71 761 109 761 c 0,39,40
 114 761 114 761 174 748.5 c 128,-1,41
 234 736 234 736 286.5 736 c 128,-1,42
 339 736 339 736 410.5 748.5 c 128,-1,43
 482 761 482 761 489 761 c 0,44,45
 531 761 531 761 531 727.5 c 128,-1,46
 531 694 531 694 462 682 c 1,47,-1
 462 668 l 1,48,-1
 460 485 l 1,0,-1
EndSplineSet
EndChar

StartChar: K
Encoding: 75 75 46
Width: 706
Flags: HMW
HStem: -81 21G<621 660.5> -4 21G<680 688 688 697.5> 740 20G<191.5 210.5 548.5 569.5>
VStem: 42 201
LayerCount: 2
Fore
SplineSet
238 437 m 1,0,-1
 239 349 l 1,1,2
 303 355 303 355 334 377 c 1,3,4
 301 426.5 301 426.5 238 437 c 1,0,-1
170 355 m 1,5,-1
 170 441 l 1,6,7
 143 437 143 437 127 425.5 c 128,-1,8
 111 414 111 414 111 399 c 0,9,10
 111 369 111 369 170 355 c 1,5,-1
164.64 33.812 m 2,11,-1
 168 283 l 1,12,13
 109 295 109 295 75.5 327.5 c 128,-1,14
 42 360 42 360 42 402 c 128,-1,15
 42 444 42 444 76 476 c 128,-1,16
 110 508 110 508 168 515 c 1,17,-1
 163 709 l 2,18,19
 163 732 163 732 174 746 c 128,-1,20
 185 760 185 760 204 760 c 128,-1,21
 223 760 223 760 234 746 c 128,-1,22
 245 732 245 732 245 713.5 c 128,-1,23
 245 695 245 695 240 512 c 1,24,25
 338 495 338 495 390 426 c 1,26,27
 438 480 438 480 472.5 557.5 c 128,-1,28
 507 635 507 635 519 716 c 1,29,30
 527 760 527 760 560 760 c 0,31,32
 575 760 575 760 584.5 750 c 128,-1,33
 594 740 594 740 594 723 c 0,34,35
 594 652 594 652 544 545 c 128,-1,36
 494 438 494 438 430 368 c 1,37,38
 530 163 530 163 591 65 c 0,39,40
 632 -1 632 -1 680 -4 c 1,41,-1
 688 -4 l 2,42,43
 705 -4 705 -4 705 -9 c 2,44,-1
 705 -14 l 2,45,46
 705 -44 705 -44 687.5 -62.5 c 128,-1,47
 670 -81 670 -81 646 -81 c 128,-1,48
 622 -81 622 -81 605.5 -71 c 128,-1,49
 589 -61 589 -61 582.5 -54 c 128,-1,50
 576 -47 576 -47 561.5 -30 c 0,51,52
 533.432748538 2.90643274854 533.432748538 2.90643274854 477 109 c 1,53,-1
 369 321 l 1,54,55
 312 289 312 289 240 280 c 1,56,-1
 247 41 l 2,57,58
 247.36 37.28 247.36 37.28 247.36 33.812 c 0,59,60
 247.36 8.38 247.36 8.38 228 -3.5 c 0,61,62
 217 -10.25 217 -10.25 206 -10.25 c 1,63,-1
 184 -3.5 l 1,64,65
 164.64 8.38 164.64 8.38 164.64 33.812 c 2,11,-1
EndSplineSet
EndChar

StartChar: L
Encoding: 76 76 47
Width: 621
Flags: HMW
HStem: -9 21G<74.5 96.5> 742 20G<148.5 172.5>
VStem: 35 184 357 230<175.5 177.5 132.5 212>
LayerCount: 2
Fore
SplineSet
160 13 m 1,0,1
 113 -9 113 -9 90 -9 c 128,-1,2
 67 -9 67 -9 51 7.5 c 128,-1,3
 35 24 35 24 35 48 c 128,-1,4
 35 72 35 72 49.5 88 c 0,5,6
 65.0069444444 105.111111111 65.0069444444 105.111111111 84.0034722222 105.111111111 c 128,-1,7
 103 105.111111111 103 105.111111111 127 98 c 1,8,9
 147 164 147 164 147 382 c 0,10,11
 147 497 147 497 134 605 c 128,-1,12
 121 713 121 713 121 725.5 c 128,-1,13
 121 738 121 738 132 750 c 128,-1,14
 143 762 143 762 160 762 c 0,15,16
 196 762 196 762 204 711 c 1,17,18
 219 601.5 219 601.5 219 384.25 c 128,-1,19
 219 167 219 167 198 77 c 1,20,21
 267 55 267 55 366 55 c 0,22,23
 426 55 426 55 469.5 83.5 c 128,-1,24
 513 112 513 112 513 159 c 0,25,26
 513 182 513 182 498.5 198.5 c 128,-1,27
 484 215 484 215 463 215 c 0,28,29
 424 215 424 215 416 176 c 1,30,31
 406 137 406 137 387 137 c 0,32,33
 375 137 375 137 366 153 c 128,-1,34
 357 169 357 169 357 188 c 0,35,36
 357 225 357 225 387.5 253 c 128,-1,37
 418 281 418 281 465 281 c 128,-1,38
 512 281 512 281 549.5 248 c 128,-1,39
 587 215 587 215 587 159 c 0,40,41
 587 80 587 80 521.5 33.5 c 0,42,43
 453.00672043 -15.125 453.00672043 -15.125 360.878360215 -15.125 c 128,-1,44
 268.75 -15.125 268.75 -15.125 160 13 c 1,0,1
EndSplineSet
EndChar

StartChar: M
Encoding: 77 77 48
Width: 989
Flags: HMW
HStem: -10 21G<139.5 171.5> -7 21G<853 899>
VStem: 31 178<110.5 245> 793 150
LayerCount: 2
Fore
SplineSet
253 626 m 1,0,-1
 251 716 l 2,1,2
 251 732 251 732 262 745 c 1,3,4
 271.263157895 758.473684211 271.263157895 758.473684211 289.03601108 758.473684211 c 0,5,6
 317.480263158 758.473684211 317.480263158 758.473684211 333 723 c 0,7,8
 470 410 470 410 560 230 c 1,9,10
 657.5 419 657.5 419 740 620 c 0,11,12
 763 676 763 676 786 728 c 0,13,14
 800 758 800 758 827 758 c 0,15,16
 868 758 868 758 868 707 c 2,17,-1
 863 375 l 1,18,19
 863 125 863 125 901 76 c 0,20,21
 906 71 906 71 916.5 70 c 128,-1,22
 927 69 927 69 935 68 c 128,-1,23
 943 67 943 67 943 61 c 0,24,25
 943 31 943 31 925.5 12 c 128,-1,26
 908 -7 908 -7 883 -7 c 0,27,28
 793 -7 793 -7 793 233 c 2,29,-1
 793 569 l 1,30,-1
 600 145 l 2,31,32
 586.222222222 114.492063492 586.222222222 114.492063492 564.212144117 114.492063492 c 0,33,34
 541.277056277 114.492063492 541.277056277 114.492063492 523 148 c 0,35,36
 522 150 522 150 478 253 c 128,-1,37
 434 356 434 356 328 573 c 1,38,-1
 328 340 l 2,39,40
 328 181 328 181 300.5 104.5 c 128,-1,41
 273 28 273 28 225 4 c 0,42,43
 195 -10 195 -10 159 -10 c 0,44,45
 100.5 -10 100.5 -10 65.75 32.5 c 128,-1,46
 31 75 31 75 31 130 c 128,-1,47
 31 185 31 185 68.5 228.5 c 128,-1,48
 106 272 106 272 158 272 c 0,49,50
 180 272 180 272 194.5 261.5 c 128,-1,51
 209 251 209 251 209 231 c 0,52,53
 209 194 209 194 161 194 c 0,54,55
 139 194 139 194 123 175.5 c 128,-1,56
 107 157 107 157 107 129.5 c 128,-1,57
 107 102 107 102 122 84.5 c 128,-1,58
 137 67 137 67 164 67 c 0,59,60
 217 67 217 67 236.5 143 c 128,-1,61
 256 219 256 219 256 386.5 c 128,-1,62
 256 554 256 554 253 626 c 1,0,-1
EndSplineSet
EndChar

StartChar: N
Encoding: 78 78 49
Width: 878
Flags: HMW
HStem: -11 21G<667.5 689> -8 21G<139.5 215> 741 20G<259.5 281.5 736 788.5>
VStem: 31 178<112.5 247> 629 82 629 225<456.5 712>
LayerCount: 2
Fore
SplineSet
159 -8 m 0,0,1
 100.5 -8 100.5 -8 65.75 34.5 c 128,-1,2
 31 77 31 77 31 132 c 128,-1,3
 31 187 31 187 68.5 230.5 c 128,-1,4
 106 274 106 274 158 274 c 0,5,6
 180 274 180 274 194.5 263.5 c 128,-1,7
 209 253 209 253 209 233 c 0,8,9
 209 196 209 196 161 196 c 0,10,11
 139 196 139 196 123 177.5 c 128,-1,12
 107 159 107 159 107 131.5 c 128,-1,13
 107 104 107 104 122 86.5 c 128,-1,14
 137 69 137 69 164 69 c 0,15,16
 257 69 257 69 257 357 c 0,17,18
 257 436 257 436 241 564 c 128,-1,19
 225 692 225 692 225 713.5 c 128,-1,20
 225 735 225 735 239 748 c 128,-1,21
 253 761 253 761 272 761 c 0,22,23
 300 761 300 761 317 726 c 0,24,25
 371 621 371 621 471 445 c 128,-1,26
 571 269 571 269 644 153 c 1,27,28
 640 153 640 153 634.5 292.5 c 128,-1,29
 629 432 629 432 629 476 c 0,30,31
 629 587 629 587 651 665 c 0,32,33
 664 710 664 710 693.5 735.5 c 128,-1,34
 723 761 723 761 761.5 761 c 128,-1,35
 800 761 800 761 827 740.5 c 128,-1,36
 854 720 854 720 854 693 c 128,-1,37
 854 666 854 666 831 666 c 0,38,39
 824 666 824 666 801.75 675 c 128,-1,40
 779.5 684 779.5 684 763 684 c 0,41,42
 700 684 700 684 700 395 c 0,43,44
 700 327 700 327 711 187 c 128,-1,45
 722 47 722 47 722 31 c 128,-1,46
 722 15 722 15 708.5 2 c 128,-1,47
 695 -11 695 -11 677 -11 c 0,48,49
 650 -11 650 -11 630 24 c 0,50,51
 580 113 580 113 516 223 c 1,52,-1
 389 450 l 1,53,54
 334 552 334 552 313 584 c 1,55,56
 327 452 327 452 327 333 c 0,57,58
 327 -8 327 -8 159 -8 c 0,0,1
EndSplineSet
EndChar

StartChar: O
Encoding: 79 79 50
Width: 811
Flags: HMW
HStem: -15 21G<362.5 463.5> 745 20G<418.5 503.5>
VStem: 55 90<317 507> 55 185<345 408.5 345 418>
LayerCount: 2
Fore
SplineSet
462 695 m 0,0,1
 394 695 394 695 342 645.5 c 0,2,3
 290 596 290 596 265 523.75 c 0,4,5
 240 451.5 240 451.5 240 400.75 c 0,6,7
 240 350 240 350 243 319 c 128,-1,8
 246 288 246 288 248.5 270.5 c 128,-1,9
 251 253 251 253 251 250 c 0,10,11
 251 225 251 225 228 225 c 0,12,13
 208 225 208 225 191 276.5 c 0,14,15
 174 328 174 328 174 384 c 0,16,17
 174 537 174 537 253 651 c 0,18,19
 332 765 332 765 460.25 765 c 0,20,21
 588.5 765 588.5 765 670.75 655 c 0,22,23
 753 545 753 545 753 380.5 c 0,24,25
 753 216 753 216 658.5 100.5 c 0,26,27
 564 -15 564 -15 412.5 -15 c 0,28,29
 261 -15 261 -15 158 94 c 128,-1,30
 55 203 55 203 55 374 c 0,31,32
 55 444 55 444 69.5 487.5 c 128,-1,33
 84 531 84 531 113 531 c 0,34,35
 127 531 127 531 136 521.5 c 128,-1,36
 145 512 145 512 145 502 c 0,37,38
 145 492 145 492 138.5 449.5 c 128,-1,39
 132 407 132 407 132 374 c 0,40,41
 132 227 132 227 215 141 c 128,-1,42
 298 55 298 55 410 55 c 0,43,44
 491 55 491 55 553.5 100 c 128,-1,45
 616 145 616 145 646.060606061 215.303030303 c 0,46,47
 676.121212121 285.606060606 676.121212121 285.606060606 676.121212121 363.860422406 c 0,48,49
 676.121212121 368.909090909 676.121212121 368.909090909 676 374 c 0,50,51
 676 506 676 506 617.5 600.5 c 0,52,53
 559 695 559 695 462 695 c 0,0,1
EndSplineSet
EndChar

StartChar: P
Encoding: 80 80 51
Width: 691
Flags: HMW
HStem: 740 20G<340 409.5>
VStem: 39 230 200 223<318 461>
LayerCount: 2
Fore
SplineSet
200 318 m 1,0,1
 200 426 200 426 197 501 c 1,2,3
 156 496 156 496 132.5 471.5 c 128,-1,4
 109 447 109 447 109 418.5 c 128,-1,5
 109 390 109 390 132.5 361 c 128,-1,6
 156 332 156 332 200 318 c 1,0,1
269 238 m 1,7,8
 274 66 274 66 274 42.5 c 128,-1,9
 274 19 274 19 262 4 c 0,10,11
 249.861111111 -10.6944444444 249.861111111 -10.6944444444 238.284722222 -10.6944444444 c 128,-1,12
 226.708333333 -10.6944444444 226.708333333 -10.6944444444 217.5 -6 c 0,13,14
 192 7 192 7 192 41 c 1,15,-1
 199 250 l 1,16,17
 123 266 123 266 80 314 c 1,18,19
 39 363 39 363 39 418 c 128,-1,20
 39 473 39 473 81.5 515.5 c 128,-1,21
 124 558 124 558 194 568 c 1,22,-1
 189 687 l 1,23,24
 191 722 191 722 221 735 c 0,25,26
 283 760 283 760 368 760 c 0,27,28
 492 760 492 760 574.5 688.5 c 128,-1,29
 657 617 657 617 657 521 c 128,-1,30
 657 425 657 425 608 360 c 0,31,32
 516 237 516 237 315 237 c 0,33,34
 279 237 279 237 269 238 c 1,7,8
267 501 m 1,35,36
 268 475 268 475 268 305 c 1,37,38
 274 304 274 304 296 304 c 0,39,40
 419 304 419 304 499 357 c 128,-1,41
 579 410 579 410 579 518 c 0,42,43
 579 591.5 579 591.5 516.5 641.25 c 128,-1,44
 454 691 454 691 367 691 c 0,45,46
 306 691 306 691 266 678 c 1,47,48
 266 642 266 642 268 568 c 1,49,50
 330 560 330 560 376.5 523 c 128,-1,51
 423 486 423 486 423 448 c 0,52,53
 423 432 423 432 413.5 423 c 128,-1,54
 403.816425121 413.826086957 403.816425121 413.826086957 391.125603865 413.826086957 c 128,-1,55
 378.434782609 413.826086957 378.434782609 413.826086957 361.217391304 433.913043478 c 0,56,57
 306.305882353 497.976470588 306.305882353 497.976470588 267 501 c 1,35,36
EndSplineSet
EndChar

StartChar: Q
Encoding: 81 81 52
Width: 829
Flags: HMW
HStem: -129 21G<654.5 671.5> -15 21G<372 443.5> 745 20G<425.5 512.5>
VStem: 57 182<382 436>
LayerCount: 2
Fore
SplineSet
239 404 m 0,0,1
 239 338 239 338 254 293 c 128,-1,2
 269 248 269 248 269 241 c 0,3,4
 269 220 269 220 248 220 c 0,5,6
 219 220 219 220 194 280.5 c 0,7,8
 169 341 169 341 169 405 c 0,9,10
 169 555 169 555 254 660 c 0,11,12
 339 765 339 765 469 765 c 128,-1,13
 599 765 599 765 685 655 c 128,-1,14
 771 545 771 545 771 384 c 0,15,16
 771 278 771 278 727 187.5 c 128,-1,17
 683 97 683 97 607 43 c 1,18,19
 683.5 -62 683.5 -62 688.75 -74 c 0,20,21
 694 -86 694 -86 694 -96 c 0,22,23
 694 -106 694 -106 684.5 -117.5 c 128,-1,24
 675 -129 675 -129 663 -129 c 0,25,26
 640 -129 640 -129 624 -105 c 0,27,28
 620 -100 620 -100 580 -38 c 2,29,-1
 549 11 l 1,30,31
 485 -15 485 -15 422 -15 c 0,32,33
 272 -15 272 -15 164 103 c 1,34,35
 57 222 57 222 57 394 c 0,36,37
 57 521 57 521 82 550 c 0,38,39
 94 565 94 565 111.5 565 c 128,-1,40
 129 565 129 565 138 553 c 1,41,42
 148.321428571 542.678571429 148.321428571 542.678571429 148.321428571 530.839285714 c 0,43,44
 148.321428571 519 148.321428571 519 140.160714286 494.5 c 0,45,46
 132 470 132 470 132 386 c 0,47,48
 132 250 132 250 217 153.5 c 0,49,50
 302 57 302 57 422 57 c 0,51,52
 482 57 482 57 507 72 c 1,53,54
 428 184 428 184 428 200.5 c 0,55,56
 428 217 428 217 437 229.5 c 128,-1,57
 446 242 446 242 458 242.5 c 0,58,59
 470 243 470 243 480 236 c 128,-1,60
 490 229 490 229 495.5 221 c 128,-1,61
 501 213 501 213 517.5 184.5 c 0,62,63
 534 156 534 156 566 103 c 1,64,65
 626 146 626 146 661 223.5 c 128,-1,66
 696 301 696 301 696 391 c 0,67,68
 696 519 696 519 631 605 c 128,-1,69
 566 691 566 691 468.5 691 c 0,70,71
 371 691 371 691 305 610 c 128,-1,72
 239 529 239 529 239 404 c 0,0,1
EndSplineSet
EndChar

StartChar: R
Encoding: 82 82 53
Width: 739
Flags: HMW
HStem: -10 21G<198.5 217.5> -6 21G<690 698 698 707.5> 745 20G<311 379.5>
VStem: 42 198<250 400.5>
LayerCount: 2
Fore
SplineSet
236 672 m 1,0,1
 236 615 236 615 240 475 c 1,2,3
 297 469 297 469 349.5 436 c 128,-1,4
 402 403 402 403 433 358 c 1,5,6
 482 388 482 388 511 435.5 c 128,-1,7
 540 483 540 483 540 533 c 0,8,9
 540 608 540 608 482 651.5 c 128,-1,10
 424 695 424 695 338 695 c 0,11,12
 291 695 291 695 236 672 c 1,0,1
239 410 m 1,13,-1
 239 316 l 1,14,15
 261.518518519 313.62962963 261.518518519 313.62962963 295.518518519 313.62962963 c 128,-1,16
 329.518518519 313.62962963 329.518518519 313.62962963 364 327 c 1,17,18
 321 391 321 391 239 410 c 1,13,-1
170 323 m 1,19,-1
 170 414 l 1,20,21
 111 406 111 406 111 374.5 c 128,-1,22
 111 343 111 343 170 323 c 1,19,-1
698 -6 m 2,23,24
 715 -6 715 -6 715 -11 c 2,25,-1
 715 -16 l 2,26,27
 715 -42 715 -42 697.696428571 -62.3214285714 c 128,-1,28
 680.392857143 -82.6428571429 680.392857143 -82.6428571429 661.946428571 -82.6428571429 c 128,-1,29
 643.5 -82.6428571429 643.5 -82.6428571429 621.75 -70.8214285714 c 128,-1,30
 600 -59 600 -59 564.5 -10 c 128,-1,31
 529 39 529 39 492 110 c 1,32,-1
 400 271 l 1,33,34
 338 249 338 249 273 249 c 0,35,36
 247 249 247 249 240 250 c 1,37,-1
 246 41 l 2,38,39
 246 18 246 18 235 4 c 128,-1,40
 224 -10 224 -10 205 -10 c 128,-1,41
 186 -10 186 -10 175 4 c 128,-1,42
 164 18 164 18 164 54.5 c 128,-1,43
 164 91 164 91 168 258 c 1,44,45
 106 272 106 272 74 303 c 128,-1,46
 42 334 42 334 42 374 c 128,-1,47
 42 414 42 414 77.5 444 c 128,-1,48
 113 474 113 474 168 479 c 1,49,-1
 160 678 l 1,50,51
 160 721 160 721 195 738 c 1,52,53
 255 765 255 765 339 765 c 0,54,55
 461 765 461 765 539.5 699 c 128,-1,56
 618 633 618 633 618 535 c 0,57,58
 618 466 618 466 577.5 402.5 c 128,-1,59
 537 339 537 339 469 300 c 1,60,61
 582 96 582 96 601 67 c 0,62,63
 647 -3 647 -3 690 -6 c 1,64,-1
 698 -6 l 2,23,24
EndSplineSet
EndChar

StartChar: S
Encoding: 83 83 54
Width: 581
Flags: HMW
HStem: -15 21G<248.5 322> 745 20G<262.5 317.5>
VStem: 46 246<148 247.5> 459 80<188.5 242.5>
LayerCount: 2
Fore
SplineSet
222 146 m 128,-1,1
 212 151 212 151 212 159 c 128,-1,2
 212 167 212 167 217 177.5 c 128,-1,3
 222 188 222 188 226 197.5 c 0,4,5
 236.460377358 222.343396226 236.460377358 222.343396226 217.730188679 234.671698113 c 0,6,7
 196.545772409 248.615384615 196.545772409 248.615384615 175.542116974 248.615384615 c 128,-1,8
 154.538461538 248.615384615 154.538461538 248.615384615 136.269230769 231.307692308 c 128,-1,9
 118 214 118 214 118 183 c 0,10,11
 118 138 118 138 162 96.5 c 128,-1,12
 206 55 206 55 282.25 55 c 128,-1,13
 358.5 55 358.5 55 408.75 100 c 128,-1,14
 459 145 459 145 459 210 c 0,15,16
 459 298 459 298 327 365 c 0,17,18
 320 369 320 369 296 380.5 c 128,-1,19
 272 392 272 392 263 397 c 128,-1,20
 254 402 254 402 233.5 413 c 128,-1,21
 213 424 213 424 201.5 432 c 128,-1,22
 190 440 190 440 174 451 c 0,23,24
 150.112676056 467.422535211 150.112676056 467.422535211 123 497 c 1,25,26
 85 543 85 543 85 605.5 c 128,-1,27
 85 668 85 668 146 716.5 c 128,-1,28
 207 765 207 765 289.5 765 c 128,-1,29
 372 765 372 765 430 734 c 128,-1,30
 488 703 488 703 488 664 c 0,31,32
 488 640 488 640 467.5 632.5 c 0,33,34
 460.666666667 630 460.666666667 630 450 630 c 128,-1,35
 439.333333333 630 439.333333333 630 428.666666667 637 c 128,-1,36
 418 644 418 644 404.5 656 c 128,-1,37
 391 668 391 668 380.5 675 c 0,38,39
 350.5 695 350.5 695 298 695 c 128,-1,40
 245.5 695 245.5 695 205.25 668 c 128,-1,41
 165 641 165 641 165 601.5 c 128,-1,42
 165 562 165 562 203 528 c 0,43,44
 237.266666667 498.202898551 237.266666667 498.202898551 310.133333333 458.601449275 c 128,-1,45
 383 419 383 419 407 404 c 0,46,47
 466 369 466 369 502.5 318.5 c 128,-1,48
 539 268 539 268 539 210 c 0,49,50
 539 118.5 539 118.5 467.5 51.75 c 128,-1,51
 396 -15 396 -15 285 -15 c 128,-1,52
 174 -15 174 -15 110 43 c 128,-1,53
 46 101 46 101 46 171 c 128,-1,54
 46 241 46 241 83 279.5 c 128,-1,55
 120 318 120 318 176 318 c 128,-1,56
 232 318 232 318 262 290 c 128,-1,57
 292 262 292 262 292 226 c 128,-1,58
 292 190 292 190 273 167 c 1,59,60
 262 152 262 152 247 146.5 c 128,-1,0
 232 141 232 141 222 146 c 128,-1,1
EndSplineSet
EndChar

StartChar: T
Encoding: 84 84 55
Width: 629
Flags: HMW
HStem: -10 21G<274.5 293.5> 784 20G<446.5 488>
LayerCount: 2
Fore
SplineSet
310.5 3.5 m 128,-1,1
 299 -10 299 -10 280.5 -10 c 128,-1,2
 262 -10 262 -10 251.5 3.5 c 128,-1,3
 241 17 241 17 240.333333333 28 c 128,-1,4
 239.666666667 39 239.666666667 39 239.666666667 50.1666666667 c 128,-1,5
 239.666666667 61.3333333333 239.666666667 61.3333333333 241.833333333 125.666666667 c 128,-1,6
 244 190 244 190 244 375 c 128,-1,7
 244 560 244 560 255 624 c 1,8,9
 202 628 202 628 138 647 c 0,10,11
 20 683 20 683 20 725 c 1,12,13
 19 748 19 748 40.5 759 c 0,14,15
 49.96 763.84 49.96 763.84 59.72 763.84 c 128,-1,16
 69.48 763.84 69.48 763.84 79 756 c 1,17,18
 94 748 94 748 105 740 c 0,19,20
 144 713 144 713 270 694 c 1,21,22
 296 747 296 747 351 775.5 c 128,-1,23
 406 804 406 804 468.5 804 c 128,-1,24
 531 804 531 804 565 776 c 1,25,26
 601 749 601 749 601 712.5 c 128,-1,27
 601 676 601 676 560 645 c 128,-1,28
 519 614 519 614 415 614 c 0,29,30
 358 614 358 614 326 617 c 1,31,32
 316 587 316 587 316 416 c 128,-1,33
 316 245 316 245 319 142 c 128,-1,34
 322 39 322 39 322 28 c 128,-1,0
 322 17 322 17 310.5 3.5 c 128,-1,1
461 734 m 0,35,36
 377 734 377 734 343 686 c 1,37,38
 369.363636364 681.454545455 369.363636364 681.454545455 400.409090909 681.454545455 c 128,-1,39
 431.454545455 681.454545455 431.454545455 681.454545455 478.727272727 690.227272727 c 128,-1,40
 526 699 526 699 526 713 c 0,41,42
 526 734 526 734 461 734 c 0,35,36
EndSplineSet
EndChar

StartChar: U
Encoding: 85 85 56
Width: 793
Flags: HMW
HStem: -15 21G<321.5 388.5> 745 20G<133.5 177.5>
VStem: 577 95<668.5 704.5 668.5 716>
LayerCount: 2
Fore
SplineSet
152 690 m 0,0,1
 129 690 129 690 113.5 672 c 128,-1,2
 98 654 98 654 98 630 c 128,-1,3
 98 606 98 606 107 589.5 c 128,-1,4
 116 573 116 573 125 564 c 128,-1,5
 134 555 134 555 134 550 c 0,6,7
 134 526 134 526 106 526 c 128,-1,8
 78 526 78 526 53 557 c 128,-1,9
 28 588 28 588 28 630 c 128,-1,10
 28 672 28 672 54 716 c 1,11,12
 86 765 86 765 152.25 765 c 128,-1,13
 218.5 765 218.5 765 253.25 719.5 c 128,-1,14
 288 674 288 674 288 618.5 c 128,-1,15
 288 563 288 563 262.5 427.5 c 128,-1,16
 237 292 237 292 237 256 c 0,17,18
 237 163 237 163 267 109 c 128,-1,19
 297 55 297 55 356.5 55 c 128,-1,20
 416 55 416 55 468.5 126 c 128,-1,21
 521 197 521 197 548 283.5 c 128,-1,22
 575 370 575 370 580 452 c 1,23,24
 577 522 577 522 577 694 c 0,25,26
 577 760 577 760 620 760 c 0,27,28
 672 760 672 760 672 677 c 0,29,30
 672 657 672 657 646 421 c 1,31,32
 647.5 313 647.5 313 667.75 202 c 128,-1,33
 688 91 688 91 707 71 c 0,34,35
 713 64 713 64 734 62.5 c 128,-1,36
 755 61 755 61 755 51 c 0,37,38
 755 23 755 23 736.5 4.5 c 0,39,40
 716.235294118 -15.7647058824 716.235294118 -15.7647058824 696.411764706 -15.7647058824 c 128,-1,41
 676.588235294 -15.7647058824 676.588235294 -15.7647058824 670 -10 c 1,42,43
 655 -2 655 -2 638 26 c 1,44,45
 622.965517241 54.1896551724 622.965517241 54.1896551724 613.982758621 103.594827586 c 128,-1,46
 605 153 605 153 604 158.5 c 128,-1,47
 603 164 603 164 599.5 191.5 c 128,-1,48
 596 219 596 219 594 227 c 1,49,50
 570 134 570 134 510.5 59.5 c 128,-1,51
 451 -15 451 -15 351.5 -15 c 128,-1,52
 252 -15 252 -15 202 62 c 1,53,54
 158 133 158 133 158 218.25 c 128,-1,55
 158 303.5 158 303.5 185.5 429.75 c 128,-1,56
 213 556 213 556 213 609 c 0,57,58
 213 690 213 690 152 690 c 0,0,1
EndSplineSet
EndChar

StartChar: V
Encoding: 86 86 57
Width: 737
Flags: HMW
HStem: -15 21G<325.5 407.5> 745 20G<117.5 167.5>
VStem: 24 131<572.5 667.5>
LayerCount: 2
Fore
SplineSet
210 358 m 1,0,-1
 213 528 l 1,1,2
 213 691 213 691 139 691 c 0,3,4
 118 691 118 691 105 678.5 c 128,-1,5
 92 666 92 666 93 652.5 c 128,-1,6
 94 639 94 639 102 630 c 1,7,8
 108 626 108 626 123 620 c 0,9,10
 155 607.2 155 607.2 155 584 c 0,11,12
 155 549 155 549 117 549 c 128,-1,13
 79 549 79 549 51.5 579.5 c 128,-1,14
 24 610 24 610 24 653 c 128,-1,15
 24 696 24 696 54 730.5 c 128,-1,16
 84 765 84 765 134 765 c 0,17,18
 230 765 230 765 262 698 c 1,19,20
 290 643 290 643 290 536 c 1,21,22
 289 478 289 478 286 362 c 1,23,24
 286 223 286 223 313 141.5 c 128,-1,25
 340 60 340 60 387 60 c 0,26,27
 420 60 420 60 446.5 117 c 128,-1,28
 473 174 473 174 512 308.5 c 128,-1,29
 551 443 551 443 579.5 545 c 0,30,31
 625.272727273 708.818181818 625.272727273 708.818181818 628 717 c 0,32,33
 642 759 642 759 672 759 c 0,34,35
 691 759 691 759 700.5 746 c 128,-1,36
 710 733 710 733 710 719 c 128,-1,37
 710 705 710 705 681.5 614.5 c 128,-1,38
 653 524 653 524 596.5 332.5 c 128,-1,39
 540 141 540 141 511 82 c 0,40,41
 463 -15 463 -15 381 -15 c 128,-1,42
 299 -15 299 -15 254.5 82.5 c 128,-1,43
 210 180 210 180 210 358 c 1,0,-1
EndSplineSet
EndChar

StartChar: W
Encoding: 87 87 58
Width: 1060
Flags: HMW
HStem: -15 21G<321.5 417.5> -10 21G<670 766> 745 20G<116.5 166.5 915 957.5>
VStem: 24 131<571.5 666.5> 506 94
LayerCount: 2
Fore
SplineSet
209 358 m 1,0,-1
 212 528 l 1,1,2
 212 691 212 691 138 691 c 0,3,4
 117 691 117 691 104.5 678.5 c 128,-1,5
 92 666 92 666 93 652 c 128,-1,6
 94 638 94 638 102 629 c 1,7,8
 108 625 108 625 123 619 c 0,9,10
 155 606.2 155 606.2 155 583 c 0,11,12
 155 548 155 548 117 548 c 128,-1,13
 79 548 79 548 51.5 578.5 c 128,-1,14
 24 609 24 609 24 652.25 c 128,-1,15
 24 695.5 24 695.5 54 730.25 c 128,-1,16
 84 765 84 765 133 765 c 0,17,18
 229 765 229 765 261 698 c 1,19,20
 289 643 289 643 289 536 c 1,21,-1
 285 362 l 1,22,23
 285 222 285 222 309.5 141 c 128,-1,24
 334 60 334 60 376 60 c 0,25,26
 425 60 425 60 466 143.5 c 128,-1,27
 507 227 507 227 507 323 c 2,28,-1
 505 546 l 2,29,30
 505 612 505 612 548 612 c 0,31,32
 600 612 600 612 600 529 c 0,33,34
 600 503 600 503 580 317 c 1,35,36
 581 225 581 225 622 144.5 c 128,-1,37
 663 64 663 64 711 64 c 0,38,39
 755 64 755 64 780 144 c 128,-1,40
 805 224 805 224 805 365 c 1,41,-1
 801 536 l 1,42,43
 801 641 801 641 826 698 c 1,44,45
 854 765 854 765 945 765 c 0,46,47
 982.5 765 982.5 765 1010.75 741 c 128,-1,48
 1039 717 1039 717 1039 693 c 128,-1,49
 1039 669 1039 669 1017 669 c 0,50,51
 1010 669 1010 669 989 680 c 128,-1,52
 968 691 968 691 952 691 c 0,53,54
 878 691 878 691 878 528 c 1,55,-1
 881 361 l 1,56,57
 881 182 881 182 837.5 86 c 128,-1,58
 794 -10 794 -10 708 -10 c 0,59,60
 653 -10 653 -10 611 39.5 c 128,-1,61
 569 89 569 89 544 176 c 1,62,63
 520 87 520 87 477.5 36 c 128,-1,64
 435 -15 435 -15 379 -15 c 0,65,66
 294 -15 294 -15 251.5 81 c 128,-1,67
 209 177 209 177 209 358 c 1,0,-1
EndSplineSet
EndChar

StartChar: X
Encoding: 88 88 59
Width: 752
Flags: HMW
HStem: -16 21G<589.5 642.5> -10 21G<126.5 147.5>
VStem: 568 151<66.5 172.5>
LayerCount: 2
Fore
SplineSet
365 321 m 1,0,1
 264.5 159 264.5 159 224 90 c 2,2,-1
 179 14 l 1,3,4
 162.5 -10 162.5 -10 140 -10 c 0,5,6
 100 -10 100 -10 100 25 c 0,7,8
 100 41.5 100 41.5 109 55 c 2,9,-1
 153 122 l 1,10,11
 228 231 228 231 330 391 c 1,12,13
 276 535 276 535 225.5 614 c 128,-1,14
 175 693 175 693 136 693 c 0,15,16
 108 693 108 693 99 667 c 0,17,18
 95.76 657.64 95.76 657.64 95.76 647.34 c 128,-1,19
 95.76 637.04 95.76 637.04 103.88 631.52 c 128,-1,20
 112 626 112 626 127 620 c 0,21,22
 159 607.2 159 607.2 159 584 c 0,23,24
 159 549 159 549 121.25 549 c 128,-1,25
 83.5 549 83.5 549 55 579 c 0,26,27
 28.15 605.85 28.15 605.85 28.15 651.73 c 0,28,29
 28.15 710.693636364 28.15 710.693636364 73.5 744.5 c 0,30,31
 99.7209302326 764.046511628 99.7209302326 764.046511628 135.48783126 764.046511628 c 0,32,33
 137.23255814 764.046511628 137.23255814 764.046511628 139 764 c 0,34,35
 207 764 207 764 260 693 c 1,36,37
 315 622 315 622 376 463 c 1,38,39
 411 519 411 519 471.5 623.5 c 128,-1,40
 532 728 532 728 542.5 743.5 c 0,41,42
 553.729528536 760.076923077 553.729528536 760.076923077 573.710918114 760.076923077 c 128,-1,43
 593.692307692 760.076923077 593.692307692 760.076923077 602.096153846 749.538461538 c 128,-1,44
 610.5 739 610.5 739 610.5 726 c 128,-1,45
 610.5 713 610.5 713 602.75 697.5 c 128,-1,46
 595 682 595 682 569 639 c 2,47,-1
 413 390 l 1,48,49
 532 55 532 55 611 55 c 0,50,51
 631 55 631 55 642 67.5 c 128,-1,52
 653 80 653 80 653 98.5 c 128,-1,53
 653 117 653 117 640 127 c 128,-1,54
 627 137 627 137 610 138 c 0,55,56
 568 141 568 141 568 159 c 128,-1,57
 568 177 568 177 585 186 c 128,-1,58
 602 195 602 195 623 195 c 0,59,60
 662 195 662 195 690.5 166 c 128,-1,61
 719 137 719 137 719 93.5 c 128,-1,62
 719 50 719 50 688.5 17 c 128,-1,63
 658 -16 658 -16 606 -16 c 128,-1,64
 554 -16 554 -16 504 40 c 1,65,66
 446.129186603 109.162679426 446.129186603 109.162679426 365 321 c 1,0,1
EndSplineSet
EndChar

StartChar: Y
Encoding: 89 89 60
Width: 583
Flags: HMW
HStem: -85 21G<306.5 346.5> 744 20G<472 508>
LayerCount: 2
Fore
SplineSet
21 713 m 0,0,1
 21 760 21 760 57 760 c 0,2,3
 67 760 67 760 77 750.5 c 128,-1,4
 87 741 87 741 91.5 727.5 c 128,-1,5
 96 714 96 714 104 682.5 c 128,-1,6
 112 651 112 651 124 611 c 0,7,8
 158.125 497.25 158.125 497.25 218.5 422 c 0,9,10
 251.466666667 380.911111111 251.466666667 380.911111111 281.237530864 380.911111111 c 0,11,12
 295.844444444 380.911111111 295.844444444 380.911111111 303 385 c 1,13,14
 347 664 347 664 418 734 c 0,15,16
 448 764 448 764 483.5 764 c 128,-1,17
 519 764 519 764 537.5 741.5 c 128,-1,18
 556 719 556 719 556 681 c 0,19,20
 556 598 556 598 498.5 503.5 c 128,-1,21
 441 409 441 409 373 342 c 1,22,23
 365.24137931 291.827586207 365.24137931 291.827586207 365.24137931 206.862068966 c 128,-1,24
 365.24137931 121.896551724 365.24137931 121.896551724 370.120689655 46.4482758621 c 128,-1,25
 375 -29 375 -29 375 -44 c 128,-1,26
 375 -59 375 -59 363.5 -72 c 128,-1,27
 352 -85 352 -85 334 -85 c 0,28,29
 296 -85 296 -85 290.5 8 c 0,30,31
 289.093023256 31.7906976744 289.093023256 31.7906976744 289.093023256 93.1279069767 c 128,-1,32
 289.093023256 154.465116279 289.093023256 154.465116279 301 310 c 1,33,34
 289 308 289 308 275 308 c 0,35,36
 224 308 224 308 182.5 346.5 c 128,-1,37
 141 385 141 385 102.5 467 c 128,-1,38
 64 549 64 549 42.5 616.5 c 128,-1,39
 21 684 21 684 21 713 c 0,0,1
477 692 m 0,40,41
 456 692 456 692 418.25 587.75 c 128,-1,42
 380.5 483.5 380.5 483.5 376 434 c 1,43,44
 414 478 414 478 451 553 c 128,-1,45
 488 628 488 628 488 671 c 0,46,47
 488 692 488 692 477 692 c 0,40,41
EndSplineSet
EndChar

StartChar: Z
Encoding: 90 90 61
Width: 623
Flags: HMW
HStem: -6 117 745 20G<80.5 92.5 477.5 495.5>
VStem: 356 233<127 197.5>
LayerCount: 2
Fore
SplineSet
93 111 m 1,0,1
 139 186 139 186 243 359.5 c 128,-1,2
 347 533 347 533 422 686 c 1,3,4
 352 669 352 669 297.5 669 c 128,-1,5
 243 669 243 669 204 671.5 c 128,-1,6
 165 674 165 674 134.5 680 c 128,-1,7
 104 686 104 686 79.5 699.5 c 128,-1,8
 55 713 55 713 57 732 c 1,9,10
 57 765 57 765 92 765 c 0,11,12
 96 765 96 765 155 752 c 128,-1,13
 214 739 214 739 276 739 c 128,-1,14
 338 739 338 739 404 752 c 128,-1,15
 470 765 470 765 480 765 c 0,16,17
 527 765 527 765 527 726 c 0,18,19
 527 705 527 705 496 648.5 c 128,-1,20
 465 592 465 592 411 500.5 c 128,-1,21
 357 409 357 409 318 344.5 c 0,22,23
 204.333333333 156.512820513 204.333333333 156.512820513 169 94 c 1,24,25
 294 55 294 55 366 55 c 128,-1,26
 438 55 438 55 478.5 81 c 128,-1,27
 519 107 519 107 519 152.5 c 128,-1,28
 519 198 519 198 484.5 212.5 c 0,29,30
 472.148148148 217.691358025 472.148148148 217.691358025 457.314814815 217.691358025 c 128,-1,31
 442.481481481 217.691358025 442.481481481 217.691358025 429 201 c 1,32,33
 406.5 178.5 406.5 178.5 421 135 c 0,34,35
 424 126 424 126 424 125 c 0,36,37
 424.539122011 106.669851633 424.539122011 106.669851633 400.908714309 110.729712523 c 128,-1,38
 377.278306607 114.789573413 377.278306607 114.789573413 363.063069117 145.795250939 c 0,39,40
 355.837918831 161.554444551 355.837918831 161.554444551 355.837918831 172.338751901 c 128,-1,41
 355.837918831 183.123059251 355.837918831 183.123059251 356 186 c 0,42,43
 356 220 356 220 387 251.5 c 128,-1,44
 418 283 418 283 466 283 c 128,-1,45
 514 283 514 283 551.5 247.5 c 128,-1,46
 589 212 589 212 589 145 c 128,-1,47
 589 78 589 78 529.5 31.5 c 128,-1,48
 470 -15 470 -15 378 -15 c 128,-1,49
 286 -15 286 -15 137 30 c 1,50,51
 109 -6 109 -6 75.5 -6 c 128,-1,52
 42 -6 42 -6 29 8 c 0,53,54
 12.8055555556 25.4401709402 12.8055555556 25.4401709402 12.8055555556 41.8728632479 c 128,-1,55
 12.8055555556 58.3055555556 12.8055555556 58.3055555556 18.4027777778 71.6527777778 c 128,-1,56
 24 85 24 85 44 97 c 128,-1,57
 64 109 64 109 93 111 c 1,0,1
EndSplineSet
EndChar

StartChar: bracketleft
Encoding: 91 91 62
Width: 348
Flags: HW
LayerCount: 2
Fore
SplineSet
150 -160 m 1,0,-1
 194 -160 l 1,1,-1
 281 -157 l 2,2,3
 283.564102564 -156.794871795 283.564102564 -156.794871795 285.975673899 -156.794871795 c 0,4,5
 307.076923077 -156.794871795 307.076923077 -156.794871795 314.413461538 -169.022435897 c 0,6,7
 321.75 -181.25 321.75 -181.25 321.75 -190 c 128,-1,8
 321.75 -198.75 321.75 -198.75 314.413461538 -210.977564103 c 0,9,10
 307.076923077 -223.205128205 307.076923077 -223.205128205 285.975673899 -223.205128205 c 0,11,12
 283.564102564 -223.205128205 283.564102564 -223.205128205 281 -223 c 2,13,-1
 194 -220 l 1,14,-1
 117 -224 l 2,15,16
 99 -224 99 -224 87.5 -215 c 128,-1,17
 76 -206 76 -206 76 -194 c 128,-1,18
 76 -182 76 -182 79 -34 c 128,-1,19
 82 114 82 114 82 265 c 128,-1,20
 82 416 82 416 79 564 c 128,-1,21
 76 712 76 712 76 724 c 128,-1,22
 76 736 76 736 87.5 745 c 128,-1,23
 99 754 99 754 117 754 c 2,24,-1
 194 750 l 1,25,-1
 281 753 l 2,26,27
 283.564102564 753.205128205 283.564102564 753.205128205 285.975673899 753.205128205 c 0,28,29
 307.076923077 753.205128205 307.076923077 753.205128205 314.413461538 740.977564103 c 0,30,31
 321.75 728.75 321.75 728.75 321.75 720 c 128,-1,32
 321.75 711.25 321.75 711.25 314.413461538 699.022435897 c 0,33,34
 307.076923077 686.794871795 307.076923077 686.794871795 285.975673899 686.794871795 c 0,35,36
 283.564102564 686.794871795 283.564102564 686.794871795 281 687 c 2,37,-1
 194 690 l 1,38,-1
 150 690 l 1,39,40
 144 348 144 348 144 265 c 128,-1,41
 144 182 144 182 150 -160 c 1,0,-1
EndSplineSet
EndChar

StartChar: backslash
Encoding: 92 92 63
Width: 363
Flags: HMW
HStem: -152 21G<260.5 283> 740 20G<81 103.5>
LayerCount: 2
Fore
SplineSet
307 -112 m 0,0,1
 307 -152 307 -152 271 -152 c 0,2,3
 238 -152 238 -152 231 -110 c 2,4,-1
 218 -41 l 1,5,6
 140.919441461 376.398496241 140.919441461 376.398496241 69 651 c 1,7,8
 57 704 57 704 57 718 c 0,9,10
 57 760 57 760 93 760 c 0,11,12
 124 760 124 760 133 718 c 1,13,-1
 146 649 l 1,14,15
 196 378 196 378 239 195 c 2,16,-1
 295 -44 l 2,17,18
 307 -97 307 -97 307 -112 c 0,0,1
EndSplineSet
EndChar

StartChar: bracketright
Encoding: 93 93 64
Width: 348
Flags: HW
LayerCount: 2
Fore
SplineSet
154 750 m 1,0,-1
 231 754 l 2,1,2
 249 754 249 754 260.5 745 c 128,-1,3
 272 736 272 736 272 724 c 128,-1,4
 272 712 272 712 269 563.5 c 0,5,6
 266 415 266 415 266 264.5 c 0,7,8
 266 114 266 114 269 -34.5 c 0,9,10
 272 -183 272 -183 272 -194.5 c 0,11,12
 272 -206 272 -206 260.5 -215 c 128,-1,13
 249 -224 249 -224 231 -224 c 2,14,-1
 154 -220 l 1,15,-1
 67 -223 l 2,16,17
 64.4358974359 -223.205128205 64.4358974359 -223.205128205 62.0243261012 -223.205128205 c 0,18,19
 40.9230769231 -223.205128205 40.9230769231 -223.205128205 33.5865384615 -210.977564103 c 0,20,21
 26.25 -198.75 26.25 -198.75 26.25 -190 c 128,-1,22
 26.25 -181.25 26.25 -181.25 33.5865384615 -169.022435897 c 0,23,24
 40.9230769231 -156.794871795 40.9230769231 -156.794871795 62.0243261012 -156.794871795 c 0,25,26
 64.4358974359 -156.794871795 64.4358974359 -156.794871795 67 -157 c 2,27,-1
 154 -160 l 1,28,-1
 198 -160 l 1,29,30
 204 182 204 182 204 265 c 128,-1,31
 204 348 204 348 198 690 c 1,32,-1
 154 690 l 1,33,-1
 67 687 l 2,34,35
 64.4358974359 686.794871795 64.4358974359 686.794871795 62.0243261012 686.794871795 c 0,36,37
 40.9230769231 686.794871795 40.9230769231 686.794871795 33.5865384615 699.022435897 c 0,38,39
 26.25 711.25 26.25 711.25 26.25 720 c 128,-1,40
 26.25 728.75 26.25 728.75 33.5865384615 740.977564103 c 0,41,42
 40.9230769231 753.205128205 40.9230769231 753.205128205 62.0243261012 753.205128205 c 0,43,44
 64.4358974359 753.205128205 64.4358974359 753.205128205 67 753 c 2,45,-1
 154 750 l 1,0,-1
EndSplineSet
EndChar

StartChar: asciicircum
Encoding: 94 94 65
Width: 521
Flags: HW
LayerCount: 2
Fore
SplineSet
481 395 m 1,0,1
 483 387 483 387 472.88 377.34 c 128,-1,2
 462.76 367.68 462.76 367.68 445.512727273 367.68 c 128,-1,3
 428.265454545 367.68 428.265454545 367.68 415 392 c 0,4,5
 415 394 415 394 377 465 c 1,6,7
 271.129770992 672 271.129770992 672 260 672 c 0,8,9
 253 672 253 672 179 533.5 c 128,-1,10
 105 395 105 395 105 392 c 1,11,12
 91.5 368 91.5 368 75 368 c 0,13,14
 42 368 42 368 42 397 c 0,15,16
 42 416 42 416 96 506 c 2,17,-1
 141 582 l 2,18,19
 156 607.5 156 607.5 174 642 c 2,20,-1
 225 737 l 2,21,22
 238 760 238 760 261.5 760 c 128,-1,23
 285 760 285 760 298 738 c 1,24,25
 328 676 328 676 399.5 553 c 128,-1,26
 471 430 471 430 476 417 c 128,-1,27
 481 404 481 404 481 395 c 1,0,1
EndSplineSet
EndChar

StartChar: underscore
Encoding: 95 95 66
Width: 576
Flags: HW
LayerCount: 2
Fore
SplineSet
86.0243261012 -156.794871795 m 2,0,-1
 288 -160 l 1,1,-1
 485 -157 l 2,2,3
 487.564102564 -156.794871795 487.564102564 -156.794871795 489.975673899 -156.794871795 c 0,4,5
 511.076923077 -156.794871795 511.076923077 -156.794871795 518.413461538 -169.022435897 c 128,-1,6
 525.75 -181.25 525.75 -181.25 525.75 -190 c 128,-1,7
 525.75 -198.75 525.75 -198.75 518.413461538 -210.977564103 c 128,-1,8
 511.076923077 -223.205128205 511.076923077 -223.205128205 489.975673899 -223.205128205 c 0,9,10
 487.564102564 -223.205128205 487.564102564 -223.205128205 485 -223 c 2,11,-1
 288 -220 l 1,12,-1
 91 -223 l 2,13,14
 88.4358974359 -223.205128205 88.4358974359 -223.205128205 86.0243261012 -223.205128205 c 0,15,16
 64.9230769231 -223.205128205 64.9230769231 -223.205128205 57.5865384615 -210.977564103 c 128,-1,17
 50.25 -198.75 50.25 -198.75 50.25 -190 c 128,-1,18
 50.25 -181.25 50.25 -181.25 57.5865384615 -169.022435897 c 128,-1,19
 64.9230769231 -156.794871795 64.9230769231 -156.794871795 86.0243261012 -156.794871795 c 2,0,-1
EndSplineSet
EndChar

StartChar: grave
Encoding: 96 96 67
Width: 285
Flags: HMW
HStem: 593 21G<179 197>
LayerCount: 2
Fore
SplineSet
215 614 m 0,0,1
 215 593 215 593 188 593 c 128,-1,2
 161 593 161 593 115 636 c 1,3,4
 70 680 70 680 70 722 c 0,5,6
 69.4482758621 725.310344828 69.4482758621 725.310344828 69.4482758621 728.363852556 c 0,7,8
 69.4482758621 747.448275862 69.4482758621 747.448275862 91 756.5 c 0,9,10
 99.3333333333 760 99.3333333333 760 110.833333333 760 c 0,11,12
 133.857142857 760 133.857142857 760 157 706 c 0,13,14
 171 675 171 675 193 650.5 c 128,-1,15
 215 626 215 626 215 614 c 0,0,1
EndSplineSet
EndChar

StartChar: a
Encoding: 97 97 68
Width: 571
Flags: HMW
HStem: -10 21G<212 252.5 456.5 495.5> 490 20G<240 298 428.5 456.5>
VStem: 406 81 415 119<33 122>
LayerCount: 2
Fore
SplineSet
467 242 m 1,0,1
 467 169 467 169 477.5 120.5 c 128,-1,2
 488 72 488 72 504 66 c 0,3,4
 510 63 510 63 518.5 62 c 128,-1,5
 527 61 527 61 530.5 59 c 128,-1,6
 534 57 534 57 534 51 c 0,7,8
 534 23 534 23 519 6.5 c 128,-1,9
 504 -10 504 -10 475.5 -10 c 0,10,11
 447 -10 447 -10 431 26.5 c 128,-1,12
 415 63 415 63 415 122 c 1,13,14
 388 64 388 64 340 27 c 0,15,16
 292 -10 292 -10 231.5 -10 c 0,17,18
 171 -10 171 -10 128 30 c 0,19,20
 48 104 48 104 48 239 c 0,21,22
 48 348 48 348 111 429 c 128,-1,23
 174 510 174 510 273 510 c 0,24,25
 348 510 348 510 403 459 c 1,26,27
 403 510 403 510 441 510 c 0,28,29
 487 510 487 510 487 441.5 c 0,30,31
 487 373 487 373 467 242 c 1,0,1
409 233 m 1,32,-1
 404 387 l 1,33,34
 345 445 345 445 279 445 c 0,35,36
 213 445 213 445 166 386 c 128,-1,37
 119 327 119 327 119 243.5 c 0,38,39
 119 160 119 160 150 107.5 c 128,-1,40
 181 55 181 55 236 55 c 128,-1,41
 291 55 291 55 337.5 104 c 128,-1,42
 384 153 384 153 409 233 c 1,32,-1
EndSplineSet
EndChar

StartChar: b
Encoding: 98 98 69
Width: 552
Flags: HMW
HStem: -10 21G<96.5 124.5 255 313>
LayerCount: 2
Fore
SplineSet
505 261 m 0,0,1
 505 152 505 152 442 71 c 128,-1,2
 379 -10 379 -10 280 -10 c 0,3,4
 206 -10 206 -10 150 41 c 1,5,6
 150 -10 150 -10 112 -10 c 0,7,8
 66 -10 66 -10 66 58.5 c 0,9,10
 66 127 66 127 86 258 c 1,11,12
 86 326 86 326 77 514.5 c 0,13,14
 68 703 68 703 68 718 c 128,-1,15
 68 733 68 733 78.5070422535 746.950704225 c 0,16,17
 89.014084507 760.901408451 89.014084507 760.901408451 100.753521127 760.901408451 c 0,18,19
 112.492957746 760.901408451 112.492957746 760.901408451 122 756.5 c 0,20,21
 146.3 745.25 146.3 745.25 146.3 716.585 c 0,22,23
 146.3 713.4 146.3 713.4 146 710 c 2,24,-1
 146 394 l 1,25,26
 173 446 173 446 219 478 c 0,27,28
 265 510 265 510 323 510 c 0,29,30
 381 510 381 510 424 470 c 0,31,32
 505 396 505 396 505 261 c 0,0,1
144 267 m 1,33,-1
 149 113 l 1,34,35
 208 55 208 55 274 55 c 128,-1,36
 340 55 340 55 387 114 c 128,-1,37
 434 173 434 173 434 256.5 c 0,38,39
 434 340 434 340 403 392.5 c 128,-1,40
 372 445 372 445 317 445 c 128,-1,41
 262 445 262 445 215.5 396 c 128,-1,42
 169 347 169 347 144 267 c 1,33,-1
EndSplineSet
EndChar

StartChar: c
Encoding: 99 99 70
Width: 509
Flags: HMW
HStem: -15 21G<256 312.5> 495 20G<263.5 323>
LayerCount: 2
Fore
SplineSet
446 103 m 0,0,1
 471 103 471 103 471 76.5 c 0,2,3
 471 50 471 50 413 17 c 1,4,5
 354 -15 354 -15 291 -15 c 0,6,7
 187 -15 187 -15 116 62 c 0,8,9
 46 139 46 139 46 250 c 128,-1,10
 46 361 46 361 116.25 438 c 0,11,12
 186.5 515 186.5 515 302 515 c 0,13,14
 364 515 364 515 413 486.5 c 0,15,16
 462 458 462 458 462 430 c 0,17,18
 462 402 462 402 442 394 c 0,19,20
 436.285714286 391.714285714 436.285714286 391.714285714 425.857142857 391.714285714 c 0,21,22
 415.428571429 391.714285714 415.428571429 391.714285714 399 406 c 0,23,24
 346 450 346 450 293 450 c 0,25,26
 224 450 224 450 172 392 c 1,27,28
 121 333.5 121 333.5 121 250.25 c 0,29,30
 121 167 121 167 173.5 108.5 c 0,31,32
 226 50 226 50 302 50 c 0,33,34
 362 50 362 50 417 90 c 0,35,36
 436 103 436 103 446 103 c 0,0,1
EndSplineSet
EndChar

StartChar: d
Encoding: 100 100 71
Width: 588
Flags: HMW
HStem: -10 21G<224.5 283.5 480.5 519.5>
VStem: 424 87
LayerCount: 2
Fore
SplineSet
424 228 m 1,0,-1
 424 387 l 1,1,2
 365 445 365 445 282 445 c 0,3,4
 219 445 219 445 170 386.5 c 128,-1,5
 121 328 121 328 121 248.5 c 128,-1,6
 121 169 121 169 156 111 c 1,7,8
 191 55 191 55 251 55 c 0,9,10
 356 55 356 55 424 228 c 1,0,-1
466.5 760 m 0,11,12
 515.166666667 760 515.166666667 760 515.166666667 678.944444444 c 0,13,14
 515.166666667 647.833333333 515.166666667 647.833333333 511 607 c 2,15,-1
 499 476 l 2,16,17
 488 354 488 354 486 329 c 1,18,19
 486 198 486 198 495.5 133.5 c 128,-1,20
 505 69 505 69 530 64 c 1,21,22
 556 64 556 64 556 49 c 0,23,24
 556 27 556 27 541.5 8.5 c 128,-1,25
 527 -10 527 -10 500 -10 c 0,26,27
 444 -10 444 -10 431 124 c 1,28,29
 357 -10 357 -10 246 -10 c 0,30,31
 180 -10 180 -10 134 32 c 0,32,33
 47 109 47 109 47 239 c 0,34,35
 47 348 47 348 113 429 c 128,-1,36
 179 510 179 510 282 510 c 0,37,38
 357 510 357 510 424 461 c 1,39,40
 426 647 426 647 426 688 c 128,-1,41
 426 729 426 729 435.5 744.5 c 128,-1,42
 445 760 445 760 466.5 760 c 0,11,12
EndSplineSet
EndChar

StartChar: e
Encoding: 101 101 72
Width: 539
Flags: HMW
HStem: -15 21G<273.5 330.5> 495 20G<281.5 335>
LayerCount: 2
Fore
SplineSet
317 450 m 0,0,1
 251 450 251 450 206.5 400.5 c 0,2,3
 162 351 162 351 148 285 c 1,4,5
 202 269 202 269 269.5 269 c 0,6,7
 337 269 337 269 378 292 c 128,-1,8
 419 315 419 315 419 355 c 0,9,10
 419 395 419 395 391.5 422.5 c 128,-1,11
 364 450 364 450 317 450 c 0,0,1
274 206 m 0,12,13
 222 206 222 206 147 221 c 1,14,15
 153 150 153 150 199.5 100 c 0,16,17
 246 50 246 50 308 50 c 0,18,19
 370 50 370 50 410 80.5 c 0,20,21
 450 111 450 111 462.5 111 c 0,22,23
 475 111 475 111 482.5 103.5 c 128,-1,24
 490 96 490 96 490 85 c 0,25,26
 490 57 490 57 432.5 21 c 0,27,28
 375 -15 375 -15 308 -15 c 0,29,30
 204 -15 204 -15 142.5 58.5 c 0,31,32
 81 132 81 132 77 234 c 1,33,34
 24 251 24 251 24 286 c 0,35,36
 24 309 24 309 41 315.5 c 0,37,38
 46.6666666667 317.666666667 46.6666666667 317.666666667 56.5 317.666666667 c 0,39,40
 66.3333333333 317.666666667 66.3333333333 317.666666667 83 309 c 1,41,42
 106 400 106 400 166.5 457.5 c 0,43,44
 227 515 227 515 308.5 515 c 0,45,46
 390 515 390 515 440 470 c 0,47,48
 490 425 490 425 490 352.5 c 0,49,50
 490 280 490 280 428 243 c 0,51,52
 366 206 366 206 274 206 c 0,12,13
EndSplineSet
EndChar

StartChar: f
Encoding: 102 102 73
Width: 327
Flags: HMW
HStem: -123 21G<53.5 79> 669 91<197 321.5>
VStem: 20 156 113 197<201.5 480.5> 113 227
LayerCount: 2
Fore
SplineSet
58 502 m 2,0,-1
 108 500 l 1,1,-1
 108 585 l 2,2,3
 108 673 108 673 142.5 716.5 c 128,-1,4
 177 760 177 760 226 760 c 0,5,6
 275 760 275 760 307.5 742 c 128,-1,7
 340 724 340 724 340 702 c 0,8,9
 340 669 340 669 312 669 c 0,10,11
 305 669 305 669 278.5 681 c 128,-1,12
 252 693 252 693 237 693 c 0,13,14
 175 693 175 693 175 576 c 2,15,-1
 175 500 l 1,16,-1
 272 502 l 2,17,18
 288 502 288 502 299 493.5 c 128,-1,19
 310 485 310 485 310 470 c 0,20,21
 310 440 310 440 272 440 c 2,22,-1
 175 442 l 1,23,-1
 178 83 l 2,24,25
 178 -16 178 -16 141.5 -69.5 c 0,26,27
 105 -123 105 -123 66.5 -123 c 0,28,29
 28 -123 28 -123 28 -104 c 0,30,31
 28 -96 28 -96 35.5 -88.5 c 128,-1,32
 43 -81 43 -81 56 -69 c 128,-1,33
 69 -57 69 -57 78 -44 c 0,34,35
 107 -3 107 -3 110 73 c 0,36,37
 113 149 113 149 113 251 c 0,38,39
 113 353 113 353 109 442 c 1,40,-1
 58 440 l 1,41,42
 20 440 20 440 20 470 c 0,43,44
 20 485 20 485 31 493.5 c 128,-1,45
 42 502 42 502 58 502 c 2,0,-1
EndSplineSet
EndChar

StartChar: g
Encoding: 103 103 74
Width: 558
Flags: HMW
HStem: -230 21G<227.5 285> -10 21G<206.5 258.5> 490 20G<248 304 432 459.5>
LayerCount: 2
Fore
SplineSet
408 234 m 1,0,-1
 408 387 l 1,1,2
 353 445 353 445 286.5 445 c 0,3,4
 220 445 220 445 170.5 386 c 0,5,6
 121 327 121 327 121 244.5 c 0,7,8
 121 162 121 162 152.5 108.5 c 0,9,10
 184 55 184 55 238 55 c 0,11,12
 292 55 292 55 337.5 105.5 c 0,13,14
 383 156 383 156 408 234 c 1,0,-1
406 463 m 1,15,16
 408 510 408 510 444 510 c 0,17,18
 490 510 490 510 490 441.5 c 0,19,20
 490 373 490 373 470 242 c 1,21,22
 482 120 482 120 482 60 c 0,23,24
 482 -70 482 -70 420 -150 c 128,-1,25
 358 -230 358 -230 248 -230 c 0,26,27
 188 -230 188 -230 132 -204.5 c 0,28,29
 76 -179 76 -179 76 -153.5 c 0,30,31
 76 -128 76 -128 99 -128 c 0,32,33
 108 -128 108 -128 150 -146.5 c 0,34,35
 192 -165 192 -165 248 -165 c 0,36,37
 327.5 -165 327.5 -165 373.75 -105.5 c 0,38,39
 420 -46 420 -46 420 50 c 0,40,41
 420 85 420 85 415 122 c 1,42,43
 392.5 68 392.5 68 343 29 c 128,-1,44
 293.5 -10 293.5 -10 241 -10 c 0,45,46
 145 -10 145 -10 92 73 c 1,47,48
 47 148 47 148 47 248 c 0,49,50
 47 348 47 348 114 429 c 0,51,52
 181 510 181 510 281 510 c 0,53,54
 350 510 350 510 406 463 c 1,15,16
EndSplineSet
EndChar

StartChar: h
Encoding: 104 104 75
Width: 577
Flags: HMW
HStem: -10 21G<96.5 124.5 460.5 500.5>
VStem: 423 118
LayerCount: 2
Fore
SplineSet
494 315 m 1,0,-1
 489 158 l 1,1,-1
 489 115 l 1,2,3
 491 74 491 74 509 66 c 1,4,5
 516 64 516 64 525 62.5 c 128,-1,6
 534 61 534 61 537.5 59 c 128,-1,7
 541 57 541 57 541 51 c 0,8,9
 541 25 541 25 524.5 7.5 c 128,-1,10
 508 -10 508 -10 486 -10 c 0,11,12
 449 -10 449 -10 434 19 c 128,-1,13
 419 48 419 48 419 108 c 1,14,-1
 423 292 l 1,15,16
 423 361 423 361 393.5 402.5 c 128,-1,17
 364 444 364 444 313 444 c 128,-1,18
 262 444 262 444 214.5 387.5 c 0,19,20
 167 331 167 331 147 258 c 1,21,-1
 150 41 l 2,22,23
 150 -10 150 -10 112 -10 c 0,24,25
 66 -10 66 -10 66 58.5 c 0,26,27
 66 127 66 127 86 258 c 1,28,29
 86 326 86 326 77 514.5 c 0,30,31
 68 703 68 703 68 718 c 128,-1,32
 68 733 68 733 78.5070422535 746.950704225 c 0,33,34
 89.014084507 760.901408451 89.014084507 760.901408451 100.753521127 760.901408451 c 0,35,36
 112.492957746 760.901408451 112.492957746 760.901408451 122 756.5 c 0,37,38
 146.3 745.25 146.3 745.25 146.3 716.585 c 0,39,40
 146.3 713.4 146.3 713.4 146 710 c 2,41,-1
 146 383 l 1,42,43
 219 510 219 510 326 510 c 0,44,45
 407 510 407 510 450.5 452.5 c 0,46,47
 494 395 494 395 494 315 c 1,0,-1
EndSplineSet
EndChar

StartChar: i
Encoding: 105 105 76
Width: 224
Flags: HMW
HStem: -10 21G<99.5 124.5> 616 109<103 123>
VStem: 67 91<663.5 682.5>
LayerCount: 2
Fore
SplineSet
117 725 m 0,0,1
 158 725 158 725 158 677 c 0,2,3
 158 655 158 655 143.5 635.5 c 128,-1,4
 129 616 129 616 109 616 c 0,5,6
 67 616 67 616 67 667 c 0,7,8
 67 691 67 691 81.5 708 c 128,-1,9
 96 725 96 725 117 725 c 0,0,1
150 460 m 1,10,-1
 145 250 l 1,11,-1
 150 40 l 1,12,13
 150 -10 150 -10 112 -10 c 128,-1,14
 74 -10 74 -10 74 40 c 1,15,-1
 79 250 l 1,16,-1
 74 460 l 1,17,18
 74 510 74 510 112 510 c 128,-1,19
 150 510 150 510 150 460 c 1,10,-1
EndSplineSet
EndChar

StartChar: j
Encoding: 106 106 77
Width: 223
Flags: HMW
HStem: -189 21G<11 32.5> 616 109<103 123>
LayerCount: 2
Fore
SplineSet
117 725 m 0,0,1
 158 725 158 725 158 677 c 0,2,3
 158 655 158 655 143.5 635.5 c 128,-1,4
 129 616 129 616 109 616 c 0,5,6
 67 616 67 616 67 667 c 0,7,8
 67 691 67 691 81.5 708 c 128,-1,9
 96 725 96 725 117 725 c 0,0,1
150 460 m 1,10,-1
 145 230 l 1,11,-1
 144 10 l 2,12,13
 144 -76 144 -76 100.5 -132.5 c 0,14,15
 57 -189 57 -189 20 -189 c 0,16,17
 -7 -189 -7 -189 -7 -170 c 0,18,19
 -7 -156 -7 -156 36 -114 c 0,20,21
 54 -97 54 -97 67 -61 c 128,-1,22
 80 -25 80 -25 80 20 c 2,23,-1
 79 230 l 1,24,-1
 74 460 l 1,25,26
 74 510 74 510 112 510 c 128,-1,27
 150 510 150 510 150 460 c 1,10,-1
EndSplineSet
EndChar

StartChar: k
Encoding: 107 107 78
Width: 510
Flags: HMW
HStem: -10 21G<96.5 124.5 425 439>
LayerCount: 2
Fore
SplineSet
147 258 m 1,0,-1
 150 41 l 2,1,2
 150 -10 150 -10 112 -10 c 0,3,4
 66 -10 66 -10 66 58.5 c 128,-1,5
 66 127 66 127 86 258 c 1,6,7
 86 326 86 326 77 514.5 c 128,-1,8
 68 703 68 703 68 718 c 128,-1,9
 68 733 68 733 78.5070422535 746.950704225 c 128,-1,10
 89.014084507 760.901408451 89.014084507 760.901408451 100.753521127 760.901408451 c 128,-1,11
 112.492957746 760.901408451 112.492957746 760.901408451 122 756.5 c 0,12,13
 146.3 745.25 146.3 745.25 146.3 716.585 c 0,14,15
 146.3 713.4 146.3 713.4 146 710 c 2,16,-1
 146 383 l 1,17,18
 219 510 219 510 326 510 c 0,19,20
 383 510 383 510 418.5 476.5 c 128,-1,21
 454 443 454 443 454 393 c 0,22,23
 454 311 454 311 369 253 c 1,24,-1
 320 221 l 1,25,-1
 394 107 l 2,26,27
 407 86 407 86 423.5 75 c 128,-1,28
 440 64 440 64 451.5 62.5 c 128,-1,29
 463 61 463 61 470 59 c 128,-1,30
 477 57 477 57 476 51 c 1,31,32
 476 27 476 27 461 8.5 c 128,-1,33
 446 -10 446 -10 425 -10 c 0,34,35
 420.833333333 -10.5 420.833333333 -10.5 409.083333333 -10.5 c 0,36,37
 384.432590328 -10.5 384.432590328 -10.5 347.420314153 51.4401795159 c 0,38,39
 346 54 346 54 344.5 56 c 128,-1,40
 343 58 343 58 308 114.5 c 128,-1,41
 273 171 273 171 253 199 c 1,42,43
 227 199 227 199 210 213 c 128,-1,44
 193 227 193 227 193 253 c 128,-1,45
 193 279 193 279 222.5 291 c 0,46,47
 230.195652174 294.130434783 230.195652174 294.130434783 238.265595463 294.130434783 c 0,48,49
 261.130434783 294.130434783 261.130434783 294.130434783 287 269 c 1,50,51
 325 286 325 286 354.5 320.75 c 128,-1,52
 384 355.5 384 355.5 384 384 c 0,53,54
 384 444 384 444 322 444 c 0,55,56
 266 444 266 444 216.25 387.75 c 128,-1,57
 166.5 331.5 166.5 331.5 147 258 c 1,0,-1
EndSplineSet
EndChar

StartChar: l
Encoding: 108 108 79
Width: 224
Flags: HMW
HStem: -10 21G<99.5 124.5> 740 20G<99.5 124.5>
LayerCount: 2
Fore
SplineSet
150 710 m 2,0,-1
 145 375 l 1,1,-1
 150 40 l 2,2,3
 150 -10 150 -10 112 -10 c 128,-1,4
 74 -10 74 -10 74 40 c 2,5,-1
 79 375 l 1,6,-1
 74 710 l 2,7,8
 74 760 74 760 112 760 c 128,-1,9
 150 760 150 760 150 710 c 2,0,-1
EndSplineSet
EndChar

StartChar: m
Encoding: 109 109 80
Width: 877
Flags: HMW
HStem: -10 21G<98.5 126.5 416.5 444.5 760.5 800.5> 490 20G<98 122 284 357.5 602 661>
VStem: 68 82 386 82 723 118
LayerCount: 2
Fore
SplineSet
794 315 m 1,0,-1
 789 158 l 1,1,-1
 789 115 l 1,2,3
 791 74 791 74 809 66 c 1,4,5
 816 64 816 64 825 62.5 c 128,-1,6
 834 61 834 61 837.5 59 c 128,-1,7
 841 57 841 57 841 51 c 0,8,9
 841 25 841 25 824.5 7.5 c 128,-1,10
 808 -10 808 -10 786 -10 c 0,11,12
 749 -10 749 -10 734 19 c 128,-1,13
 719 48 719 48 719 108 c 1,14,-1
 723 292 l 1,15,16
 723 361 723 361 696 402.5 c 128,-1,17
 669 444 669 444 622 444 c 128,-1,18
 575 444 575 444 530 387 c 128,-1,19
 485 330 485 330 467 258 c 1,20,-1
 470 41 l 2,21,22
 470 -10 470 -10 432 -10 c 0,23,24
 386 -10 386 -10 386 58.5 c 0,25,26
 386 127 386 127 406 258 c 1,27,28
 406 444 406 444 304 444 c 0,29,30
 257 444 257 444 212 387 c 128,-1,31
 167 330 167 330 149 258 c 1,32,-1
 152 41 l 2,33,34
 152 -10 152 -10 114 -10 c 0,35,36
 68 -10 68 -10 68 58.5 c 0,37,38
 68 127 68 127 88 258 c 1,39,40
 88 300 88 300 79.5 376 c 0,41,42
 71 452 71 452 71 468 c 0,43,44
 71 484 71 484 82 497 c 128,-1,45
 93 510 93 510 110 510 c 128,-1,46
 127 510 127 510 138 497 c 128,-1,47
 149 484 149 484 149 469 c 0,48,49
 149 454 149 454 148.5 424 c 128,-1,50
 148 394 148 394 148 383 c 1,51,52
 215 510 215 510 318 510 c 0,53,54
 376 510 376 510 413.5 476 c 128,-1,55
 451 442 451 442 466 383 c 1,56,57
 533 510 533 510 636 510 c 0,58,59
 712 510 712 510 752 453 c 1,60,61
 794 396 794 396 794 315 c 1,0,-1
EndSplineSet
EndChar

StartChar: n
Encoding: 110 110 81
Width: 579
Flags: HMW
HStem: -10 21G<98.5 126.5 462.5 502.5> 490 20G<98 122 292.5 354.5>
VStem: 68 82 425 118
LayerCount: 2
Fore
SplineSet
496 315 m 1,0,-1
 491 158 l 1,1,-1
 491 115 l 1,2,3
 493 74 493 74 511 66 c 1,4,5
 518 64 518 64 527 62.5 c 128,-1,6
 536 61 536 61 539.5 59 c 128,-1,7
 543 57 543 57 543 51 c 0,8,9
 543 25 543 25 526.5 7.5 c 128,-1,10
 510 -10 510 -10 488 -10 c 0,11,12
 451 -10 451 -10 436 19 c 128,-1,13
 421 48 421 48 421 108 c 1,14,-1
 425 292 l 1,15,16
 425 361 425 361 395.5 402.5 c 128,-1,17
 366 444 366 444 315 444 c 128,-1,18
 264 444 264 444 216.5 387.5 c 0,19,20
 169 331 169 331 149 258 c 1,21,-1
 152 41 l 2,22,23
 152 -10 152 -10 114 -10 c 0,24,25
 68 -10 68 -10 68 58.5 c 0,26,27
 68 127 68 127 88 258 c 1,28,29
 88 300 88 300 79.5 376 c 0,30,31
 71 452 71 452 71 468 c 0,32,33
 71 484 71 484 82 497 c 128,-1,34
 93 510 93 510 110 510 c 128,-1,35
 127 510 127 510 138 497 c 128,-1,36
 149 484 149 484 149 469 c 0,37,38
 149 454 149 454 148.5 424 c 128,-1,39
 148 394 148 394 148 383 c 1,40,41
 221 510 221 510 328 510 c 0,42,43
 408 510 408 510 452 452.5 c 0,44,45
 496 395 496 395 496 315 c 1,0,-1
EndSplineSet
EndChar

StartChar: o
Encoding: 111 111 82
Width: 562
Flags: HMW
HStem: -15 21G<246 314> 495 20G<247 315.5>
LayerCount: 2
Fore
SplineSet
163 108 m 128,-1,1
 209 50 209 50 278.5 50 c 128,-1,2
 348 50 348 50 396.5 108.5 c 128,-1,3
 445 167 445 167 445 250 c 128,-1,4
 445 333 445 333 398.5 391.5 c 128,-1,5
 352 450 352 450 283.5 450 c 128,-1,6
 215 450 215 450 165 391 c 1,7,8
 117 332 117 332 117 249 c 128,-1,0
 117 166 117 166 163 108 c 128,-1,1
46 249 m 128,-1,10
 46 360 46 360 113 437.5 c 128,-1,11
 180 515 180 515 282 515 c 128,-1,12
 384 515 384 515 450 438.5 c 128,-1,13
 516 362 516 362 516 250.5 c 128,-1,14
 516 139 516 139 448.5 62 c 128,-1,15
 381 -15 381 -15 279.5 -15 c 128,-1,16
 178 -15 178 -15 112 61.5 c 128,-1,9
 46 138 46 138 46 249 c 128,-1,10
EndSplineSet
EndChar

StartChar: p
Encoding: 112 112 83
Width: 570
Flags: HMW
HStem: -10 21G<263 322.5> 490 20G<94 118 280.5 345.5>
LayerCount: 2
Fore
SplineSet
319 445 m 0,0,1
 214 445 214 445 146 272 c 1,2,-1
 146 113 l 1,3,4
 205 55 205 55 288 55 c 0,5,6
 352 55 352 55 400.5 113.5 c 128,-1,7
 449 172 449 172 449 252 c 128,-1,8
 449 332 449 332 414.5 388.5 c 128,-1,9
 380 445 380 445 319 445 c 0,0,1
146 39 m 1,10,11
 144 -37 144 -37 144 -87.5 c 128,-1,12
 144 -138 144 -138 143 -161.5 c 0,13,14
 141.227272727 -203.159090909 141.227272727 -203.159090909 134 -214 c 0,15,16
 125 -230 125 -230 103.5 -230 c 128,-1,17
 82 -230 82 -230 69 -213 c 128,-1,18
 56 -196 56 -196 56 -157 c 128,-1,19
 56 -118 56 -118 59 -83 c 2,20,-1
 71 36 l 2,21,22
 82 151 82 151 84 171 c 1,23,-1
 84 190 l 1,24,-1
 85 228 l 1,25,-1
 85 244 l 2,26,27
 85 286 85 286 76 367 c 128,-1,28
 67 448 67 448 67 466 c 128,-1,29
 67 484 67 484 78 497 c 128,-1,30
 89 510 89 510 106 510 c 128,-1,31
 123 510 123 510 134 497 c 128,-1,32
 145 484 145 484 145 469 c 128,-1,33
 145 454 145 454 144.5 423 c 128,-1,34
 144 392 144 392 144 381 c 1,35,36
 179 446 179 446 220.5 478 c 128,-1,37
 262 510 262 510 326 510 c 128,-1,38
 390 510 390 510 436 468 c 0,39,40
 523 391 523 391 523 261 c 0,41,42
 523 152 523 152 457 71 c 128,-1,43
 391 -10 391 -10 288 -10 c 0,44,45
 213 -10 213 -10 146 39 c 1,10,11
EndSplineSet
EndChar

StartChar: q
Encoding: 113 113 84
Width: 553
Flags: HMW
HStem: -10 21G<210.5 249.5> 490 20G<240 298 428.5 456.5>
LayerCount: 2
Fore
SplineSet
48 239 m 0,0,1
 48 348 48 348 111 429 c 128,-1,2
 174 510 174 510 273 510 c 0,3,4
 348 510 348 510 403 459 c 1,5,6
 403 510 403 510 441 510 c 0,7,8
 487 510 487 510 487 441.5 c 0,9,10
 487 373 487 373 467 242 c 1,11,12
 467 178 467 178 476 2.5 c 0,13,14
 485 -173 485 -173 485 -187.5 c 0,15,16
 485 -202 485 -202 474.069444444 -216.347222222 c 0,17,18
 463.138888889 -230.694444444 463.138888889 -230.694444444 451.444444444 -230.694444444 c 0,19,20
 439.75 -230.694444444 439.75 -230.694444444 430 -226 c 0,21,22
 406.483870968 -214.677419355 406.483870968 -214.677419355 406.483870968 -188.18314256 c 0,23,24
 406.483870968 -184.258064516 406.483870968 -184.258064516 407 -180 c 2,25,-1
 407 106 l 1,26,27
 380 54 380 54 334 22 c 128,-1,28
 288 -10 288 -10 229.5 -10 c 0,29,30
 171 -10 171 -10 128 30 c 0,31,32
 48 104 48 104 48 239 c 0,0,1
409 233 m 1,33,-1
 404 387 l 1,34,35
 345 445 345 445 279 445 c 0,36,37
 213 445 213 445 166 386 c 128,-1,38
 119 327 119 327 119 243.5 c 0,39,40
 119 160 119 160 150 107.5 c 128,-1,41
 181 55 181 55 236 55 c 128,-1,42
 291 55 291 55 337.5 104 c 128,-1,43
 384 153 384 153 409 233 c 1,33,-1
EndSplineSet
EndChar

StartChar: r
Encoding: 114 114 85
Width: 408
Flags: HMW
HStem: -10 21G<98.5 126.5> 407 103
VStem: 68 81
LayerCount: 2
Fore
SplineSet
149 229 m 1,0,-1
 152 41 l 2,1,2
 152 -10 152 -10 114 -10 c 0,3,4
 68 -10 68 -10 68 58.5 c 0,5,6
 68 127 68 127 88 258 c 1,7,8
 88 300 88 300 79.5 375.5 c 0,9,10
 71 451 71 451 71 467 c 0,11,12
 71 483 71 483 82 496.5 c 128,-1,13
 93 510 93 510 110 510 c 128,-1,14
 127 510 127 510 138 496.5 c 128,-1,15
 149 483 149 483 149 469 c 0,16,17
 149 455 149 455 148.5 424 c 128,-1,18
 148 393 148 393 148 381 c 1,19,20
 167 431 167 431 210 471 c 1,21,22
 254 510 254 510 297.5 510 c 0,23,24
 341 510 341 510 366.5 492.5 c 128,-1,25
 392 475 392 475 392 453 c 0,26,27
 392 431 392 431 381 419 c 128,-1,28
 370 407 370 407 352.5 407 c 0,29,30
 335 407 335 407 314 425 c 1,31,32
 295 444 295 444 282 444 c 0,33,34
 249 444 249 444 205 372.5 c 0,35,36
 161 301 161 301 149 229 c 1,0,-1
EndSplineSet
EndChar

StartChar: s
Encoding: 115 115 86
Width: 455
Flags: HMW
HStem: -10 21G<201.5 253> 490 20G<207.5 278.5>
LayerCount: 2
Fore
SplineSet
416 144 m 0,0,1
 416 77 416 77 360.5 33.5 c 128,-1,2
 305 -10 305 -10 228 -10 c 128,-1,3
 151 -10 151 -10 93 25 c 1,4,5
 36 61 36 61 36 96 c 0,6,7
 36 119 36 119 55 127 c 128,-1,8
 74 135 74 135 84 125 c 0,9,10
 86 124 86 124 124 86 c 0,11,12
 135 76 135 76 165 65.5 c 128,-1,13
 195 55 195 55 218 55 c 0,14,15
 274 55 274 55 309 78 c 128,-1,16
 344 101 344 101 344 143 c 0,17,18
 344 196 344 196 244 230 c 0,19,20
 133.145454545 268.007272727 133.145454545 268.007272727 102 295 c 0,21,22
 87 308 87 308 74.5 329.5 c 128,-1,23
 62 351 62 351 62 375 c 0,24,25
 62 429 62 429 111.5 469.5 c 128,-1,26
 161 510 161 510 230 510 c 128,-1,27
 299 510 299 510 342 486.5 c 128,-1,28
 385 463 385 463 385 434 c 0,29,30
 385 401 385 401 350 401 c 0,31,32
 336 401 336 401 320 412 c 0,33,34
 271.85483871 445.166666667 271.85483871 445.166666667 227.385752688 445.166666667 c 128,-1,35
 182.916666667 445.166666667 182.916666667 445.166666667 160 425 c 1,36,37
 133 406 133 406 133 380.5 c 128,-1,38
 133 355 133 355 159 339 c 128,-1,39
 185 323 185 323 244 299.5 c 128,-1,40
 303 276 303 276 316 270 c 0,41,42
 360 251 360 251 388 218 c 128,-1,43
 416 185 416 185 416 144 c 0,0,1
EndSplineSet
EndChar

StartChar: t
Encoding: 116 116 87
Width: 337
Flags: HMW
HStem: -10 21G<175 216> 642 20G<137.5 162.5>
VStem: 20 162 116 200<439 480.5>
LayerCount: 2
Fore
SplineSet
266 437 m 1,0,-1
 183 439 l 1,1,-1
 181 202 l 2,2,3
 181 110 181 110 188 82.5 c 128,-1,4
 195 55 195 55 228 55 c 0,5,6
 244 55 244 55 266 65.5 c 128,-1,7
 288 76 288 76 293 76 c 0,8,9
 314 76 314 76 314 55 c 128,-1,10
 314 34 314 34 277 12 c 128,-1,11
 240 -10 240 -10 204 -10 c 0,12,13
 117 -10 117 -10 117 118 c 2,14,-1
 116 439 l 1,15,16
 83 436 83 436 70 436 c 0,17,18
 20 436 20 436 20 469 c 128,-1,19
 20 502 20 502 70 502 c 1,20,-1
 114 500 l 1,21,-1
 112 612 l 2,22,23
 112 662 112 662 150 662 c 128,-1,24
 188 662 188 662 188 612 c 1,25,-1
 185 499 l 1,26,-1
 266 503 l 1,27,28
 316 503 316 503 316 469 c 0,29,30
 316 437 316 437 266 437 c 1,0,-1
EndSplineSet
EndChar

StartChar: u
Encoding: 117 117 88
Width: 584
Flags: HMW
HStem: -10 21G<213.5 277.5 468 505.5> 490 20G<92.5 120.5 441.5 469.5>
VStem: 62 81 417 83 417 130
LayerCount: 2
Fore
SplineSet
151 428 m 1,0,-1
 143 208 l 1,1,2
 143 139 143 139 172.5 97 c 128,-1,3
 202 55 202 55 253 55 c 0,4,5
 304 55 304 55 352 112 c 1,6,7
 399 170 399 170 419 242 c 1,8,-1
 416 459 l 2,9,10
 416 510 416 510 454 510 c 0,11,12
 500 510 500 510 500 441.5 c 0,13,14
 500 373 500 373 480 242 c 1,15,16
 480 169 480 169 490.5 120.5 c 128,-1,17
 501 72 501 72 517 66 c 0,18,19
 523 63 523 63 531.5 62 c 128,-1,20
 540 61 540 61 543.5 59 c 128,-1,21
 547 57 547 57 547 51 c 0,22,23
 547 24 547 24 530.5 7 c 128,-1,24
 514 -10 514 -10 489 -10 c 0,25,26
 426 -10 426 -10 426 118 c 1,27,28
 352 -10 352 -10 240 -10 c 0,29,30
 160 -10 160 -10 116 49 c 1,31,32
 72 110 72 110 72 195 c 1,33,-1
 78 346 l 1,34,35
 78 377 78 377 70 420.5 c 128,-1,36
 62 464 62 464 62 475 c 0,37,38
 62 486 62 486 74.5 498 c 128,-1,39
 87 510 87 510 105 510 c 0,40,41
 151 510 151 510 151 428 c 1,0,-1
EndSplineSet
EndChar

StartChar: v
Encoding: 118 118 89
Width: 485
Flags: HMW
HStem: -10 21G<229.5 252.5> 490 20G<48 67 418.5 437>
LayerCount: 2
Fore
SplineSet
267 124 m 2,0,-1
 319 267 l 2,1,2
 331 299 331 299 355 375 c 128,-1,3
 379 451 379 451 388 474 c 0,4,5
 401.5 510 401.5 510 427 510 c 0,6,7
 442 510 442 510 452.5 500.5 c 128,-1,8
 463 491 463 491 463 477.25 c 128,-1,9
 463 463.5 463 463.5 457.5 448.75 c 128,-1,10
 452 434 452 434 447.5 423.5 c 128,-1,11
 443 413 443 413 436 394.5 c 128,-1,12
 429 376 429 376 419 351 c 128,-1,13
 409 326 409 326 363.5 199 c 128,-1,14
 318 72 318 72 297 31 c 128,-1,15
 276 -10 276 -10 241.5 -10 c 128,-1,16
 207 -10 207 -10 189 26 c 0,17,18
 183 37 183 37 137 158 c 2,19,-1
 77 315 l 2,20,21
 41 407 41 407 32 432.5 c 128,-1,22
 23 458 23 458 23 474.5 c 128,-1,23
 23 491 23 491 33 500.5 c 128,-1,24
 43 510 43 510 58 510 c 0,25,26
 85 510 85 510 99 475 c 0,27,28
 108 452 108 452 128 387 c 1,29,-1
 187 219 l 2,30,31
 218 131 218 131 227.766529923 105.915171867 c 128,-1,32
 237.533059847 80.8303437331 237.533059847 80.8303437331 242.291347203 80.4648064263 c 0,33,34
 250.027128644 79.8705344745 250.027128644 79.8705344745 267 124 c 2,0,-1
EndSplineSet
EndChar

StartChar: w
Encoding: 119 119 90
Width: 786
Flags: HMW
HStem: -10 21G<209.5 234.5 548.5 575.5> 490 20G<51 70.5 390 410.5 716.5 735>
LayerCount: 2
Fore
SplineSet
229 80 m 0,0,1
 239 80 239 80 294 268.5 c 128,-1,2
 349 457 349 457 356 474 c 0,3,4
 370 510 370 510 400.5 510 c 128,-1,5
 431 510 431 510 443 475 c 1,6,-1
 501 268 l 1,7,8
 557 80 557 80 565 80 c 0,9,10
 576 80 576 80 631 267 c 0,11,12
 644.5 310.5 644.5 310.5 664 384 c 2,13,-1
 688 471 l 1,14,15
 700 510 700 510 725 510 c 0,16,17
 740 510 740 510 750.5 501 c 128,-1,18
 761 492 761 492 761 477 c 128,-1,19
 761 462 761 462 743 406 c 128,-1,20
 725 350 725 350 717.5 329 c 128,-1,21
 710 308 710 308 671.5 188 c 128,-1,22
 633 68 633 68 617.5 29 c 128,-1,23
 602 -10 602 -10 562 -10 c 128,-1,24
 522 -10 522 -10 504 42 c 0,25,26
 468 145.5 468 145.5 435 261.25 c 128,-1,27
 402 377 402 377 394.5 377 c 128,-1,28
 387 377 387 377 375 337 c 2,29,-1
 349 245 l 2,30,31
 297 62 297 62 277 25 c 1,32,33
 260 -10 260 -10 222 -10 c 128,-1,34
 184 -10 184 -10 165 45 c 0,35,36
 163 51 163 51 159 62 c 128,-1,37
 155 73 155 73 148.5 93 c 128,-1,38
 142 113 142 113 135.5 133 c 128,-1,39
 129 153 129 153 101 237 c 2,40,-1
 74 316 l 2,41,42
 65 343 65 343 53.5 374.5 c 0,43,44
 25 452.565217391 25 452.565217391 25 471.282608696 c 128,-1,45
 25 490 25 490 35.5 500 c 128,-1,46
 46 510 46 510 61 510 c 0,47,48
 90 510 90 510 101 475 c 0,49,50
 102 474 102 474 127 387 c 1,51,-1
 159 281 l 2,52,53
 163 270 163 270 169.5 249 c 0,54,55
 193.943661972 170.028169014 193.943661972 170.028169014 208.971830986 125.014084507 c 128,-1,56
 224 80 224 80 229 80 c 0,0,1
EndSplineSet
EndChar

StartChar: x
Encoding: 120 120 91
Width: 492
Flags: HMW
HStem: -15 21G<420 440.5>
LayerCount: 2
Fore
SplineSet
283 262 m 1,0,-1
 385 109 l 1,1,2
 424.48 56.36 424.48 56.36 472.5 49.5 c 0,3,4
 476 49 476 49 475 46 c 1,5,6
 475 22 475 22 460.5 3.5 c 128,-1,7
 446 -15 446 -15 425 -15 c 128,-1,8
 404 -15 404 -15 385 4 c 128,-1,9
 366 23 366 23 348.25 49 c 128,-1,10
 330.5 75 330.5 75 317 93 c 1,11,-1
 242 206 l 1,12,13
 176 110 176 110 143.5 61 c 128,-1,14
 111 12 111 12 101.291666667 0.489583333333 c 128,-1,15
 91.5833333333 -11.0208333333 91.5833333333 -11.0208333333 80.0208333333 -11.0208333333 c 128,-1,16
 68.4583333333 -11.0208333333 68.4583333333 -11.0208333333 57.1091666667 -0.710416666667 c 128,-1,17
 45.76 9.6 45.76 9.6 45.76 20.62 c 128,-1,18
 45.76 31.64 45.76 31.64 48.88 40.32 c 128,-1,19
 52 49 52 49 91 102 c 1,20,21
 133 156 133 156 205 261 c 1,22,-1
 119 389 l 1,23,24
 77 443 77 443 52.5 444.5 c 128,-1,25
 28 446 28 446 28 456 c 0,26,27
 28 495 28 495 59 511 c 0,28,29
 68.1851851852 515.740740741 68.1851851852 515.740740741 77.7215363512 515.740740741 c 0,30,31
 100.37037037 515.740740741 100.37037037 515.740740741 123.185185185 490.87037037 c 128,-1,32
 146 466 146 466 183 408 c 1,33,-1
 246 313 l 1,34,-1
 361 486 l 1,35,36
 380.375 510.025 380.375 510.025 397.0471875 510.025 c 0,37,38
 401.8875 510.025 401.8875 510.025 406.5 508 c 0,39,40
 427 499 427 499 427 481 c 128,-1,41
 427 463 427 463 417.5 447.5 c 128,-1,42
 408 432 408 432 359 365 c 2,43,-1
 283 262 l 1,0,-1
EndSplineSet
EndChar

StartChar: y
Encoding: 121 121 92
Width: 568
Flags: HMW
HStem: -230 21G<226.5 285.5> -10 21G<213.5 277.5> 490 20G<92.5 120.5 441.5 469.5>
VStem: 62 85
LayerCount: 2
Fore
SplineSet
419 242 m 1,0,-1
 416 459 l 2,1,2
 416 510 416 510 454 510 c 0,3,4
 500 510 500 510 500 435 c 0,5,6
 500 376 500 376 479 242 c 1,7,8
 491 120 491 120 491 60 c 0,9,10
 491 -71 491 -71 426.5 -150.5 c 0,11,12
 362 -230 362 -230 247 -230 c 0,13,14
 187 -230 187 -230 131 -204.5 c 0,15,16
 75 -179 75 -179 75 -153.5 c 0,17,18
 75 -128 75 -128 98 -128 c 0,19,20
 108 -128 108 -128 153 -146.5 c 0,21,22
 198 -165 198 -165 247 -165 c 0,23,24
 330 -165 330 -165 379.5 -105.5 c 0,25,26
 429 -46 429 -46 429 50 c 0,27,28
 429 85 429 85 426 118 c 1,29,30
 352 -10 352 -10 240 -10 c 0,31,32
 160 -10 160 -10 116 49 c 1,33,34
 72 110 72 110 72 195 c 1,35,-1
 78 346 l 1,36,37
 78 377 78 377 70 420.5 c 128,-1,38
 62 464 62 464 62 475 c 0,39,40
 62 486 62 486 74.5 498 c 128,-1,41
 87 510 87 510 105 510 c 0,42,43
 151 510 151 510 151 428 c 1,44,-1
 143 208 l 1,45,46
 143 139 143 139 172.5 97 c 128,-1,47
 202 55 202 55 253 55 c 0,48,49
 304 55 304 55 352 112 c 1,50,51
 399 170 399 170 419 242 c 1,0,-1
EndSplineSet
EndChar

StartChar: z
Encoding: 122 122 93
Width: 478
Flags: HMW
HStem: -5 21G<67 83 395 411.5> 485 20G<78.5 95 383 399>
LayerCount: 2
Fore
SplineSet
245 60 m 2,0,-1
 395 65 l 1,1,2
 445 65 445 65 445 30 c 128,-1,3
 445 -5 445 -5 395 -5 c 1,4,-1
 245 0 l 1,5,6
 191 -2 191 -2 83 -5 c 1,7,8
 35 -5 35 -5 35 30 c 0,9,10
 35 55 35 55 70 96 c 0,11,12
 123 156 123 156 177 230 c 1,13,-1
 284 373 l 1,14,15
 317 420 317 420 326 437 c 1,16,17
 251 440 251 440 241 440 c 2,18,-1
 95 435 l 1,19,20
 45 435 45 435 45 470 c 128,-1,21
 45 505 45 505 95 505 c 1,22,-1
 241 500 l 1,23,-1
 383 505 l 1,24,25
 431 505 431 505 431 470 c 0,26,27
 431 443 431 443 380 383.5 c 0,28,29
 329 324 329 324 253.5 222 c 0,30,31
 178 120 178 120 139 62 c 1,32,33
 219 60 219 60 245 60 c 2,0,-1
EndSplineSet
EndChar

StartChar: braceleft
Encoding: 123 123 94
Width: 307
Flags: HMW
HStem: -230 21G<199.5 253> 740 20G<200.5 254>
LayerCount: 2
Fore
SplineSet
228 -230 m 0,0,1
 183 -230 183 -230 151.5 -201 c 128,-1,2
 120 -172 120 -172 120 -122 c 0,3,4
 120 -92 120 -92 127.5 -25.5 c 128,-1,5
 135 41 135 41 135 82 c 128,-1,6
 135 123 135 123 127 165.5 c 128,-1,7
 119 208 119 208 104 215 c 1,8,9
 87.2 206 87.2 206 72.3 206 c 0,10,11
 14 206 14 206 14 256 c 1,12,13
 12 281 12 281 30 297 c 128,-1,14
 48 313 48 313 69 313 c 128,-1,15
 90 313 90 313 104 307 c 1,16,17
 115 321 115 321 125.5 364 c 128,-1,18
 136 407 136 407 136 447 c 128,-1,19
 136 487 136 487 128.5 553.5 c 128,-1,20
 121 620 121 620 121 650 c 0,21,22
 121 700 121 700 152.5 730 c 128,-1,23
 184 760 184 760 229 760 c 0,24,25
 253 760 253 760 261.5 742 c 0,26,27
 265.513888889 733.5 265.513888889 733.5 265.513888889 724.381944444 c 128,-1,28
 265.513888889 715.263888889 265.513888889 715.263888889 260.5 705.5 c 0,29,30
 251 687 251 687 229 687 c 0,31,32
 191 687 191 687 191 640 c 0,33,34
 191 621 191 621 198.5 558 c 128,-1,35
 206 495 206 495 206 448 c 0,36,37
 206 333 206 333 157 269 c 1,38,39
 177 241 177 241 183 230 c 128,-1,40
 189 219 189 219 197 178 c 128,-1,41
 205 137 205 137 205 85 c 128,-1,42
 205 33 205 33 197.5 -30 c 128,-1,43
 190 -93 190 -93 190 -112 c 0,44,45
 190 -157 190 -157 228 -157 c 0,46,47
 250 -157 250 -157 259.5 -175.5 c 0,48,49
 264.378378378 -185 264.378378378 -185 264.378378378 -194.121621622 c 128,-1,50
 264.378378378 -203.243243243 264.378378378 -203.243243243 260 -212 c 0,51,52
 251 -230 251 -230 228 -230 c 0,0,1
EndSplineSet
EndChar

StartChar: bar
Encoding: 124 124 95
Width: 220
Flags: HMW
HStem: -270 21G<98.5 121.5> 780 20G<98.5 121.5>
LayerCount: 2
Fore
SplineSet
144 750 m 2,0,-1
 140 255 l 1,1,2
 140 -19 140 -19 142 -96 c 0,3,4
 145 -211.5 145 -211.5 145 -220 c 0,5,6
 145 -270 145 -270 110 -270 c 128,-1,7
 75 -270 75 -270 75 -220 c 0,8,9
 75 -184 75 -184 77.5 -91 c 128,-1,10
 80 2 80 2 80 255 c 1,11,-1
 76 750 l 2,12,13
 76 800 76 800 110 800 c 128,-1,14
 144 800 144 800 144 750 c 2,0,-1
EndSplineSet
EndChar

StartChar: braceright
Encoding: 125 125 96
Width: 307
Flags: HMW
HStem: -230 21G<54 107.5> 740 20G<53 106.5>
VStem: 101 192<230 465>
LayerCount: 2
Fore
SplineSet
203 215 m 1,0,1
 187 208 187 208 179.5 168 c 128,-1,2
 172 128 172 128 172 80.5 c 128,-1,3
 172 33 172 33 179.5 -34 c 128,-1,4
 187 -101 187 -101 187 -122 c 0,5,6
 187 -172 187 -172 155.5 -201 c 128,-1,7
 124 -230 124 -230 79 -230 c 0,8,9
 56 -230 56 -230 47 -212 c 0,10,11
 42.6216216216 -203.243243243 42.6216216216 -203.243243243 42.6216216216 -194.121621622 c 128,-1,12
 42.6216216216 -185 42.6216216216 -185 47.5 -175.5 c 0,13,14
 57 -157 57 -157 79 -157 c 0,15,16
 117 -157 117 -157 117 -112 c 0,17,18
 117 -101 117 -101 109.5 -38 c 128,-1,19
 102 25 102 25 102 84 c 0,20,21
 102 191.111111111 102 191.111111111 125 232 c 0,22,23
 130 241 130 241 150 269 c 1,24,25
 101 333 101 333 101 448 c 0,26,27
 101 503 101 503 108.5 566 c 128,-1,28
 116 629 116 629 116 640 c 0,29,30
 116 687 116 687 78 687 c 0,31,32
 56 687 56 687 46.5 705.5 c 0,33,34
 41.4861111111 715.263888889 41.4861111111 715.263888889 41.4861111111 724.381944444 c 128,-1,35
 41.4861111111 733.5 41.4861111111 733.5 45.5 742 c 0,36,37
 54 760 54 760 78 760 c 0,38,39
 123 760 123 760 154.5 730 c 128,-1,40
 186 700 186 700 186 650 c 0,41,42
 186 629 186 629 178.5 562 c 128,-1,43
 171 495 171 495 171 451 c 128,-1,44
 171 407 171 407 181.5 364 c 128,-1,45
 192 321 192 321 203 307 c 1,46,47
 215 313 215 313 238 313 c 128,-1,48
 261 313 261 313 277 297 c 128,-1,49
 293 281 293 281 293 256 c 0,50,51
 293 220 293 220 262 210 c 0,52,53
 249.6 206 249.6 206 234.7 206 c 128,-1,54
 219.8 206 219.8 206 203 215 c 1,0,1
EndSplineSet
EndChar

StartChar: asciitilde
Encoding: 126 126 97
Width: 552
Flags: HW
LayerCount: 2
Fore
SplineSet
59 238 m 0,0,1
 59 271 59 271 102 299 c 1,2,3
 145.5 329 145.5 329 195 329 c 128,-1,4
 244.5 329 244.5 329 300.25 299.5 c 128,-1,5
 356 270 356 270 379 270 c 128,-1,6
 402 270 402 270 414.5 279 c 128,-1,7
 427 288 427 288 438.5 298.5 c 0,8,9
 462.047619048 320 462.047619048 320 471 320 c 0,10,11
 494.223865218 320 494.223865218 320 494.223865218 294.093277174 c 128,-1,12
 494.223865218 268.186554348 494.223865218 268.186554348 458.111932609 238.093277174 c 128,-1,13
 422 208 422 208 383.5 208 c 128,-1,14
 345 208 345 208 291.5 237 c 128,-1,15
 238 266 238 266 208.5 266 c 128,-1,16
 179 266 179 266 149.5 237 c 0,17,18
 116.985951469 205.037037037 116.985951469 205.037037037 96.159642401 205.037037037 c 128,-1,19
 75.3333333333 205.037037037 75.3333333333 205.037037037 67.1666666667 215.018518519 c 128,-1,20
 59 225 59 225 59 238 c 0,0,1
EndSplineSet
EndChar

StartChar: exclamdown
Encoding: 161 161 99
Width: 220
Flags: HMW
HStem: -230 21G<96.5 123.5> 430 115<99.5 120>
VStem: 64 80 64 92<475.5 499>
LayerCount: 2
Fore
SplineSet
113 545 m 128,-1,1
 133 545 133 545 144.5 529.5 c 128,-1,2
 156 514 156 514 156 490.5 c 0,3,4
 156 467 156 467 141 448.5 c 128,-1,5
 126 430 126 430 106 430 c 128,-1,6
 86 430 86 430 75 444.5 c 128,-1,7
 64 459 64 459 64 483 c 128,-1,8
 64 507 64 507 78.5 526 c 128,-1,0
 93 545 93 545 113 545 c 128,-1,1
146 274 m 2,9,-1
 143 62 l 2,10,11
 143 3.5 143 3.5 146.5 -80.25 c 0,12,13
 150 -164 150 -164 150 -180 c 0,14,15
 150 -230 150 -230 110 -230 c 128,-1,16
 70 -230 70 -230 70 -180 c 0,17,18
 70 -173 70 -173 73.5 -89.5 c 0,19,20
 77 -6 77 -6 77 62 c 2,21,-1
 74 274 l 2,22,23
 74 324 74 324 110 324 c 128,-1,24
 146 324 146 324 146 274 c 2,9,-1
EndSplineSet
EndChar

StartChar: cent
Encoding: 162 162 100
Width: 534
Flags: HMW
HStem: -135 21G<280.5 303.5> 625 20G<280.5 303.5>
VStem: 258 224
LayerCount: 2
Fore
SplineSet
326 594 m 1,0,-1
 324 514 l 1,1,2
 385 511 385 511 428 483 c 1,3,4
 473 456 473 456 473 428 c 0,5,6
 473 413 473 413 463 402 c 128,-1,7
 453 391 453 391 440.5 391 c 0,8,9
 428 391 428 391 393 417 c 1,10,11
 359 445 359 445 323 449 c 1,12,13
 322 414 322 414 322 307 c 0,14,15
 322 200 322 200 324 50 c 1,16,17
 368 53 368 53 408 78 c 128,-1,18
 448 103 448 103 457 103 c 0,19,20
 482 103 482 103 482 78 c 128,-1,21
 482 53 482 53 433 22 c 1,22,23
 383.5 -8 383.5 -8 325 -14 c 1,24,-1
 327 -84 l 1,25,26
 327 -135 327 -135 292 -135 c 128,-1,27
 257 -135 257 -135 257 -85 c 0,28,29
 257 -35 257 -35 258 -11 c 1,30,31
 167 6 167 6 112 79 c 0,32,33
 57 152 57 152 57 249 c 128,-1,34
 57 346 57 346 111 419 c 0,35,36
 166 492 166 492 259 510 c 1,37,38
 258 538 258 538 258 598 c 0,39,40
 258 645 258 645 292 645 c 128,-1,41
 326 645 326 645 326 594 c 1,0,-1
260 58 m 1,42,43
 262 204 262 204 262 260.5 c 0,44,45
 262 317 262 317 261 358 c 1,46,-1
 261 443 l 1,47,48
 208 427 208 427 170 374 c 0,49,50
 132 321 132 321 132 253 c 0,51,52
 132 185 132 185 167 130 c 1,53,54
 203 77.5 203 77.5 260 58 c 1,42,43
EndSplineSet
EndChar

StartChar: sterling
Encoding: 163 163 101
Width: 536
Flags: HMW
HStem: -5 21G<97.5 121 434 449.5> 695 20G<270.5 319>
LayerCount: 2
Fore
SplineSet
365 321 m 2,0,-1
 215 324 l 1,1,2
 216.25 301.75 216.25 301.75 216.25 262 c 0,3,4
 216.25 195.363636364 216.25 195.363636364 184 125 c 0,5,6
 171 97 171 97 153 65 c 1,7,8
 175 64 175 64 241.5 64 c 128,-1,9
 308 64 308 64 375 67.5 c 2,10,-1
 442 71 l 2,11,12
 458 71 458 71 471 60.5 c 128,-1,13
 484 50 484 50 484 33 c 0,14,15
 484 -5 484 -5 434 -5 c 1,16,-1
 283 0 l 1,17,-1
 121 -5 l 1,18,19
 84 -5 84 -5 73.5 22.5 c 0,20,21
 70.4794520548 30.4109589041 70.4794520548 30.4109589041 70.4794520548 46.5342465753 c 128,-1,22
 70.4794520548 62.6575342466 70.4794520548 62.6575342466 92.2397260274 98.3287671233 c 128,-1,23
 114 134 114 134 130.5 170.5 c 128,-1,24
 147 207 147 207 149.0625 235.875 c 128,-1,25
 151.125 264.75 151.125 264.75 151.125 283.6875 c 128,-1,26
 151.125 302.625 151.125 302.625 148 322 c 1,27,-1
 101 321 l 2,28,29
 74 321 74 321 63 341.5 c 0,30,31
 58.9666666667 349.016666667 58.9666666667 349.016666667 58.9666666667 358.441666667 c 128,-1,32
 58.9666666667 367.866666667 58.9666666667 367.866666667 69.4833333333 376.433333333 c 128,-1,33
 80 385 80 385 90 387 c 128,-1,34
 100 389 100 389 118 387.5 c 128,-1,35
 136 386 136 386 138 386 c 1,36,-1
 126 440 l 2,37,38
 109 516 109 516 109 549 c 0,39,40
 109 619 109 619 159 667 c 0,41,42
 210 715 210 715 301 715 c 0,43,44
 356 715 356 715 406 687 c 128,-1,45
 456 659 456 659 457 629 c 1,46,47
 454 617 454 617 451.5 612 c 128,-1,48
 449 607 449 607 440.5 600 c 0,49,50
 424.388059701 586.731343284 424.388059701 586.731343284 379.194029851 617.865671642 c 128,-1,51
 334 649 334 649 288 649 c 128,-1,52
 242 649 242 649 211.5 623.5 c 128,-1,53
 181 598 181 598 181 552 c 128,-1,54
 181 506 181 506 206 384 c 1,55,-1
 365 387 l 2,56,57
 367.564102564 387.205128205 367.564102564 387.205128205 369.975673899 387.205128205 c 0,58,59
 391.076923077 387.205128205 391.076923077 387.205128205 398.413461538 374.977564103 c 128,-1,60
 405.75 362.75 405.75 362.75 405.75 354 c 128,-1,61
 405.75 345.25 405.75 345.25 398.413461538 333.022435897 c 128,-1,62
 391.076923077 320.794871795 391.076923077 320.794871795 369.975673899 320.794871795 c 0,63,64
 367.564102564 320.794871795 367.564102564 320.794871795 365 321 c 2,0,-1
EndSplineSet
EndChar

StartChar: currency
Encoding: 164 164 102
Width: 641
Flags: HMW
HStem: 495 20G<295.5 345>
LayerCount: 2
Fore
SplineSet
498 413 m 1,0,1
 529 359 529 359 529 292.5 c 128,-1,2
 529 226 529 226 498 172 c 1,3,-1
 558 115 l 1,4,5
 579.552238806 96.2835820896 579.552238806 96.2835820896 579.552238806 80.9179104478 c 0,6,7
 579.552238806 65.552238806 579.552238806 65.552238806 567.776119403 53.776119403 c 0,8,9
 556 42 556 42 542 42 c 0,10,11
 528 42 528 42 513 55 c 0,12,13
 498 68 498 68 453 116 c 1,14,15
 398 68 398 68 320.5 68 c 0,16,17
 243 68 243 68 188 117 c 1,18,-1
 135 62 l 1,19,20
 113.472727273 43.3818181818 113.472727273 43.3818181818 98.1727272727 43.3818181818 c 0,21,22
 82.8727272727 43.3818181818 82.8727272727 43.3818181818 72 53 c 1,23,24
 61.0967741935 65.5806451613 61.0967741935 65.5806451613 61.0967741935 81 c 0,25,26
 61.0967741935 96.4193548387 61.0967741935 96.4193548387 82 115 c 1,27,-1
 143 174 l 1,28,29
 114 226 114 226 114 291 c 128,-1,30
 114 356 114 356 144 410 c 1,31,32
 84 468 84 468 82 471 c 0,33,34
 62.406779661 492.322033898 62.406779661 492.322033898 62.406779661 507.36440678 c 0,35,36
 62.406779661 522.406779661 62.406779661 522.406779661 73.9795092335 533.979509233 c 0,37,38
 85.552238806 545.552238806 85.552238806 545.552238806 100.917910448 545.552238806 c 0,39,40
 116.28358209 545.552238806 116.28358209 545.552238806 135 524 c 1,41,-1
 190 467 l 1,42,43
 245 515 245 515 319.5 515 c 0,44,45
 394 515 394 515 452 468 c 1,46,-1
 505 524 l 1,47,48
 527.1 543.266666667 527.1 543.266666667 542.066666667 543.266666667 c 0,49,50
 557.033333333 543.266666667 557.033333333 543.266666667 567 532 c 1,51,52
 578.655172414 523.931034483 578.655172414 523.931034483 578.655172414 506.705989111 c 0,53,54
 578.655172414 489.480943739 578.655172414 489.480943739 558 471 c 1,55,56
 519 432 519 432 498 413 c 1,0,1
320 134 m 128,-1,58
 378 134 378 134 419.5 181 c 0,59,60
 461 228 461 228 461 294 c 0,61,62
 461 360 461 360 421 404 c 1,63,64
 382 450 382 450 324 450 c 128,-1,65
 266 450 266 450 224.5 403 c 0,66,67
 183 356 183 356 183 290.75 c 0,68,69
 183 225.5 183 225.5 222 179 c 1,70,57
 262 134 262 134 320 134 c 128,-1,58
EndSplineSet
EndChar

StartChar: yen
Encoding: 165 165 103
Width: 585
Flags: HMW
HStem: -10 21G<277 303>
LayerCount: 2
Fore
SplineSet
131 301 m 0,0,1
 76.8275862069 301 76.8275862069 301 76.8275862069 329.653983353 c 0,2,3
 76.8275862069 336.965517241 76.8275862069 336.965517241 81 345.5 c 0,4,5
 90.7058823529 365.352941176 90.7058823529 365.352941176 108.197231834 365.352941176 c 0,6,7
 110.529411765 365.352941176 110.529411765 365.352941176 130.764705882 365.176470588 c 128,-1,8
 151 365 151 365 226 362 c 1,9,-1
 144 507 l 1,10,-1
 86 605 l 1,11,12
 69 639 69 639 64 644 c 1,13,14
 53.243902439 666.024390244 53.243902439 666.024390244 53.243902439 681.12195122 c 128,-1,15
 53.243902439 696.219512195 53.243902439 696.219512195 65.6691210308 706.505982513 c 128,-1,16
 78.0943396226 716.79245283 78.0943396226 716.79245283 91.2641509434 716.79245283 c 128,-1,17
 104.433962264 716.79245283 104.433962264 716.79245283 115 702 c 1,18,19
 135 682 135 682 153 642 c 1,20,-1
 221 504 l 2,21,22
 264 418 264 418 293 373 c 1,23,24
 320 414 320 414 386.5 548.5 c 128,-1,25
 453 683 453 683 463.5 699 c 128,-1,26
 474 715 474 715 491 715 c 128,-1,27
 508 715 508 715 518.5 705.5 c 128,-1,28
 529 696 529 696 529 687.5 c 128,-1,29
 529 679 529 679 528.5 674.5 c 128,-1,30
 528 670 528 670 526 664.5 c 128,-1,31
 524 659 524 659 517.5 647 c 128,-1,32
 511 635 511 635 503 621.5 c 0,33,34
 479 581 479 581 443 519 c 2,35,-1
 354 362 l 1,36,37
 435 365 435 365 462 365 c 0,38,39
 513 365 513 365 513 333 c 0,40,41
 513 318 513 318 501.5 309.5 c 128,-1,42
 490 301 490 301 456 301 c 128,-1,43
 422 301 422 301 326 304 c 1,44,-1
 326 225 l 1,45,-1
 472 228 l 2,46,47
 490 228 490 228 501.5 219.5 c 128,-1,48
 513 211 513 211 513 196 c 128,-1,49
 513 181 513 181 501.5 172.5 c 128,-1,50
 490 164 490 164 457.5 164 c 128,-1,51
 425 164 425 164 326 167 c 1,52,-1
 329 40 l 1,53,54
 329 -10 329 -10 290 -10 c 128,-1,55
 251 -10 251 -10 251 40 c 1,56,-1
 255 167 l 1,57,58
 162 164 162 164 131 164 c 0,59,60
 75.9666666667 164 75.9666666667 164 75.9666666667 193.871111111 c 0,61,62
 75.9666666667 200.666666667 75.9666666667 200.666666667 80 208 c 0,63,64
 91 228 91 228 118 228 c 2,65,-1
 255 225 l 1,66,-1
 255 304 l 1,67,68
 162 301 162 301 131 301 c 0,0,1
EndSplineSet
EndChar

StartChar: brokenbar
Encoding: 166 166 104
Width: 232
Flags: HMW
HStem: -230 21G<103.5 126.5> 707 20G<104 126.5>
LayerCount: 2
Fore
SplineSet
150 684 m 1,0,-1
 146 533 l 1,1,-1
 151 385 l 1,2,3
 151 339 151 339 115 339 c 0,4,5
 81 339 81 339 81 385 c 1,6,-1
 86 533 l 1,7,8
 85 583 85 583 82 684 c 1,9,10
 82 727 82 727 115 727 c 0,11,12
 150 727 150 727 150 684 c 1,0,-1
150 115 m 1,13,-1
 146 -36 l 1,14,-1
 151 -184 l 1,15,16
 151 -230 151 -230 115 -230 c 0,17,18
 81 -230 81 -230 81 -184 c 1,19,-1
 86 -36 l 1,20,-1
 82 115 l 1,21,22
 82 158 82 158 115 158 c 0,23,24
 150 158 150 158 150 115 c 1,13,-1
EndSplineSet
EndChar

StartChar: section
Encoding: 167 167 105
Width: 536
Flags: HMW
HStem: -235 21G<214.5 266.5> 745 20G<253.5 300.5>
VStem: 101 80<583 622 583 624.5> 369 80<-73 -23 -73 -8.5>
LayerCount: 2
Fore
SplineSet
383 88 m 1,0,1
 449 26 449 26 449 -49 c 128,-1,2
 449 -124 449 -124 388 -179.5 c 128,-1,3
 327 -235 327 -235 236 -235 c 0,4,5
 170 -235 170 -235 112 -202 c 128,-1,6
 54 -169 54 -169 54 -136 c 0,7,8
 54 -115 54 -115 72 -108 c 0,9,10
 77.7272727273 -105.772727273 77.7272727273 -105.772727273 87.2045454545 -105.772727273 c 128,-1,11
 96.6818181818 -105.772727273 96.6818181818 -105.772727273 111 -116 c 1,12,-1
 137 -137 l 1,13,14
 171 -169 171 -169 232 -169 c 128,-1,15
 293 -169 293 -169 331 -134.5 c 128,-1,16
 369 -100 369 -100 369 -47 c 0,17,18
 369 -12.5714285714 369 -12.5714285714 349.5 9.71428571429 c 128,-1,19
 330 32 330 32 320 43 c 128,-1,20
 310 54 310 54 285 71.5 c 2,21,-1
 250 96 l 2,22,23
 207.777777778 125.555555556 207.777777778 125.555555556 172 146 c 1,24,25
 65 219 65 219 65 304 c 0,26,27
 65 355 65 355 102 396 c 128,-1,28
 139 437 139 437 201 451 c 1,29,30
 101 530 101 530 101 601 c 128,-1,31
 101 672 101 672 153.5 718.5 c 128,-1,32
 206 765 206 765 276.5 765 c 128,-1,33
 347 765 347 765 395.5 742.25 c 128,-1,34
 444 719.5 444 719.5 444 688 c 0,35,36
 444 668 444 668 427.5 662 c 0,37,38
 422.55 660.2 422.55 660.2 413.325 660.2 c 128,-1,39
 404.1 660.2 404.1 660.2 388 670 c 0,40,41
 340.17492163 699.509090909 340.17492163 699.509090909 290.814733542 699.509090909 c 128,-1,42
 241.454545455 699.509090909 241.454545455 699.509090909 212 673 c 1,43,44
 181 648 181 648 181 609 c 0,45,46
 181 544 181 544 288 473 c 1,47,48
 384.746017099 413.339956122 384.746017099 413.339956122 411.632139721 388.059945242 c 128,-1,49
 438.518262343 362.779934361 438.518262343 362.779934361 453 343 c 0,50,51
 485.223776224 301.377622378 485.223776224 301.377622378 485.223776224 252.318988704 c 0,52,53
 485.223776224 228.300699301 485.223776224 228.300699301 477.5 202.5 c 0,54,55
 454 124 454 124 383 88 c 1,0,1
168.663793103 365.357758621 m 128,-1,57
 139 340 139 340 139 303 c 128,-1,58
 139 266 139 266 180 231 c 0,59,60
 209 206 209 206 251.5 178.5 c 128,-1,61
 294 151 294 151 325 130 c 1,62,63
 364 144 364 144 387.5 178 c 128,-1,64
 411 212 411 212 411 256.5 c 128,-1,65
 411 301 411 301 358 344.5 c 0,66,67
 301.691438763 390.715517241 301.691438763 390.715517241 250.009512485 390.715517241 c 128,-1,56
 198.327586207 390.715517241 198.327586207 390.715517241 168.663793103 365.357758621 c 128,-1,57
EndSplineSet
EndChar

StartChar: dieresis
Encoding: 168 168 106
Width: 391
Flags: HMW
HStem: 616 109<106 126 266 286>
VStem: 70 91<663.5 682.5> 230 91<663.5 682.5>
LayerCount: 2
Fore
SplineSet
120 725 m 0,0,1
 161 725 161 725 161 677 c 0,2,3
 161 655 161 655 146.5 635.5 c 128,-1,4
 132 616 132 616 112 616 c 0,5,6
 70 616 70 616 70 667 c 0,7,8
 70 691 70 691 84.5 708 c 128,-1,9
 99 725 99 725 120 725 c 0,0,1
280 725 m 0,10,11
 321 725 321 725 321 677 c 0,12,13
 321 655 321 655 306.5 635.5 c 128,-1,14
 292 616 292 616 272 616 c 0,15,16
 230 616 230 616 230 667 c 0,17,18
 230 691 230 691 244.5 708 c 128,-1,19
 259 725 259 725 280 725 c 0,10,11
EndSplineSet
EndChar

StartChar: copyright
Encoding: 169 169 107
Width: 756
Flags: HMW
HStem: 124 21G<334.5 421.5> 740 20G<334.5 421.5>
VStem: 64 201<421 478 421 486>
LayerCount: 2
Fore
SplineSet
383 635 m 0,0,1
 424 635 424 635 459.5 618 c 128,-1,2
 495 601 495 601 495 580 c 0,3,4
 495 552 495 552 468 552 c 0,5,6
 461 552 461 552 435.5 566 c 128,-1,7
 410 580 410 580 388 580 c 0,8,9
 332 580 332 580 298.5 539.5 c 128,-1,10
 265 499 265 499 265 441.5 c 128,-1,11
 265 384 265 384 300 343 c 1,12,13
 336 303 336 303 388 303 c 0,14,15
 416 303 416 303 445.5 315.5 c 128,-1,16
 475 328 475 328 482 328 c 0,17,18
 504 328 504 328 504 305 c 0,19,20
 504 289 504 289 469 268.5 c 128,-1,21
 434 248 434 248 383 248 c 0,22,23
 308 248 308 248 255 305 c 1,24,25
 204 362 204 362 204 442 c 128,-1,26
 204 522 204 522 253.75 578.5 c 128,-1,27
 303.5 635 303.5 635 383 635 c 0,0,1
378 760 m 128,-1,29
 508.5 760 508.5 760 600.25 666.5 c 128,-1,30
 692 573 692 573 692 442 c 128,-1,31
 692 311 692 311 600.25 217.5 c 128,-1,32
 508.5 124 508.5 124 378 124 c 128,-1,33
 247.5 124 247.5 124 155.75 217.5 c 128,-1,34
 64 311 64 311 64 442 c 128,-1,35
 64 573 64 573 155.75 666.5 c 128,-1,28
 247.5 760 247.5 760 378 760 c 128,-1,29
377 177 m 128,-1,37
 482 177 482 177 556.5 254.5 c 128,-1,38
 631 332 631 332 631 442 c 128,-1,39
 631 552 631 552 556.5 629.5 c 128,-1,40
 482 707 482 707 376.5 707 c 128,-1,41
 271 707 271 707 197.5 629.5 c 128,-1,42
 124 552 124 552 124 442.5 c 128,-1,43
 124 333 124 333 198 254 c 1,44,36
 272 177 272 177 377 177 c 128,-1,37
EndSplineSet
EndChar

StartChar: ordfeminine
Encoding: 170 170 108
Width: 410
Flags: HMW
HStem: 392 21G<144 185.5 303 330> 690 20G<167.5 202.5 287.5 308>
LayerCount: 2
Fore
SplineSet
318 546 m 1,0,1
 318 524 318 524 324 487.5 c 128,-1,2
 330 451 330 451 348 446 c 2,3,-1
 355 444 l 2,4,5
 362 443 362 443 362 439 c 0,6,7
 362 418 362 418 349.5 405 c 128,-1,8
 337 392 337 392 316 392 c 0,9,10
 277 392 277 392 269 472 c 1,11,12
 256 438 256 438 226 415 c 128,-1,13
 196 392 196 392 162 392 c 0,14,15
 109 392 109 392 78 438.5 c 128,-1,16
 47 485 47 485 47 548 c 128,-1,17
 47 611 47 611 87.5 660.5 c 128,-1,18
 128 710 128 710 188 710 c 0,19,20
 232 710 232 710 264 678 c 1,21,22
 269 710 269 710 297 710 c 0,23,24
 330 710 330 710 330 653 c 0,25,26
 330 644 330 644 318 546 c 1,0,1
266 550 m 1,27,-1
 263 623 l 1,28,29
 233.393888889 655.180555556 233.393888889 655.180555556 193.791280864 655.180555556 c 0,30,31
 147.388626834 655.180555556 147.388626834 655.180555556 119.5 607.5 c 0,32,33
 104 581 104 581 104.5 541.5 c 128,-1,34
 105 502 105 502 122 473.5 c 128,-1,35
 139 445 139 445 167.5 445 c 128,-1,36
 196 445 196 445 224 476 c 128,-1,37
 252 507 252 507 266 550 c 1,27,-1
EndSplineSet
EndChar

StartChar: guillemotleft
Encoding: 171 171 109
Width: 507
Flags: HW
LayerCount: 2
Fore
SplineSet
200.164179104 510.656716418 m 128,-1,1
 210.925373134 510.656716418 210.925373134 510.656716418 216 508.5 c 0,2,3
 236 500 236 500 236 482 c 128,-1,4
 236 464 236 464 227.5 455.5 c 128,-1,5
 219 447 219 447 195 429 c 128,-1,6
 171 411 171 411 166 406 c 0,7,8
 118 362.5 118 362.5 118 349 c 128,-1,9
 118 335.5 118 335.5 166 292 c 0,10,11
 171 287 171 287 195 269 c 128,-1,12
 219 251 219 251 227.5 242.5 c 128,-1,13
 236 234 236 234 236 220.5 c 128,-1,14
 236 207 236 207 227 197 c 0,15,16
 217.366666667 187.366666667 217.366666667 187.366666667 206.6 187.366666667 c 128,-1,17
 195.833333333 187.366666667 195.833333333 187.366666667 185 193 c 1,18,-1
 169 205 l 1,19,20
 137 241 137 241 124 254 c 128,-1,21
 111 267 111 267 66 308 c 1,22,23
 44 330 44 330 44 346.5 c 128,-1,24
 44 363 44 363 52 374 c 128,-1,25
 60 385 60 385 86 408 c 1,26,-1
 123 443 l 2,27,28
 130 449 130 449 147.5 468.5 c 128,-1,29
 165 488 165 488 177.201492537 499.328358209 c 128,-1,0
 189.402985075 510.656716418 189.402985075 510.656716418 200.164179104 510.656716418 c 128,-1,1
409.125 510 m 0,30,31
 445 510 445 510 445 477 c 0,32,33
 445 464 445 464 436.5 455.5 c 128,-1,34
 428 447 428 447 404 429 c 128,-1,35
 380 411 380 411 375 406 c 0,36,37
 327 362.5 327 362.5 327 349 c 128,-1,38
 327 335.5 327 335.5 375 292 c 0,39,40
 380 287 380 287 404 269 c 128,-1,41
 428 251 428 251 436.5 242.5 c 128,-1,42
 445 234 445 234 445 220.5 c 128,-1,43
 445 207 445 207 436 197 c 0,44,45
 426.366666667 187.366666667 426.366666667 187.366666667 415.6 187.366666667 c 128,-1,46
 404.833333333 187.366666667 404.833333333 187.366666667 394 193 c 1,47,-1
 378 205 l 1,48,49
 346 241 346 241 333 254 c 128,-1,50
 320 267 320 267 275 308 c 1,51,52
 253 330 253 330 253 346.5 c 128,-1,53
 253 363 253 363 261 374 c 128,-1,54
 269 385 269 385 295 408 c 1,55,-1
 332 443 l 2,56,57
 340 451 340 451 357.5 470 c 128,-1,58
 375 489 375 489 386.625 499.5 c 128,-1,59
 398.25 510 398.25 510 409.125 510 c 0,30,31
EndSplineSet
EndChar

StartChar: logicalnot
Encoding: 172 172 110
Width: 634
Flags: HMW
HStem: 274 20G<92 119 513 527.5>
LayerCount: 2
Fore
SplineSet
556 251 m 1,0,-1
 554 191 l 1,1,-1
 556 131 l 2,2,3
 556 106 556 106 538.5 95.5 c 0,4,5
 529.75 90.25 529.75 90.25 521 90.25 c 1,6,-1
 503.5 95.5 l 1,7,8
 486 106 486 106 486 131 c 1,9,-1
 489 191 l 1,10,-1
 489 229 l 1,11,12
 385 231 385 231 316 231 c 1,13,-1
 119 228 l 2,14,15
 94 228 94 228 83.5 244.5 c 0,16,17
 78.1219512195 252.951219512 78.1219512195 252.951219512 78.1219512195 261.201219512 c 0,18,19
 78.1219512195 269.451219512 78.1219512195 269.451219512 83 277.5 c 0,20,21
 93 294 93 294 119 294 c 2,22,-1
 316 291 l 1,23,-1
 513 294 l 2,24,25
 556 294 556 294 556 251 c 1,0,-1
EndSplineSet
EndChar

StartChar: uni00AD
Encoding: 173 173 111
Width: 428
Flags: HW
LayerCount: 2
Fore
SplineSet
107 294 m 2,0,-1
 214 291 l 1,1,-1
 321 294 l 2,2,3
 323.564102564 294.205128205 323.564102564 294.205128205 325.975673899 294.205128205 c 0,4,5
 347.076923077 294.205128205 347.076923077 294.205128205 354.413461538 281.977564103 c 0,6,7
 361.75 269.75 361.75 269.75 361.75 261 c 128,-1,8
 361.75 252.25 361.75 252.25 354.413461538 240.022435897 c 0,9,10
 347.076923077 227.794871795 347.076923077 227.794871795 325.975673899 227.794871795 c 0,11,12
 323.564102564 227.794871795 323.564102564 227.794871795 321 228 c 2,13,-1
 214 231 l 1,14,-1
 107 228 l 2,15,16
 104.435897436 227.794871795 104.435897436 227.794871795 102.024326101 227.794871795 c 0,17,18
 80.9230769231 227.794871795 80.9230769231 227.794871795 73.5865384615 240.022435897 c 0,19,20
 66.25 252.25 66.25 252.25 66.25 261 c 128,-1,21
 66.25 269.75 66.25 269.75 73.5865384615 281.977564103 c 0,22,23
 80.9230769231 294.205128205 80.9230769231 294.205128205 102.024326101 294.205128205 c 0,24,25
 104.435897436 294.205128205 104.435897436 294.205128205 107 294 c 2,0,-1
EndSplineSet
EndChar

StartChar: registered
Encoding: 174 174 112
Width: 756
Flags: HMW
HStem: 124 21G<334.5 421.5> 589 171<356.5 383.5>
VStem: 64 237<398 580> 452 240<398 533.5>
LayerCount: 2
Fore
SplineSet
378 760 m 128,-1,1
 508.5 760 508.5 760 600.25 666.5 c 128,-1,2
 692 573 692 573 692 442 c 128,-1,3
 692 311 692 311 600.25 217.5 c 128,-1,4
 508.5 124 508.5 124 378 124 c 128,-1,5
 247.5 124 247.5 124 155.75 217.5 c 128,-1,6
 64 311 64 311 64 442 c 128,-1,7
 64 573 64 573 155.75 666.5 c 128,-1,0
 247.5 760 247.5 760 378 760 c 128,-1,1
377 177 m 128,-1,9
 482 177 482 177 556.5 254.5 c 128,-1,10
 631 332 631 332 631 442 c 128,-1,11
 631 552 631 552 556.5 629.5 c 128,-1,12
 482 707 482 707 376.5 707 c 128,-1,13
 271 707 271 707 197.5 629.5 c 128,-1,14
 124 552 124 552 124 442.5 c 128,-1,15
 124 333 124 333 198 254 c 1,16,8
 272 177 272 177 377 177 c 128,-1,9
242 301 m 2,17,-1
 246 459 l 1,18,-1
 241 596 l 1,19,20
 241 643 241 643 364 643 c 0,21,22
 433 643 433 643 472 608.5 c 128,-1,23
 511 574 511 574 511 526 c 0,24,25
 511 454 511 454 430 416 c 1,26,27
 442 397 442 397 453 376.5 c 128,-1,28
 464 356 464 356 477 340 c 1,29,30
 493 315 493 315 519 315 c 0,31,32
 526 315 526 315 526 310 c 0,33,34
 526 279 526 279 500.5 268 c 0,35,36
 491.451612903 264.096774194 491.451612903 264.096774194 479.322580645 264.096774194 c 0,37,38
 456.302052786 264.096774194 456.302052786 264.096774194 429 307 c 1,39,-1
 403 353 l 2,40,41
 393 372 393 372 374 403 c 1,42,43
 356 400 356 400 337.75 400 c 128,-1,44
 319.5 400 319.5 400 301 403 c 1,45,46
 304 331 304 331 304 308 c 0,47,48
 304 263 304 263 272 263 c 0,49,50
 242 263 242 263 242 301 c 2,17,-1
301 580 m 1,51,-1
 299 527 l 2,52,53
 298 500 298 500 298 463 c 1,54,55
 317.421052632 471.526315789 317.421052632 471.526315789 341.710526316 471.526315789 c 128,-1,56
 366 471.526315789 366 471.526315789 396 461 c 1,57,58
 416 461 416 461 434 480.5 c 128,-1,59
 452 500 452 500 452 525.25 c 128,-1,60
 452 550.5 452 550.5 432 569.75 c 128,-1,61
 412 589 412 589 370.75 589 c 128,-1,62
 329.5 589 329.5 589 301 580 c 1,51,-1
EndSplineSet
EndChar

StartChar: overscore
Encoding: 175 175 113
Width: 436
Flags: HW
LayerCount: 2
Fore
SplineSet
91 703 m 2,0,-1
 218 700 l 1,1,-1
 345 703 l 2,2,3
 347.564102564 703.205128205 347.564102564 703.205128205 349.975673899 703.205128205 c 0,4,5
 371.076923077 703.205128205 371.076923077 703.205128205 378.413461538 690.977564103 c 0,6,7
 385.75 678.75 385.75 678.75 385.75 670 c 128,-1,8
 385.75 661.25 385.75 661.25 378.413461538 649.022435897 c 0,9,10
 371.076923077 636.794871795 371.076923077 636.794871795 349.975673899 636.794871795 c 0,11,12
 347.564102564 636.794871795 347.564102564 636.794871795 345 637 c 2,13,-1
 218 640 l 1,14,-1
 91 637 l 2,15,16
 88.4358974359 636.794871795 88.4358974359 636.794871795 86.0243261012 636.794871795 c 0,17,18
 64.9230769231 636.794871795 64.9230769231 636.794871795 57.5865384615 649.022435897 c 0,19,20
 50.25 661.25 50.25 661.25 50.25 670 c 128,-1,21
 50.25 678.75 50.25 678.75 57.5865384615 690.977564103 c 0,22,23
 64.9230769231 703.205128205 64.9230769231 703.205128205 86.0243261012 703.205128205 c 0,24,25
 88.4358974359 703.205128205 88.4358974359 703.205128205 91 703 c 2,0,-1
EndSplineSet
EndChar

StartChar: degree
Encoding: 176 176 114
Width: 334
Flags: HMW
HStem: 423 21G<149.5 184.5> 695 20G<149.5 184.5>
VStem: 49 236<548.5 589.5>
LayerCount: 2
Fore
SplineSet
167 715 m 128,-1,1
 220 715 220 715 252.5 673 c 128,-1,2
 285 631 285 631 285 569 c 128,-1,3
 285 507 285 507 252.5 465 c 128,-1,4
 220 423 220 423 167 423 c 128,-1,5
 114 423 114 423 81 465 c 1,6,7
 49 508 49 508 49 569 c 128,-1,8
 49 630 49 630 81 673 c 1,9,0
 114 715 114 715 167 715 c 128,-1,1
167.5 478 m 128,-1,11
 195 478 195 478 210 503.25 c 128,-1,12
 225 528.5 225 528.5 225 568.25 c 128,-1,13
 225 608 225 608 210 634 c 128,-1,14
 195 660 195 660 167.5 660 c 128,-1,15
 140 660 140 660 124.5 634 c 128,-1,16
 109 608 109 608 109 569 c 128,-1,17
 109 530 109 530 124.5 504 c 128,-1,10
 140 478 140 478 167.5 478 c 128,-1,11
EndSplineSet
EndChar

StartChar: plusminus
Encoding: 177 177 115
Width: 570
Flags: HMW
HStem: 490 20G<274 290.5>
LayerCount: 2
Fore
SplineSet
285 60 m 1,0,-1
 462 63 l 2,1,2
 464.564102564 63.2051282051 464.564102564 63.2051282051 466.975673899 63.2051282051 c 0,3,4
 488.076923077 63.2051282051 488.076923077 63.2051282051 495.413461538 50.9775641026 c 0,5,6
 502.75 38.75 502.75 38.75 502.75 30 c 128,-1,7
 502.75 21.25 502.75 21.25 495.413461538 9.02243589744 c 0,8,9
 488.076923077 -3.20512820513 488.076923077 -3.20512820513 466.975673899 -3.20512820513 c 0,10,11
 464.564102564 -3.20512820513 464.564102564 -3.20512820513 462 -3 c 2,12,-1
 285 0 l 1,13,-1
 108 -3 l 2,14,15
 105.435897436 -3.20512820513 105.435897436 -3.20512820513 103.024326101 -3.20512820513 c 0,16,17
 81.9230769231 -3.20512820513 81.9230769231 -3.20512820513 74.5865384615 9.02243589744 c 0,18,19
 67.25 21.25 67.25 21.25 67.25 30 c 128,-1,20
 67.25 38.75 67.25 38.75 74.5865384615 50.9775641026 c 0,21,22
 81.9230769231 63.2051282051 81.9230769231 63.2051282051 103.024326101 63.2051282051 c 0,23,24
 105.435897436 63.2051282051 105.435897436 63.2051282051 108 63 c 2,25,-1
 285 60 l 1,0,-1
316 356 m 1,26,-1
 462 359 l 2,27,28
 464.564102564 359.205128205 464.564102564 359.205128205 466.975673899 359.205128205 c 0,29,30
 488.076923077 359.205128205 488.076923077 359.205128205 495.413461538 346.977564103 c 0,31,32
 502.75 334.75 502.75 334.75 502.75 326 c 128,-1,33
 502.75 317.25 502.75 317.25 495.413461538 305.022435897 c 0,34,35
 488.076923077 292.794871795 488.076923077 292.794871795 466.975673899 292.794871795 c 0,36,37
 464.564102564 292.794871795 464.564102564 292.794871795 438.282051282 292.897435897 c 0,38,39
 412 293 412 293 316 296 c 1,40,-1
 320 169 l 2,41,42
 320 150 320 150 310.5 139 c 128,-1,43
 301 128 301 128 285 128 c 0,44,45
 252 128 252 128 252 169 c 0,46,47
 252 185 252 185 256 296 c 1,48,49
 154 293 154 293 122 293 c 128,-1,50
 90 293 90 293 77.9833333333 302.566666667 c 0,51,52
 65.9666666667 312.133333333 65.9666666667 312.133333333 65.9666666667 321.558333333 c 0,53,54
 65.9666666667 330.983333333 65.9666666667 330.983333333 70 338.5 c 0,55,56
 81 359 81 359 108 359 c 2,57,-1
 256 356 l 1,58,59
 252 452 252 452 252 469 c 0,60,61
 252 510 252 510 285 510 c 0,62,63
 301 510 301 510 310.5 499.5 c 0,64,65
 320 489 320 489 320 470.5 c 0,66,67
 320 452 320 452 316 356 c 1,26,-1
EndSplineSet
EndChar

StartChar: twosuperior
Encoding: 178 178 116
Width: 374
Flags: HMW
HStem: 334 21G<78.5 89 284 298> 745 20G<167.5 220.5>
VStem: 62 238<679 690 646 697.5>
LayerCount: 2
Fore
SplineSet
130 393 m 1,0,-1
 181 393 l 1,1,-1
 284 398 l 1,2,3
 326 398 326 398 326 366 c 128,-1,4
 326 334 326 334 284 334 c 1,5,-1
 182 338 l 1,6,7
 151 337 151 337 89 334 c 0,8,9
 73 334 73 334 61 344 c 128,-1,10
 49 354 49 354 49 375 c 128,-1,11
 49 396 49 396 78 430 c 1,12,13
 235 605 235 605 235 656 c 1,14,15
 237 677 237 677 221.5 691.53125 c 128,-1,16
 206 706.0625 206 706.0625 181.771484375 706.0625 c 0,17,18
 153.159090909 706.0625 153.159090909 706.0625 130.579545455 684.53125 c 128,-1,19
 108 663 108 663 92 661 c 128,-1,20
 76 659 76 659 69 668.5 c 128,-1,21
 62 678 62 678 62 690 c 0,22,23
 62 712 62 712 97 738.5 c 128,-1,24
 132 765 132 765 184 765 c 128,-1,25
 236 765 236 765 268 735 c 128,-1,26
 300 705 300 705 300 669 c 128,-1,27
 300 633 300 633 277 590 c 1,28,29
 268 568 268 568 256 554 c 0,30,31
 225.538461538 518.461538462 225.538461538 518.461538462 209 492 c 1,32,-1
 168 442 l 2,33,34
 148 418 148 418 130 393 c 1,0,-1
EndSplineSet
EndChar

StartChar: threesuperior
Encoding: 179 179 117
Width: 370
Flags: HMW
HStem: 334 21G<160 198.5> 745 20G<83 95 249 267>
VStem: 82 242<454.5 575.5>
LayerCount: 2
Fore
SplineSet
95 765 m 2,0,-1
 176 763 l 1,1,-1
 249 765 l 1,2,3
 303 765 303 765 303 728 c 0,4,5
 303 717 303 717 295 706.5 c 128,-1,6
 287 696 287 696 255 662.5 c 128,-1,7
 223 629 223 629 207 609 c 1,8,9
 262 597 262 597 293 560.5 c 128,-1,10
 324 524 324 524 324 472 c 128,-1,11
 324 420 324 420 284 377 c 128,-1,12
 244 334 244 334 176 334 c 0,13,14
 128 334 128 334 88 364 c 128,-1,15
 48 394 48 394 48 419.5 c 128,-1,16
 48 445 48 445 72 445 c 0,17,18
 84 445 84 445 97 432 c 0,19,20
 137.267489712 393.851851852 137.267489712 393.851851852 178.874485597 393.851851852 c 128,-1,21
 220.481481481 393.851851852 220.481481481 393.851851852 239 417 c 1,22,23
 261 439 261 439 261 476 c 128,-1,24
 261 513 261 513 235.5 538 c 128,-1,25
 210 563 210 563 173 565 c 1,26,27
 142 532 142 532 118 532 c 0,28,29
 82 532 82 532 82 566 c 0,30,31
 82 581 82 581 97.5 594 c 128,-1,32
 113 607 113 607 142 613 c 1,33,34
 200 675 200 675 225 704 c 1,35,36
 180 707 180 707 166 707 c 2,37,-1
 95 704 l 1,38,39
 56 704 56 704 56 733 c 0,40,41
 56 747 56 747 66.5 756 c 128,-1,42
 77 765 77 765 95 765 c 2,0,-1
EndSplineSet
EndChar

StartChar: acute
Encoding: 180 180 118
Width: 285
Flags: HMW
HStem: 740 20G<167 191>
LayerCount: 2
Fore
SplineSet
215 722 m 0,0,1
 215 679 215 679 169.039986751 635.687987413 c 128,-1,2
 123.079973502 592.375974827 123.079973502 592.375974827 96.5399867508 592.375974827 c 128,-1,3
 70 592.375974827 70 592.375974827 70 614 c 0,4,5
 70 627 70 627 81 638.5 c 128,-1,6
 92 650 92 650 109 671 c 1,7,8
 117 683 117 683 128 708.5 c 128,-1,9
 139 734 139 734 150.5 747 c 128,-1,10
 162 760 162 760 179 760 c 128,-1,11
 196 760 196 760 205.5 749 c 128,-1,12
 215 738 215 738 215 722 c 0,0,1
EndSplineSet
EndChar

StartChar: mu
Encoding: 181 181 119
Width: 611
Flags: HMW
HStem: -10 21G<488 525.5> 489 20G<113.5 142.5> 490 20G<461.5 489.5>
VStem: 83 81 437 83 437 130
LayerCount: 2
Fore
SplineSet
372 30 m 1,0,1
 329.047619048 -10.0238095238 329.047619048 -10.0238095238 271.035714286 -10.0238095238 c 128,-1,2
 213.023809524 -10.0238095238 213.023809524 -10.0238095238 163 40 c 1,3,-1
 170 -179 l 2,4,5
 170.375 -182.875 170.375 -182.875 170.375 -186.4765625 c 0,6,7
 170.375 -211.6875 170.375 -211.6875 155.9375 -220.96875 c 128,-1,8
 141.5 -230.25 141.5 -230.25 131 -230.25 c 1,9,-1
 110 -223.5 l 1,10,11
 91.625 -211.6875 91.625 -211.6875 91.625 -186.4765625 c 0,12,13
 91.625 -182.875 91.625 -182.875 92 -179 c 2,14,-1
 98 170 l 1,15,16
 83 375.5 83 375.5 83 434 c 0,17,18
 83 509 83 509 129 509 c 0,19,20
 169 509 169 509 169 448 c 0,21,22
 169 428 169 428 166.5 385.5 c 128,-1,23
 164 343 164 343 164 189 c 0,24,25
 164 129 164 129 194 92.5 c 128,-1,26
 224 56 224 56 274 56 c 128,-1,27
 324 56 324 56 371.5 112.5 c 128,-1,28
 419 169 419 169 439 242 c 1,29,-1
 436 459 l 2,30,31
 436 510 436 510 474 510 c 0,32,33
 520 510 520 510 520 441.5 c 128,-1,34
 520 373 520 373 500 242 c 1,35,36
 500 169 500 169 510.5 120.5 c 128,-1,37
 521 72 521 72 537 66 c 0,38,39
 543 63 543 63 551.5 62 c 128,-1,40
 560 61 560 61 563.5 59 c 128,-1,41
 567 57 567 57 567 51 c 0,42,43
 567 24 567 24 550.5 7 c 128,-1,44
 534 -10 534 -10 509 -10 c 0,45,46
 446 -10 446 -10 446 118 c 1,47,48
 417 69 417 69 372 30 c 1,0,1
EndSplineSet
EndChar

StartChar: paragraph
Encoding: 182 182 120
Width: 628
Flags: HMW
HStem: -250 20G<281 307> 740 20G<290 290 478 492.5>
LayerCount: 2
Fore
SplineSet
526 709 m 2,0,-1
 521 265 l 1,1,2
 521 85 521 85 524 -41 c 128,-1,3
 527 -167 527 -167 527 -184.5 c 0,4,5
 527 -202 527 -202 516.5 -216 c 0,6,7
 506 -230 506 -230 488 -230 c 128,-1,8
 470 -230 470 -230 459.5 -216.5 c 0,9,10
 449 -203 449 -203 449 -174.5 c 0,11,12
 449 -146 449 -146 452 -20 c 0,13,14
 455 106 455 106 455 265 c 1,15,-1
 450 695 l 1,16,17
 420.5 697 420.5 697 391 697 c 2,18,-1
 332 695 l 1,19,20
 327 383 327 383 327 255.5 c 0,21,22
 327 128 327 128 330 -18.5 c 0,23,24
 333 -165 333 -165 333 -179 c 0,25,26
 333 -230 333 -230 294 -230 c 128,-1,27
 255 -230 255 -230 255 -179 c 0,28,29
 255 -146 255 -146 258 -20 c 0,30,31
 261 106 261 106 261 265 c 2,32,-1
 261 328 l 1,33,34
 165 333 165 333 104.5 390.5 c 0,35,36
 44 448 44 448 44 533 c 0,37,38
 44 638 44 638 109.5 698 c 128,-1,39
 175 758 175 758 290 760 c 1,40,-1
 391 757 l 1,41,-1
 478 760 l 2,42,43
 500 760 500 760 513 746 c 128,-1,44
 526 732 526 732 526 709 c 2,0,-1
EndSplineSet
EndChar

StartChar: middot
Encoding: 183 183 121
Width: 222
Flags: HMW
HStem: 198 117<100 122>
VStem: 64 94<244.5 269>
LayerCount: 2
Fore
SplineSet
114 315 m 128,-1,1
 135 315 135 315 146.5 300 c 128,-1,2
 158 285 158 285 158 260.5 c 0,3,4
 158 236 158 236 143 217 c 128,-1,5
 128 198 128 198 108 198 c 128,-1,6
 88 198 88 198 76 213.5 c 128,-1,7
 64 229 64 229 64 253 c 128,-1,8
 64 277 64 277 78.5 296 c 128,-1,0
 93 315 93 315 114 315 c 128,-1,1
EndSplineSet
EndChar

StartChar: cedilla
Encoding: 184 184 122
Width: 331
Flags: HMW
HStem: -230 21G<119.5 184.5> -8 20G<102 166 166 166>
VStem: 43 228<-163.5 -155.5>
LayerCount: 2
Fore
SplineSet
166 -10 m 2,0,1
 166 -40 166 -40 218.5 -68.5 c 128,-1,2
 271 -97 271 -97 271 -136.5 c 128,-1,3
 271 -176 271 -176 236 -203 c 128,-1,4
 201 -230 201 -230 153.5 -230 c 128,-1,5
 106 -230 106 -230 74.5 -208 c 128,-1,6
 43 -186 43 -186 43 -160 c 0,7,8
 43 -153 43 -153 48 -147 c 128,-1,9
 53 -141 53 -141 61.5 -141 c 128,-1,10
 70 -141 70 -141 96.6304347826 -153.793478261 c 128,-1,11
 123.260869565 -166.586956522 123.260869565 -166.586956522 144.641304348 -166.586956522 c 128,-1,12
 166.02173913 -166.586956522 166.02173913 -166.586956522 182.387792642 -156.970401338 c 128,-1,13
 198.753846154 -147.353846154 198.753846154 -147.353846154 198.753846154 -136.076923077 c 128,-1,14
 198.753846154 -124.8 198.753846154 -124.8 183 -112 c 0,15,16
 182 -112 182 -112 153.5 -94.5 c 128,-1,17
 125 -77 125 -77 113.5 -62 c 128,-1,18
 102 -47 102 -47 102 -26 c 2,19,-1
 102 12 l 1,20,-1
 166 12 l 1,21,-1
 166 -10 l 2,0,1
EndSplineSet
EndChar

StartChar: onesuperior
Encoding: 185 185 123
Width: 297
Flags: HMW
HStem: 745 20G<181.5 205>
LayerCount: 2
Fore
SplineSet
229 714 m 2,0,-1
 226 550 l 1,1,-1
 229 378 l 2,2,3
 229 353 229 353 212.5 343 c 0,4,5
 204.25 338 204.25 338 196.125 338 c 128,-1,6
 188 338 188 338 180 343 c 0,7,8
 164 353 164 353 164 378 c 0,9,10
 165 435 165 435 167 550 c 1,11,-1
 167 670 l 1,12,-1
 136 635 l 1,13,-1
 113 606 l 2,14,15
 77 559 77 559 57 559 c 0,16,17
 26 559 26 559 26 589 c 0,18,19
 26 606 26 606 59 639 c 1,20,21
 92 670 92 670 123 707.5 c 0,22,23
 154 745 154 745 165.5 755 c 128,-1,24
 177 765 177 765 193 765 c 0,25,26
 229 765 229 765 229 714 c 2,0,-1
EndSplineSet
EndChar

StartChar: ordmasculine
Encoding: 186 186 124
Width: 358
Flags: HMW
HStem: 393 21G<140.5 217.5> 695 20G<140.5 217.5>
LayerCount: 2
Fore
SplineSet
179 715 m 128,-1,1
 236 715 236 715 273 669 c 128,-1,2
 310 623 310 623 310 553 c 128,-1,3
 310 483 310 483 273.5 438 c 128,-1,4
 237 393 237 393 179 393 c 128,-1,5
 121 393 121 393 84.5 438 c 128,-1,6
 48 483 48 483 48 553 c 128,-1,7
 48 623 48 623 85 669 c 128,-1,0
 122 715 122 715 179 715 c 128,-1,1
179 448 m 128,-1,9
 212 448 212 448 231 476.5 c 128,-1,10
 250 505 250 505 250 553 c 128,-1,11
 250 601 250 601 231 630.5 c 128,-1,12
 212 660 212 660 179 660 c 128,-1,13
 146 660 146 660 127 630.5 c 128,-1,14
 108 601 108 601 108 552.5 c 0,15,16
 108 504 108 504 127 476 c 128,-1,8
 146 448 146 448 179 448 c 128,-1,9
EndSplineSet
EndChar

StartChar: guillemotright
Encoding: 187 187 125
Width: 506
Flags: HW
LayerCount: 2
Fore
SplineSet
306.1875 188 m 0,0,1
 271 188 271 188 271 220 c 0,2,3
 271 233.5 271 233.5 279 242.25 c 128,-1,4
 287 251 287 251 311 269 c 128,-1,5
 335 287 335 287 341 292 c 0,6,7
 389 335.5 389 335.5 389 349 c 128,-1,8
 389 362.5 389 362.5 341 406 c 0,9,10
 335 411 335 411 311 429 c 128,-1,11
 287 447 287 447 279 455.5 c 128,-1,12
 271 464 271 464 271 477.5 c 128,-1,13
 271 491 271 491 280.529411765 500.808823529 c 128,-1,14
 290.058823529 510.617647059 290.058823529 510.617647059 300.455882353 510.617647059 c 128,-1,15
 310.852941176 510.617647059 310.852941176 510.617647059 321 504 c 1,16,17
 331 500 331 500 334.5 495.5 c 128,-1,18
 338 491 338 491 363 464.5 c 128,-1,19
 388 438 388 438 411 417 c 128,-1,20
 434 396 434 396 440 390 c 0,21,22
 463 369 463 369 463 352 c 128,-1,23
 463 335 463 335 455 324 c 128,-1,24
 447 313 447 313 421 289 c 2,25,-1
 384 255 l 2,26,27
 376 247 376 247 358.5 228 c 128,-1,28
 341 209 341 209 329 198.5 c 128,-1,29
 317 188 317 188 306.1875 188 c 0,0,1
98.0153846154 188.276923077 m 128,-1,31
 87.2307692308 188.276923077 87.2307692308 188.276923077 82 190.5 c 0,32,33
 62 199 62 199 62 216.25 c 128,-1,34
 62 233.5 62 233.5 70 242.25 c 128,-1,35
 78 251 78 251 102 269 c 128,-1,36
 126 287 126 287 132 292 c 0,37,38
 180 335.5 180 335.5 180 349 c 128,-1,39
 180 362.5 180 362.5 132 406 c 0,40,41
 126 411 126 411 102 429 c 128,-1,42
 78 447 78 447 70 455.5 c 128,-1,43
 62 464 62 464 62 477.5 c 128,-1,44
 62 491 62 491 71.5294117647 500.808823529 c 128,-1,45
 81.0588235294 510.617647059 81.0588235294 510.617647059 91.4558823529 510.617647059 c 128,-1,46
 101.852941176 510.617647059 101.852941176 510.617647059 112 504 c 1,47,48
 122 500 122 500 125.5 495.5 c 128,-1,49
 129 491 129 491 154 464.5 c 128,-1,50
 179 438 179 438 202 417 c 128,-1,51
 225 396 225 396 231 390 c 0,52,53
 254 369 254 369 254 352 c 128,-1,54
 254 335 254 335 246 324 c 128,-1,55
 238 313 238 313 212 289 c 2,56,-1
 175 255 l 2,57,58
 168 248 168 248 150.5 229 c 128,-1,59
 133 210 133 210 120.9 199.138461538 c 128,-1,30
 108.8 188.276923077 108.8 188.276923077 98.0153846154 188.276923077 c 128,-1,31
EndSplineSet
EndChar

StartChar: onequarter
Encoding: 188 188 126
Width: 844
Flags: HMW
HStem: -10 21G<696 716.5> 745 20G<196.5 220> 746 20G<524.5 535>
LayerCount: 2
Fore
SplineSet
244 714 m 2,0,-1
 241 550 l 1,1,-1
 244 378 l 2,2,3
 244 353 244 353 228 343 c 0,4,5
 220 338 220 338 211.875 338 c 128,-1,6
 203.75 338 203.75 338 195.5 343 c 0,7,8
 179 353 179 353 179 378 c 0,9,10
 180 435 180 435 182 550 c 1,11,-1
 182 670 l 1,12,-1
 151 635 l 1,13,-1
 128 606 l 2,14,15
 92 559 92 559 72 559 c 0,16,17
 41 559 41 559 41 589 c 0,18,19
 41 606 41 606 74 639 c 1,20,21
 107 670 107 670 138 707.5 c 128,-1,22
 169 745 169 745 180.5 755 c 128,-1,23
 192 765 192 765 208 765 c 0,24,25
 244 765 244 765 244 714 c 2,0,-1
498 547 m 1,26,27
 449 430 449 430 404 295 c 128,-1,28
 359 160 359 160 322 48 c 0,29,30
 308 7 308 7 296.934782609 -3.5652173913 c 128,-1,31
 285.869565217 -14.1304347826 285.869565217 -14.1304347826 276.304347826 -14.1304347826 c 0,32,33
 240 -14.1304347826 240 -14.1304347826 240 19 c 0,34,35
 240 37 240 37 255 78 c 1,36,-1
 306 205 l 2,37,38
 342 295 342 295 379.5 403 c 128,-1,39
 417 511 417 511 424 534 c 2,40,-1
 490 724 l 1,41,42
 503.5 766 503.5 766 535 766 c 1,43,44
 549 763 549 763 556.529411765 758.159663866 c 128,-1,45
 564.058823529 753.319327731 564.058823529 753.319327731 564.058823529 731.071428571 c 128,-1,46
 564.058823529 708.823529412 564.058823529 708.823529412 549 674 c 2,47,-1
 498 547 l 1,26,27
734 182 m 1,48,-1
 772 184 l 2,49,50
 781 184 781 184 789.5 175.5 c 128,-1,51
 798.048780488 166.951219512 798.048780488 166.951219512 798.048780488 153.292682927 c 128,-1,52
 798.048780488 139.634146341 798.048780488 139.634146341 782.924390244 133.817073171 c 128,-1,53
 767.8 128 767.8 128 756.1 128 c 128,-1,54
 744.4 128 744.4 128 734 130 c 1,55,-1
 737 33 l 1,56,57
 737 -10 737 -10 706.5 -10 c 128,-1,58
 676 -10 676 -10 676 33 c 1,59,-1
 679 132 l 1,60,-1
 640 133 l 1,61,-1
 509 130 l 2,62,63
 476 130 476 130 476 161 c 0,64,65
 476 176 476 176 496 205 c 128,-1,66
 516 234 516 234 562 294 c 2,67,-1
 637 391 l 2,68,69
 669 432 669 432 691 432 c 128,-1,70
 713 432 713 432 725 416 c 128,-1,71
 737 400 737 400 737 375 c 2,72,-1
 734 182 l 1,48,-1
547 182 m 1,73,-1
 678 182 l 1,74,75
 679 208 679 208 679 278 c 2,76,-1
 678 356 l 1,77,78
 658 334 658 334 547 182 c 1,73,-1
EndSplineSet
EndChar

StartChar: onehalf
Encoding: 189 189 127
Width: 854
Flags: HMW
HStem: -3 21G<555.5 566 761 775> 745 20G<196.5 220> 746 20G<524.5 535>
VStem: 539 238<342 353 309 360.5>
LayerCount: 2
Fore
SplineSet
244 714 m 2,0,-1
 241 550 l 1,1,-1
 244 378 l 2,2,3
 244 353 244 353 228 343 c 0,4,5
 220 338 220 338 211.875 338 c 128,-1,6
 203.75 338 203.75 338 195.5 343 c 0,7,8
 179 353 179 353 179 378 c 0,9,10
 180 435 180 435 182 550 c 1,11,-1
 182 670 l 1,12,-1
 151 635 l 1,13,-1
 128 606 l 2,14,15
 92 559 92 559 72 559 c 0,16,17
 41 559 41 559 41 589 c 0,18,19
 41 606 41 606 74 639 c 1,20,21
 107 670 107 670 138 707.5 c 128,-1,22
 169 745 169 745 180.5 755 c 128,-1,23
 192 765 192 765 208 765 c 0,24,25
 244 765 244 765 244 714 c 2,0,-1
607 56 m 1,26,-1
 658 56 l 1,27,-1
 761 61 l 1,28,29
 803 61 803 61 803 29 c 128,-1,30
 803 -3 803 -3 761 -3 c 1,31,-1
 659 1 l 1,32,-1
 566 -3 l 2,33,34
 550 -3 550 -3 538 7 c 128,-1,35
 526 17 526 17 526 32 c 0,36,37
 526 61 526 61 555 92 c 1,38,39
 712 268 712 268 712 319 c 1,40,41
 714 340 714 340 698.5 354.53125 c 128,-1,42
 683 369.0625 683 369.0625 658.771484375 369.0625 c 0,43,44
 630.159090909 369.0625 630.159090909 369.0625 607.579545455 347.53125 c 128,-1,45
 585 326 585 326 569 324 c 128,-1,46
 553 322 553 322 546 331.5 c 128,-1,47
 539 341 539 341 539 353 c 0,48,49
 539 375 539 375 573.5 401.5 c 128,-1,50
 608 428 608 428 660.5 428 c 128,-1,51
 713 428 713 428 745 398 c 128,-1,52
 777 368 777 368 777 332 c 128,-1,53
 777 296 777 296 754 253 c 1,54,55
 745 231 745 231 733 217 c 0,56,57
 702.538461538 181.461538462 702.538461538 181.461538462 686 155 c 1,58,-1
 645 105 l 2,59,60
 625 81 625 81 607 56 c 1,26,-1
498 547 m 1,61,62
 449 430 449 430 404 295 c 128,-1,63
 359 160 359 160 322 48 c 0,64,65
 308 7 308 7 296.934782609 -3.5652173913 c 128,-1,66
 285.869565217 -14.1304347826 285.869565217 -14.1304347826 276.304347826 -14.1304347826 c 0,67,68
 240 -14.1304347826 240 -14.1304347826 240 19 c 0,69,70
 240 37 240 37 255 78 c 1,71,-1
 306 205 l 2,72,73
 342 295 342 295 379.5 403 c 128,-1,74
 417 511 417 511 424 534 c 2,75,-1
 490 724 l 1,76,77
 503.5 766 503.5 766 535 766 c 1,78,79
 549 763 549 763 556.529411765 758.159663866 c 128,-1,80
 564.058823529 753.319327731 564.058823529 753.319327731 564.058823529 731.071428571 c 128,-1,81
 564.058823529 708.823529412 564.058823529 708.823529412 549 674 c 2,82,-1
 498 547 l 1,61,62
EndSplineSet
EndChar

StartChar: threequarters
Encoding: 190 190 128
Width: 894
Flags: HMW
HStem: -10 21G<748 768.5> 745 20G<89 101 255 273> 746 20G<576.5 587>
VStem: 88 242<454.5 575.5>
LayerCount: 2
Fore
SplineSet
550 547 m 1,0,1
 501 430 501 430 456 295 c 128,-1,2
 411 160 411 160 374 48 c 0,3,4
 360 7 360 7 348.934782609 -3.5652173913 c 128,-1,5
 337.869565217 -14.1304347826 337.869565217 -14.1304347826 328.304347826 -14.1304347826 c 0,6,7
 292 -14.1304347826 292 -14.1304347826 292 19 c 0,8,9
 292 37 292 37 307 78 c 1,10,-1
 358 205 l 2,11,12
 394 295 394 295 431.5 403 c 128,-1,13
 469 511 469 511 476 534 c 2,14,-1
 542 724 l 1,15,16
 555.5 766 555.5 766 587 766 c 1,17,18
 601 763 601 763 608.529411765 758.159663866 c 128,-1,19
 616.058823529 753.319327731 616.058823529 753.319327731 616.058823529 731.071428571 c 128,-1,20
 616.058823529 708.823529412 616.058823529 708.823529412 601 674 c 2,21,-1
 550 547 l 1,0,1
786 182 m 1,22,-1
 824 184 l 2,23,24
 833 184 833 184 841.5 175.5 c 128,-1,25
 850.048780488 166.951219512 850.048780488 166.951219512 850.048780488 153.292682927 c 128,-1,26
 850.048780488 139.634146341 850.048780488 139.634146341 834.924390244 133.817073171 c 128,-1,27
 819.8 128 819.8 128 808.1 128 c 128,-1,28
 796.4 128 796.4 128 786 130 c 1,29,-1
 789 33 l 1,30,31
 789 -10 789 -10 758.5 -10 c 128,-1,32
 728 -10 728 -10 728 33 c 1,33,-1
 731 132 l 1,34,-1
 692 133 l 1,35,-1
 561 130 l 2,36,37
 528 130 528 130 528 161 c 0,38,39
 528 176 528 176 548 205 c 128,-1,40
 568 234 568 234 614 294 c 2,41,-1
 689 391 l 2,42,43
 721 432 721 432 743 432 c 128,-1,44
 765 432 765 432 777 416 c 128,-1,45
 789 400 789 400 789 375 c 2,46,-1
 786 182 l 1,22,-1
599 182 m 1,47,-1
 730 182 l 1,48,49
 731 208 731 208 731 278 c 2,50,-1
 730 356 l 1,51,52
 710 334 710 334 599 182 c 1,47,-1
101 765 m 2,53,-1
 182 763 l 1,54,-1
 255 765 l 1,55,56
 309 765 309 765 309 728 c 0,57,58
 309 717 309 717 301 706.5 c 128,-1,59
 293 696 293 696 261 662.5 c 128,-1,60
 229 629 229 629 213 609 c 1,61,62
 268 597 268 597 299 560.5 c 128,-1,63
 330 524 330 524 330 472 c 128,-1,64
 330 420 330 420 290 377 c 128,-1,65
 250 334 250 334 182 334 c 0,66,67
 134 334 134 334 94 364 c 128,-1,68
 54 394 54 394 54 419.5 c 128,-1,69
 54 445 54 445 78 445 c 0,70,71
 90 445 90 445 103 432 c 0,72,73
 143.267489712 393.851851852 143.267489712 393.851851852 184.874485597 393.851851852 c 128,-1,74
 226.481481481 393.851851852 226.481481481 393.851851852 245 417 c 1,75,76
 267 439 267 439 267 476 c 128,-1,77
 267 513 267 513 241.5 538 c 128,-1,78
 216 563 216 563 179 565 c 1,79,80
 148 532 148 532 124 532 c 0,81,82
 88 532 88 532 88 566 c 0,83,84
 88 581 88 581 103.5 594 c 128,-1,85
 119 607 119 607 148 613 c 1,86,87
 206 675 206 675 231 704 c 1,88,89
 186 707 186 707 172 707 c 2,90,-1
 101 704 l 1,91,92
 62 704 62 704 62 733 c 0,93,94
 62 747 62 747 72.5 756 c 128,-1,95
 83 765 83 765 101 765 c 2,53,-1
EndSplineSet
EndChar

StartChar: questiondown
Encoding: 191 191 129
Width: 443
Flags: HMW
HStem: -230 21G<205.5 254> 430 115<248.5 269>
LayerCount: 2
Fore
SplineSet
295 271 m 0,0,1
 295 196 295 196 233 128 c 0,2,3
 216 109 216 109 181 74 c 1,4,5
 119 9 119 9 119 -45 c 0,6,7
 119 -99 119 -99 153 -132.5 c 0,8,9
 187 -166 187 -166 224 -166 c 0,10,11
 290 -166 290 -166 319.5 -128 c 0,12,13
 349 -90 349 -90 365 -90 c 128,-1,14
 381 -90 381 -90 390 -99 c 128,-1,15
 399 -108 399 -108 399 -122 c 0,16,17
 399 -157 399 -157 347 -193 c 1,18,19
 297 -230 297 -230 233 -230 c 0,20,21
 150 -230 150 -230 98.5 -178.5 c 0,22,23
 47 -127 47 -127 47 -49 c 0,24,25
 47 29 47 29 109 94 c 0,26,27
 126 113 126 113 161 148 c 0,28,29
 223 210 223 210 223 268.5 c 0,30,31
 223 327 223 327 258 327 c 0,32,33
 295 327 295 327 295 271 c 0,0,1
262 545 m 128,-1,35
 282 545 282 545 293.5 529.5 c 128,-1,36
 305 514 305 514 305 490.5 c 0,37,38
 305 467 305 467 290 448.5 c 128,-1,39
 275 430 275 430 255 430 c 128,-1,40
 235 430 235 430 224 444.5 c 128,-1,41
 213 459 213 459 213 483 c 128,-1,42
 213 507 213 507 227.5 526 c 128,-1,34
 242 545 242 545 262 545 c 128,-1,35
EndSplineSet
EndChar

StartChar: Agrave
Encoding: 192 192 130
Width: 642
Flags: HMW
HStem: -10 21G<62 80.5 560.5 580.5>
LayerCount: 2
Fore
SplineSet
510 318 m 1,0,-1
 554 319 l 2,1,2
 576 319 576 319 590 308 c 128,-1,3
 604 297 604 297 604 280 c 0,4,5
 604 242 604 242 534 242 c 1,6,-1
 557 170 l 2,7,8
 567 141 567 141 585.5 90 c 128,-1,9
 604 39 604 39 604 25 c 128,-1,10
 604 11 604 11 594.5 0.5 c 128,-1,11
 585 -10 585 -10 570 -10 c 0,12,13
 541 -10 541 -10 526 25 c 1,14,15
 511 66 511 66 492 129.5 c 128,-1,16
 473 193 473 193 456 246 c 1,17,18
 336 249 336 249 289 249 c 128,-1,19
 242 249 242 249 177 246 c 1,20,21
 115.5 37.5 115.5 37.5 111 27 c 0,22,23
 98 -10 98 -10 72 -10 c 0,24,25
 57 -10 57 -10 48 -0.5 c 128,-1,26
 39 9 39 9 39 24 c 0,27,28
 39 46 39 46 66.75 127 c 128,-1,29
 94.5 208 94.5 208 105 244 c 1,30,-1
 87 244 l 2,31,32
 39 244 39 244 39 281 c 128,-1,33
 39 318 39 318 87 318 c 0,34,35
 116 318 116 318 128 317 c 1,36,-1
 259 700 l 2,37,38
 280 760 280 760 317 760 c 0,39,40
 342 760 342 760 355.5 745.5 c 128,-1,41
 369 731 369 731 379 706 c 128,-1,42
 389 681 389 681 430 555.5 c 128,-1,43
 471 430 471 430 510 318 c 1,0,-1
226 398 m 2,44,-1
 199 315 l 1,45,46
 260 311.5 260 311.5 318.75 311.5 c 128,-1,47
 377.5 311.5 377.5 311.5 434 315 c 1,48,49
 331 646 331 646 318.5 646 c 128,-1,50
 306 646 306 646 226 398 c 2,44,-1
374 824 m 0,51,52
 374 803 374 803 347 803 c 128,-1,53
 320 803 320 803 274 846 c 1,54,55
 229 890 229 890 229 932 c 0,56,57
 228.448275862 935.310344828 228.448275862 935.310344828 228.448275862 938.363852556 c 0,58,59
 228.448275862 957.448275862 228.448275862 957.448275862 250 966.5 c 0,60,61
 258.333333333 970 258.333333333 970 269.833333333 970 c 0,62,63
 292.857142857 970 292.857142857 970 316 916 c 1,64,65
 331 884 331 884 352.5 860 c 128,-1,66
 374 836 374 836 374 824 c 0,51,52
EndSplineSet
EndChar

StartChar: AE
Encoding: 198 198 131
Width: 995
Flags: HMW
HStem: -41 21G<91 174.5> -5 21G<618 644.5 922.5 949> 0 21G<749 815> 735 20G<453.5 499 798 838>
LayerCount: 2
Fore
SplineSet
782 0 m 1,0,-1
 633 -5 l 1,1,2
 585 -5 585 -5 578 38 c 0,3,4
 565 112 565 112 544 250 c 1,5,6
 490 259 490 259 437.5 259 c 128,-1,7
 385 259 385 259 337 249 c 1,8,9
 272.741536123 86.9152179812 272.741536123 86.9152179812 240.993057198 37.4634161302 c 0,10,11
 190.618874253 -41 190.618874253 -41 125 -41 c 0,12,13
 77 -41 77 -41 51 -9 c 128,-1,14
 25 23 25 23 25 67 c 0,15,16
 25 136 25 136 94.5 206.5 c 128,-1,17
 164 277 164 277 277 302 c 1,18,19
 288 331 288 331 412 695 c 0,20,21
 433 755 433 755 471 755 c 2,22,-1
 683 750 l 1,23,-1
 823 755 l 1,24,25
 873 755 873 755 873 717 c 128,-1,26
 873 679 873 679 823 679 c 1,27,-1
 683 684 l 1,28,29
 577 684 577 684 543 680 c 1,30,31
 563 554 563 554 583 440 c 1,32,33
 627 438 627 438 656 438 c 2,34,35
 826 443 l 2,36,37
 849 443 849 443 862.5 432.5 c 128,-1,38
 876 422 876 422 876 404 c 0,39,40
 876 367 876 367 826 367 c 1,41,-1
 656 372 l 2,42,43
 632 372 632 372 596 370 c 1,44,45
 647 95 647 95 654 70 c 1,46,47
 718 66 718 66 782 66 c 1,48,-1
 934 71 l 1,49,50
 984 71 984 71 984 33 c 128,-1,51
 984 -5 984 -5 934 -5 c 1,52,-1
 782 0 l 1,0,-1
451 322 m 1,53,54
 494 322 494 322 537 313 c 1,55,56
 499 553 499 553 473 646 c 1,57,58
 460.674698795 646 460.674698795 646 380 398 c 0,59,60
 353.964285714 317.964285714 353.964285714 317.964285714 353.964285714 316.035714286 c 1,61,-1
 451 322 l 1,53,54
259 233 m 1,62,63
 189 210 189 210 139.5 161 c 128,-1,64
 90 112 90 112 90 69 c 0,65,66
 90 48 90 48 100.5 36.5 c 128,-1,67
 111 25 111 25 128 25 c 0,68,69
 183 25 183 25 259 233 c 1,62,63
EndSplineSet
EndChar

StartChar: Eth
Encoding: 208 208 132
Width: 728
Flags: HMW
HStem: -15 21G<264 357.5> 740 20G<268.5 351.5>
VStem: 77 129
LayerCount: 2
Fore
SplineSet
134 340 m 1,0,-1
 42 338 l 2,1,2
 29 338 29 338 18 347.5 c 128,-1,3
 7 357 7 357 7 371.5 c 128,-1,4
 7 386 7 386 18 395 c 0,5,6
 30 404 30 404 50.5 404 c 128,-1,7
 71 404 71 404 134 401 c 1,8,-1
 129 654 l 1,9,10
 81 654 81 654 81 692 c 0,11,12
 81 726.5 81 726.5 148 743.25 c 128,-1,13
 215 760 215 760 296.5 760 c 128,-1,14
 378 760 378 760 453 726.5 c 128,-1,15
 528 693 528 693 576 636 c 0,16,17
 672 521 672 521 672 367.5 c 128,-1,18
 672 214 672 214 579 104 c 1,19,20
 533 48 533 48 459.5 16.5 c 128,-1,21
 386 -15 386 -15 294 -15 c 128,-1,22
 202 -15 202 -15 139 6 c 1,23,24
 77 29 77 29 77 62 c 0,25,26
 77 81 77 81 93.5 87.5 c 0,27,28
 99.6285714286 89.9142857143 99.6285714286 89.9142857143 108.714285714 89.9142857143 c 128,-1,29
 117.8 89.9142857143 117.8 89.9142857143 131 83 c 1,30,-1
 134 340 l 1,0,-1
373 371 m 0,31,32
 373 338 373 338 321 338 c 0,33,34
 293 338 293 338 206 341 c 1,35,36
 206 171.5 206 171.5 212 62 c 1,37,38
 240.5 56 240.5 56 296 56 c 0,39,40
 438 56 438 56 516 147.25 c 128,-1,41
 594 238.5 594 238.5 594 368.25 c 128,-1,42
 594 498 594 498 518 589 c 0,43,44
 480 635 480 635 419.5 661.5 c 128,-1,45
 359 688 359 688 286 688 c 0,46,47
 248.5 688 248.5 688 211 679 c 1,48,49
 206 601 206 601 206 401 c 1,50,-1
 332 404 l 2,51,52
 350 404 350 404 361.5 395 c 128,-1,53
 373 386 373 386 373 371 c 0,31,32
EndSplineSet
EndChar

StartChar: multiply
Encoding: 215 215 133
Width: 504
Flags: HW
LayerCount: 2
Fore
SplineSet
421 432 m 1,0,1
 430.56097561 419.707317073 430.56097561 419.707317073 430.56097561 404.599085366 c 128,-1,2
 430.56097561 389.490853659 430.56097561 389.490853659 390 354 c 1,3,4
 308 274 308 274 293 257 c 1,5,6
 358.5 191.5 358.5 191.5 424 126 c 0,7,8
 434 117 434 117 434 103.5 c 128,-1,9
 434 90 434 90 424.5 80 c 128,-1,10
 415 70 415 70 403.5 70 c 128,-1,11
 392 70 392 70 382.5 76 c 128,-1,12
 373 82 373 82 367.5 88 c 128,-1,13
 362 94 362 94 337.5 121 c 128,-1,14
 313 148 313 148 252 213 c 1,15,-1
 130 81 l 2,16,17
 118 69 118 69 103 69 c 128,-1,18
 88 69 88 69 79 79.5 c 128,-1,19
 70 90 70 90 70 98.5 c 128,-1,20
 70 107 70 107 71 111 c 128,-1,21
 72 115 72 115 73.5 118 c 128,-1,22
 75 121 75 121 79.5 126 c 128,-1,23
 84 131 84 131 87 134 c 128,-1,24
 90 137 90 137 98 144 c 128,-1,25
 106 151 106 151 119 164 c 0,26,27
 165 210 165 210 211 256 c 1,28,29
 195 274 195 274 138 329 c 2,30,-1
 82 384 l 1,31,32
 71.7441860465 397.186046512 71.7441860465 397.186046512 71.7441860465 408.976744186 c 128,-1,33
 71.7441860465 420.76744186 71.7441860465 420.76744186 81.8720930233 430.88372093 c 128,-1,34
 92 441 92 441 106.5 441 c 128,-1,35
 121 441 121 441 130.5 431.5 c 128,-1,36
 140 422 140 422 184 373 c 1,37,-1
 252 301 l 1,38,39
 364 423 364 423 367 426 c 0,40,41
 383.666666667 442.666666667 383.666666667 442.666666667 397 442.666666667 c 128,-1,42
 410.333333333 442.666666667 410.333333333 442.666666667 421 432 c 1,0,1
EndSplineSet
EndChar

StartChar: Thorn
Encoding: 222 222 134
Width: 567
Flags: HMW
HStem: -10 21G<123.5 148.5> 740 20G<123.5 148.5>
LayerCount: 2
Fore
SplineSet
98 40 m 2,0,-1
 103 375 l 1,1,-1
 98 710 l 2,2,3
 98 760 98 760 136 760 c 128,-1,4
 174 760 174 760 174 710 c 0,5,6
 174 692 174 692 171 605 c 1,7,8
 220 622 220 622 289 622 c 0,9,10
 401 622 401 622 470 562 c 128,-1,11
 539 502 539 502 539 411.5 c 0,12,13
 539 321 539 321 470 261 c 128,-1,14
 401 201 401 201 288 201 c 0,15,16
 219 201 219 201 170 218 c 1,17,-1
 174 40 l 1,18,19
 174 -10 174 -10 136 -10 c 128,-1,20
 98 -10 98 -10 98 40 c 2,0,-1
172 543 m 1,21,22
 170 487 170 487 170 397.5 c 0,23,24
 170 308 170 308 171 280 c 1,25,26
 222 264 222 264 293.5 264 c 0,27,28
 365 264 365 264 414.5 304.5 c 0,29,30
 464 345 464 345 464 411.5 c 0,31,32
 464 478 464 478 414.5 518.5 c 0,33,34
 365 559 365 559 294 559 c 0,35,36
 223 559 223 559 172 543 c 1,21,22
EndSplineSet
EndChar

StartChar: germandbls
Encoding: 223 223 135
Width: 544
Flags: HMW
HStem: -10 21G<136 154 354 392.5> 740 20G<222.5 319.5>
VStem: 20 161<460 480.5> 109 207<375 407 374.5 442 374.5 442>
LayerCount: 2
Fore
SplineSet
58 502 m 2,0,-1
 108 500 l 1,1,-1
 108 585 l 2,2,3
 108 674 108 674 151.5 717 c 128,-1,4
 195 760 195 760 268.5 760 c 128,-1,5
 342 760 342 760 384 719.5 c 128,-1,6
 426 679 426 679 426 615 c 0,7,8
 426 577 426 577 410 541 c 128,-1,9
 394 505 394 505 371 482 c 0,10,11
 316 430 316 430 316 396 c 0,12,13
 316 342 316 342 386 297 c 1,14,15
 481.592592593 240.962962963 481.592592593 240.962962963 504 188 c 0,16,17
 515 162 515 162 515 131 c 0,18,19
 515 70 515 70 473.5 30 c 128,-1,20
 432 -10 432 -10 374 -10 c 128,-1,21
 316 -10 316 -10 275.5 12.5 c 128,-1,22
 235 35 235 35 235 63 c 0,23,24
 235 97 235 97 268 97 c 0,25,26
 276 97 276 97 306.931034483 75.3735632184 c 128,-1,27
 337.862068966 53.7471264368 337.862068966 53.7471264368 365.82183908 53.7471264368 c 128,-1,28
 393.781609195 53.7471264368 393.781609195 53.7471264368 418 75 c 1,29,30
 442 94 442 94 442 125 c 0,31,32
 442 180 442 180 390 214 c 0,33,34
 379 222 379 222 354.5 237.5 c 128,-1,35
 330 253 330 253 315 263 c 0,36,37
 241.305555556 312.12962963 241.305555556 312.12962963 241.305555556 385.112268519 c 0,38,39
 241.305555556 447.783783784 241.305555556 447.783783784 296 501 c 1,40,41
 351 559 351 559 351 601.5 c 128,-1,42
 351 644 351 644 328.5 668.5 c 128,-1,43
 306 693 306 693 266 693 c 0,44,45
 181 693 181 693 181 576 c 2,46,-1
 181 41 l 2,47,48
 181 18 181 18 170.5 4 c 128,-1,49
 160 -10 160 -10 142 -10 c 128,-1,50
 124 -10 124 -10 113.5 3.5 c 128,-1,51
 103 17 103 17 103 41 c 128,-1,52
 103 65 103 65 106 159 c 128,-1,53
 109 253 109 253 109 375 c 2,54,-1
 109 442 l 1,55,-1
 58 440 l 1,56,57
 20 440 20 440 20 470 c 0,58,59
 20 485 20 485 31 493.5 c 128,-1,60
 42 502 42 502 58 502 c 2,0,-1
EndSplineSet
EndChar

StartChar: aacute
Encoding: 225 225 137
Width: 571
Flags: HMW
HStem: -10 21G<212 252.5 456.5 495.5> 740 20G<340 364>
VStem: 406 81 415 119<33 122>
LayerCount: 2
Fore
SplineSet
467 242 m 1,0,1
 467 169 467 169 477.5 120.5 c 128,-1,2
 488 72 488 72 504 66 c 0,3,4
 510 63 510 63 518.5 62 c 128,-1,5
 527 61 527 61 530.5 59 c 128,-1,6
 534 57 534 57 534 51 c 0,7,8
 534 23 534 23 519 6.5 c 128,-1,9
 504 -10 504 -10 475.5 -10 c 128,-1,10
 447 -10 447 -10 431 26.5 c 128,-1,11
 415 63 415 63 415 122 c 1,12,13
 388 64 388 64 340 27 c 128,-1,14
 292 -10 292 -10 231.5 -10 c 128,-1,15
 171 -10 171 -10 128 30 c 0,16,17
 48 104 48 104 48 239 c 0,18,19
 48 348 48 348 111 429 c 128,-1,20
 174 510 174 510 273 510 c 0,21,22
 348 510 348 510 403 459 c 1,23,24
 403 510 403 510 441 510 c 0,25,26
 487 510 487 510 487 441.5 c 128,-1,27
 487 373 487 373 467 242 c 1,0,1
409 233 m 1,28,-1
 404 387 l 1,29,30
 345 445 345 445 279 445 c 128,-1,31
 213 445 213 445 166 386 c 128,-1,32
 119 327 119 327 119 243.5 c 128,-1,33
 119 160 119 160 150 107.5 c 128,-1,34
 181 55 181 55 236 55 c 128,-1,35
 291 55 291 55 337.5 104 c 128,-1,36
 384 153 384 153 409 233 c 1,28,-1
388 722 m 0,37,38
 388 679 388 679 342.039986751 635.687987413 c 128,-1,39
 296.079973502 592.375974827 296.079973502 592.375974827 269.539986751 592.375974827 c 128,-1,40
 243 592.375974827 243 592.375974827 243 614 c 0,41,42
 243 627 243 627 254 638.5 c 128,-1,43
 265 650 265 650 282 671 c 1,44,45
 290 683 290 683 301 708.5 c 128,-1,46
 312 734 312 734 323.5 747 c 128,-1,47
 335 760 335 760 352 760 c 128,-1,48
 369 760 369 760 378.5 749 c 128,-1,49
 388 738 388 738 388 722 c 0,37,38
EndSplineSet
EndChar

StartChar: acircumflex
Encoding: 226 226 138
Width: 571
Flags: HMW
HStem: -10 21G<212 252.5 456.5 495.5>
VStem: 406 81 415 119<33 122>
LayerCount: 2
Fore
SplineSet
467 242 m 1,0,1
 467 169 467 169 477.5 120.5 c 128,-1,2
 488 72 488 72 504 66 c 0,3,4
 510 63 510 63 518.5 62 c 128,-1,5
 527 61 527 61 530.5 59 c 128,-1,6
 534 57 534 57 534 51 c 0,7,8
 534 23 534 23 519 6.5 c 128,-1,9
 504 -10 504 -10 475.5 -10 c 128,-1,10
 447 -10 447 -10 431 26.5 c 128,-1,11
 415 63 415 63 415 122 c 1,12,13
 388 64 388 64 340 27 c 128,-1,14
 292 -10 292 -10 231.5 -10 c 128,-1,15
 171 -10 171 -10 128 30 c 0,16,17
 48 104 48 104 48 239 c 0,18,19
 48 348 48 348 111 429 c 128,-1,20
 174 510 174 510 273 510 c 0,21,22
 348 510 348 510 403 459 c 1,23,24
 403 510 403 510 441 510 c 0,25,26
 487 510 487 510 487 441.5 c 128,-1,27
 487 373 487 373 467 242 c 1,0,1
409 233 m 1,28,-1
 404 387 l 1,29,30
 345 445 345 445 279 445 c 128,-1,31
 213 445 213 445 166 386 c 128,-1,32
 119 327 119 327 119 243.5 c 128,-1,33
 119 160 119 160 150 107.5 c 128,-1,34
 181 55 181 55 236 55 c 128,-1,35
 291 55 291 55 337.5 104 c 128,-1,36
 384 153 384 153 409 233 c 1,28,-1
341 638 m 0,37,38
 301 686 301 686 285.5 686 c 128,-1,39
 270 686 270 686 230 638 c 1,40,41
 227 636 227 636 209.5 612 c 128,-1,42
 192 588 192 588 175.5 588 c 128,-1,43
 159 588 159 588 149 596 c 1,44,45
 140 605 140 605 140 616 c 0,46,47
 140 632 140 632 148.5 640.5 c 128,-1,48
 157 649 157 649 170 660 c 0,49,50
 207.125 691.413461538 207.125 691.413461538 226 719 c 1,51,52
 244 742 244 742 255 751 c 0,53,54
 267 760 267 760 285 760 c 128,-1,55
 303 760 303 760 314.5 751.5 c 128,-1,56
 326 743 326 743 345.5 718.5 c 128,-1,57
 365 694 365 694 375 684 c 128,-1,58
 385 674 385 674 399 662.5 c 0,59,60
 423.127659574 642.680851064 423.127659574 642.680851064 427 633 c 1,61,62
 431.266666667 627.133333333 431.266666667 627.133333333 431.266666667 620.033333333 c 128,-1,63
 431.266666667 612.933333333 431.266666667 612.933333333 428 605 c 0,64,65
 421 588 421 588 400 588 c 0,66,67
 398.333333333 587.666666667 398.333333333 587.666666667 393.166666667 587.666666667 c 128,-1,68
 388 587.666666667 388 587.666666667 377 596.833333333 c 128,-1,69
 366 606 366 606 354.5 621.5 c 128,-1,70
 343 637 343 637 341 638 c 0,37,38
EndSplineSet
EndChar

StartChar: atilde
Encoding: 227 227 139
Width: 571
Flags: HMW
HStem: -10 21G<212 252.5 456.5 495.5> 597 118
VStem: 406 81 415 119<33 122>
LayerCount: 2
Fore
SplineSet
467 242 m 1,0,1
 467 169 467 169 477.5 120.5 c 128,-1,2
 488 72 488 72 504 66 c 0,3,4
 510 63 510 63 518.5 62 c 128,-1,5
 527 61 527 61 530.5 59 c 128,-1,6
 534 57 534 57 534 51 c 0,7,8
 534 23 534 23 519 6.5 c 128,-1,9
 504 -10 504 -10 475.5 -10 c 0,10,11
 447 -10 447 -10 431 26.5 c 128,-1,12
 415 63 415 63 415 122 c 1,13,14
 388 64 388 64 340 27 c 0,15,16
 292 -10 292 -10 231.5 -10 c 0,17,18
 171 -10 171 -10 128 30 c 0,19,20
 48 104 48 104 48 239 c 0,21,22
 48 348 48 348 111 429 c 128,-1,23
 174 510 174 510 273 510 c 0,24,25
 348 510 348 510 403 459 c 1,26,27
 403 510 403 510 441 510 c 0,28,29
 487 510 487 510 487 441.5 c 0,30,31
 487 373 487 373 467 242 c 1,0,1
409 233 m 1,32,-1
 404 387 l 1,33,34
 345 445 345 445 279 445 c 0,35,36
 213 445 213 445 166 386 c 128,-1,37
 119 327 119 327 119 243.5 c 0,38,39
 119 160 119 160 150 107.5 c 128,-1,40
 181 55 181 55 236 55 c 128,-1,41
 291 55 291 55 337.5 104 c 128,-1,42
 384 153 384 153 409 233 c 1,32,-1
484 682 m 0,43,44
 484 648 484 648 458.5 622.5 c 128,-1,45
 433 597 433 597 398.5 597 c 0,46,47
 364 597 364 597 316.5 624.5 c 0,48,49
 269 652 269 652 252 652 c 0,50,51
 235 652 235 652 222 643 c 128,-1,52
 209 634 209 634 205.5 629.5 c 128,-1,53
 202 625 202 625 188 606 c 1,54,55
 174.9375 590.875 174.9375 590.875 164.75 590.875 c 0,56,57
 154.5625 590.875 154.5625 590.875 148 594 c 0,58,59
 127 604 127 604 127 633 c 0,60,61
 127 662 127 662 158.5 688.5 c 0,62,63
 190 715 190 715 232.5 715 c 0,64,65
 275 715 275 715 326 687 c 0,66,67
 377 659 377 659 399 659 c 0,68,69
 421 659 421 659 437.5 684.5 c 0,70,71
 454 710 454 710 463 710 c 128,-1,72
 472 710 472 710 478 701.5 c 128,-1,73
 484 693 484 693 484 682 c 0,43,44
EndSplineSet
EndChar

StartChar: adieresis
Encoding: 228 228 140
Width: 571
Flags: HMW
HStem: -10 21G<212 252.5 456.5 495.5> 616 109<196 216 356 376>
VStem: 160 91<663.5 682.5> 320 91<663.5 682.5> 406 81 415 119<33 122>
LayerCount: 2
Fore
SplineSet
467 242 m 1,0,1
 467 169 467 169 477.5 120.5 c 128,-1,2
 488 72 488 72 504 66 c 0,3,4
 510 63 510 63 518.5 62 c 128,-1,5
 527 61 527 61 530.5 59 c 128,-1,6
 534 57 534 57 534 51 c 0,7,8
 534 23 534 23 519 6.5 c 128,-1,9
 504 -10 504 -10 475.5 -10 c 0,10,11
 447 -10 447 -10 431 26.5 c 128,-1,12
 415 63 415 63 415 122 c 1,13,14
 388 64 388 64 340 27 c 0,15,16
 292 -10 292 -10 231.5 -10 c 0,17,18
 171 -10 171 -10 128 30 c 0,19,20
 48 104 48 104 48 239 c 0,21,22
 48 348 48 348 111 429 c 128,-1,23
 174 510 174 510 273 510 c 0,24,25
 348 510 348 510 403 459 c 1,26,27
 403 510 403 510 441 510 c 0,28,29
 487 510 487 510 487 441.5 c 0,30,31
 487 373 487 373 467 242 c 1,0,1
409 233 m 1,32,-1
 404 387 l 1,33,34
 345 445 345 445 279 445 c 0,35,36
 213 445 213 445 166 386 c 128,-1,37
 119 327 119 327 119 243.5 c 0,38,39
 119 160 119 160 150 107.5 c 128,-1,40
 181 55 181 55 236 55 c 128,-1,41
 291 55 291 55 337.5 104 c 128,-1,42
 384 153 384 153 409 233 c 1,32,-1
210 725 m 0,43,44
 251 725 251 725 251 677 c 0,45,46
 251 655 251 655 236.5 635.5 c 128,-1,47
 222 616 222 616 202 616 c 0,48,49
 160 616 160 616 160 667 c 0,50,51
 160 691 160 691 174.5 708 c 128,-1,52
 189 725 189 725 210 725 c 0,43,44
370 725 m 0,53,54
 411 725 411 725 411 677 c 0,55,56
 411 655 411 655 396.5 635.5 c 128,-1,57
 382 616 382 616 362 616 c 0,58,59
 320 616 320 616 320 667 c 0,60,61
 320 691 320 691 334.5 708 c 128,-1,62
 349 725 349 725 370 725 c 0,53,54
EndSplineSet
EndChar

StartChar: ae
Encoding: 230 230 142
Width: 837
Flags: HMW
HStem: -15 21G<192 260 561.5 628.5> 495 20G<216.5 282 574.5 639>
LayerCount: 2
Fore
SplineSet
368 227 m 1,0,1
 300 251 300 251 239 251 c 128,-1,2
 178 251 178 251 144 221.5 c 128,-1,3
 110 192 110 192 110 149.5 c 128,-1,4
 110 107 110 107 143 79 c 128,-1,5
 176 51 176 51 228 51 c 128,-1,6
 280 51 280 51 324 97.5 c 128,-1,7
 368 144 368 144 368 227 c 1,0,1
445 217 m 1,8,9
 451 148 451 148 497 99 c 128,-1,10
 543 50 543 50 605.5 50 c 128,-1,11
 668 50 668 50 708 80.5 c 128,-1,12
 748 111 748 111 760.5 111 c 128,-1,13
 773 111 773 111 780.5 103.5 c 128,-1,14
 788 96 788 96 788 85 c 0,15,16
 788 57 788 57 730.5 21 c 128,-1,17
 673 -15 673 -15 606 -15 c 0,18,19
 472 -15 472 -15 408 106 c 1,20,21
 347 -15 347 -15 217 -15 c 0,22,23
 142 -15 142 -15 90 31 c 1,24,25
 39 78 39 78 39 149 c 128,-1,26
 39 220 39 220 91 266.5 c 0,27,28
 146.67950052 316.290322581 146.67950052 316.290322581 220.404266389 316.290322581 c 128,-1,29
 294.129032258 316.290322581 294.129032258 316.290322581 370 291 c 1,30,31
 370 372 370 372 335 410.5 c 128,-1,32
 300 449 300 449 242.5 449 c 128,-1,33
 185 449 185 449 153.5 419.5 c 128,-1,34
 122 390 122 390 105 390 c 0,35,36
 71 390 71 390 71 421.25 c 128,-1,37
 71 452.5 71 452.5 121.5 483.75 c 128,-1,38
 172 515 172 515 237 515 c 128,-1,39
 302 515 302 515 349 485.5 c 128,-1,40
 396 456 396 456 421 404 c 1,41,42
 493 515 493 515 615 515 c 0,43,44
 688 515 688 515 738 470 c 128,-1,45
 788 425 788 425 788 352.5 c 128,-1,46
 788 280 788 280 726 243 c 128,-1,47
 664 206 664 206 583.5 206 c 128,-1,48
 503 206 503 206 445 217 c 1,8,9
615 450 m 0,49,50
 549 450 549 450 504.5 400 c 128,-1,51
 460 350 460 350 446 282 c 1,52,53
 497 269 497 269 566 269 c 128,-1,54
 635 269 635 269 676 292 c 128,-1,55
 717 315 717 315 717 355 c 128,-1,56
 717 395 717 395 689.5 422.5 c 128,-1,57
 662 450 662 450 615 450 c 0,49,50
EndSplineSet
EndChar

StartChar: ccedilla
Encoding: 231 231 143
Width: 509
Flags: HMW
HStem: -230 21G<246.5 311.5> 495 20G<263.5 323>
VStem: 170 228<-163.5 -155.5>
LayerCount: 2
Fore
SplineSet
293 -15 m 1,0,1
 296 -43 296 -43 347 -69.5 c 128,-1,2
 398 -96 398 -96 398 -136 c 128,-1,3
 398 -176 398 -176 363 -203 c 128,-1,4
 328 -230 328 -230 280.5 -230 c 128,-1,5
 233 -230 233 -230 201.5 -208 c 128,-1,6
 170 -186 170 -186 170 -160 c 0,7,8
 170 -153 170 -153 175 -147 c 128,-1,9
 180 -141 180 -141 188 -141 c 128,-1,10
 196 -141 196 -141 223.130434783 -153.793478261 c 128,-1,11
 250.260869565 -166.586956522 250.260869565 -166.586956522 271.641304348 -166.586956522 c 128,-1,12
 293.02173913 -166.586956522 293.02173913 -166.586956522 309.387792642 -156.970401338 c 128,-1,13
 325.753846154 -147.353846154 325.753846154 -147.353846154 325.753846154 -136.076923077 c 128,-1,14
 325.753846154 -124.8 325.753846154 -124.8 310 -112 c 0,15,16
 308 -110 308 -110 287.5 -96 c 128,-1,17
 267 -82 267 -82 258 -73.5 c 128,-1,18
 249 -65 249 -65 239 -46.5 c 128,-1,19
 229 -28 229 -28 229 -6 c 1,20,21
 148 15 148 15 96 86 c 1,22,23
 46 157 46 157 46 259 c 128,-1,24
 46 361 46 361 116.25 438 c 128,-1,25
 186.5 515 186.5 515 302 515 c 0,26,27
 364 515 364 515 413 486.5 c 128,-1,28
 462 458 462 458 462 430 c 128,-1,29
 462 402 462 402 442 394 c 0,30,31
 436.285714286 391.714285714 436.285714286 391.714285714 425.857142857 391.714285714 c 128,-1,32
 415.428571429 391.714285714 415.428571429 391.714285714 399 406 c 0,33,34
 346 450 346 450 293 450 c 0,35,36
 224 450 224 450 172 392 c 1,37,38
 121 333.5 121 333.5 121 250.25 c 128,-1,39
 121 167 121 167 173.5 108.5 c 128,-1,40
 226 50 226 50 302 50 c 0,41,42
 362 50 362 50 417 90 c 0,43,44
 436 103 436 103 446 103 c 0,45,46
 471 103 471 103 471 76.5 c 128,-1,47
 471 50 471 50 414 18 c 128,-1,48
 357 -14 357 -14 293 -15 c 1,0,1
EndSplineSet
EndChar

StartChar: eacute
Encoding: 233 233 145
Width: 539
Flags: HMW
HStem: -15 21G<273.5 330.5> 495 20G<281.5 335> 740 20G<351 375>
LayerCount: 2
Fore
SplineSet
317 450 m 0,0,1
 251 450 251 450 206.5 400.5 c 128,-1,2
 162 351 162 351 148 285 c 1,3,4
 202 269 202 269 269.5 269 c 128,-1,5
 337 269 337 269 378 292 c 128,-1,6
 419 315 419 315 419 355 c 128,-1,7
 419 395 419 395 391.5 422.5 c 128,-1,8
 364 450 364 450 317 450 c 0,0,1
274 206 m 0,9,10
 222 206 222 206 147 221 c 1,11,12
 153 150 153 150 199.5 100 c 128,-1,13
 246 50 246 50 308 50 c 128,-1,14
 370 50 370 50 410 80.5 c 128,-1,15
 450 111 450 111 462.5 111 c 128,-1,16
 475 111 475 111 482.5 103.5 c 128,-1,17
 490 96 490 96 490 85 c 0,18,19
 490 57 490 57 432.5 21 c 128,-1,20
 375 -15 375 -15 308 -15 c 0,21,22
 204 -15 204 -15 142.5 58.5 c 128,-1,23
 81 132 81 132 77 234 c 1,24,25
 24 251 24 251 24 286 c 0,26,27
 24 309 24 309 41 315.5 c 0,28,29
 46.6666666667 317.666666667 46.6666666667 317.666666667 56.5 317.666666667 c 128,-1,30
 66.3333333333 317.666666667 66.3333333333 317.666666667 83 309 c 1,31,32
 106 400 106 400 166.5 457.5 c 128,-1,33
 227 515 227 515 308.5 515 c 128,-1,34
 390 515 390 515 440 470 c 128,-1,35
 490 425 490 425 490 352.5 c 128,-1,36
 490 280 490 280 428 243 c 128,-1,37
 366 206 366 206 274 206 c 0,9,10
399 722 m 0,38,39
 399 679 399 679 353.039986751 635.687987413 c 128,-1,40
 307.079973502 592.375974827 307.079973502 592.375974827 281.060688 592.375974827 c 128,-1,41
 255.041402498 592.375974827 255.041402498 592.375974827 254 614 c 0,42,43
 254 627 254 627 265 638.5 c 128,-1,44
 276 650 276 650 293 671 c 1,45,46
 301 683 301 683 312 708.5 c 128,-1,47
 323 734 323 734 334.5 747 c 128,-1,48
 346 760 346 760 363 760 c 128,-1,49
 380 760 380 760 389.5 749 c 128,-1,50
 399 738 399 738 399 722 c 0,38,39
EndSplineSet
EndChar

